<?xml version="1.0" encoding="UTF-8"?><svg id="Layer_1" xmlns="http://www.w3.org/2000/svg" viewBox="0 0 333 330"><defs><style>.cls-1{fill:#fff;fill-rule:evenodd;}</style></defs><path class="cls-1" d="M313.36,28.46L15.48,143.37c-7.35,2.83-7.29,13.24,.08,16l72.58,27.09,28.09,90.35c1.8,5.78,8.87,7.92,13.57,4.08l40.46-32.98c4.24-3.46,10.28-3.63,14.71-.41l72.98,52.98c5.02,3.65,12.14,.9,13.4-5.17L324.81,38.18c1.38-6.63-5.14-12.16-11.45-9.72Zm-52.81,60.66l-117.07,108.82c-4.12,3.83-6.77,8.96-7.52,14.52l-3.99,29.55c-.53,3.95-6.07,4.34-7.16,.52l-15.34-53.89c-1.75-6.15,.8-12.71,6.24-16.07l141.85-87.37c2.55-1.57,5.17,1.88,2.98,3.91Z"/></svg>