<svg width="582" height="199" viewBox="0 0 582 199" fill="none" xmlns="http://www.w3.org/2000/svg">
<circle cx="21" cy="178" r="19.5" fill="black" stroke="white"/>
<path fill-rule="evenodd" clip-rule="evenodd" d="M581.031 14.0048C548.239 8.67527 505.303 1.89109 460.136 1.10506C408.569 0.207662 352.509 7.05542 303.777 33.8322C282.523 45.5106 260.832 62.2903 239.178 79.3792C237.141 80.9865 235.103 82.5983 233.061 84.2124C213.043 100.041 192.756 116.081 171.431 130.024C124.544 160.681 75.6869 179.167 20.5337 161.679C12.637 159.175 4.2055 163.547 1.70165 171.444C-0.802195 179.341 3.56963 187.772 11.4665 190.276C79.3133 211.789 137.976 187.742 187.849 155.133C210.373 140.406 231.726 123.518 251.581 107.815L251.581 107.814C253.658 106.172 255.719 104.542 257.763 102.929C279.698 85.6181 299.498 70.414 318.224 60.1246C360.491 36.8997 410.597 30.2475 459.614 31.1005C502.155 31.8408 542.681 38.1793 575.327 43.4739L581.031 14.0048Z" fill="black"/>
<path d="M581.031 14.0048L581.522 14.0998L581.62 13.594L581.111 13.5113L581.031 14.0048ZM460.136 1.10506L460.127 1.60498L460.127 1.60498L460.136 1.10506ZM303.777 33.8322L304.017 34.2704L304.017 34.2704L303.777 33.8322ZM239.178 79.3792L238.868 78.9867L238.868 78.9867L239.178 79.3792ZM233.061 84.2124L232.751 83.8202L232.751 83.8202L233.061 84.2124ZM171.431 130.024L171.705 130.443L171.705 130.443L171.431 130.024ZM20.5337 161.679L20.3826 162.156L20.3826 162.156L20.5337 161.679ZM11.4665 190.276L11.6176 189.799L11.6176 189.799L11.4665 190.276ZM187.849 155.133L187.575 154.715L187.575 154.715L187.849 155.133ZM251.581 107.815L251.274 107.42L251.271 107.423L251.581 107.815ZM251.581 107.814L251.888 108.209L251.892 108.207L251.581 107.814ZM257.763 102.929L257.453 102.537L257.453 102.537L257.763 102.929ZM318.224 60.1246L317.983 59.6864L317.983 59.6864L318.224 60.1246ZM459.614 31.1005L459.623 30.6006L459.623 30.6006L459.614 31.1005ZM575.327 43.4739L575.247 43.9675L575.726 44.0451L575.818 43.569L575.327 43.4739ZM581.111 13.5113C548.32 8.18183 505.352 1.39186 460.145 0.605135L460.127 1.60498C505.255 2.39032 548.158 9.1687 580.951 14.4983L581.111 13.5113ZM460.145 0.605135C408.536 -0.293002 352.376 6.55802 303.536 33.394L304.017 34.2704C352.642 7.55283 408.603 0.708326 460.127 1.60498L460.145 0.605135ZM303.536 33.394C282.24 45.0956 260.518 61.9014 238.868 78.9867L239.487 79.7717C261.146 62.6792 282.806 45.9257 304.017 34.2704L303.536 33.394ZM238.868 78.9867C236.831 80.5941 234.792 82.2061 232.751 83.8202L233.371 84.6046C235.413 82.9905 237.451 81.3788 239.487 79.7717L238.868 78.9867ZM232.751 83.8202C212.73 99.6509 192.461 115.677 171.158 129.606L171.705 130.443C193.052 116.485 213.356 100.43 233.371 84.6046L232.751 83.8202ZM171.158 129.606C124.321 160.23 75.6267 178.623 20.6849 161.203L20.3826 162.156C75.7471 179.71 124.768 161.132 171.705 130.443L171.158 129.606ZM20.6849 161.203C12.5248 158.615 3.81234 163.133 1.22503 171.293L2.17827 171.595C4.59865 163.961 12.7491 159.735 20.3826 162.156L20.6849 161.203ZM1.22503 171.293C-1.36227 179.453 3.15528 188.165 11.3154 190.753L11.6176 189.799C3.98398 187.379 -0.242119 179.229 2.17827 171.595L1.22503 171.293ZM11.3154 190.753C79.374 212.332 138.2 188.193 188.122 155.552L187.575 154.715C137.752 187.291 79.2527 211.245 11.6176 189.799L11.3154 190.753ZM188.122 155.552C210.669 140.81 232.039 123.908 251.891 108.207L251.271 107.423C231.413 123.128 210.077 140.002 187.575 154.715L188.122 155.552ZM251.888 108.209L251.888 108.209L251.274 107.42L251.274 107.42L251.888 108.209ZM251.892 108.207C253.969 106.564 256.029 104.934 258.072 103.322L257.453 102.537C255.409 104.15 253.348 105.78 251.271 107.422L251.892 108.207ZM258.072 103.322C280.013 86.0068 299.781 70.829 318.464 60.5628L317.983 59.6864C299.215 69.9989 279.384 85.2294 257.453 102.537L258.072 103.322ZM318.464 60.5628C360.624 37.3971 410.631 30.7482 459.605 31.6004L459.623 30.6006C410.564 29.7468 360.358 36.4023 317.983 59.6864L318.464 60.5628ZM459.605 31.6004C502.106 32.3401 542.601 38.6727 575.247 43.9675L575.407 42.9804C542.761 37.6858 502.203 31.3416 459.623 30.6006L459.605 31.6004ZM575.818 43.569L581.522 14.0998L580.54 13.9098L574.836 43.3789L575.818 43.569Z" fill="white"/>
</svg>
