<svg width="39" height="39" viewBox="0 0 39 39" fill="none" xmlns="http://www.w3.org/2000/svg">
<path d="M12.0189 2.33984C6.67915 2.33984 2.33984 6.67915 2.33984 12.0189V25.4208C2.33984 30.7605 6.67915 35.0998 12.0189 35.0998H25.4208C30.7605 35.0998 35.0998 30.7605 35.0998 25.4208V12.0189C35.0998 6.67915 30.7605 2.33984 25.4208 2.33984H12.0189ZM27.6544 8.29621C28.4746 8.29621 29.1435 8.96513 29.1435 9.7853C29.1435 10.6055 28.4746 11.2744 27.6544 11.2744C26.8342 11.2744 26.1653 10.6055 26.1653 9.7853C26.1653 8.96513 26.8342 8.29621 27.6544 8.29621ZM18.7198 10.5298C23.2395 10.5298 26.9098 14.2002 26.9098 18.7198C26.9098 23.2395 23.2395 26.9098 18.7198 26.9098C14.2002 26.9098 10.5298 23.2395 10.5298 18.7198C10.5298 14.2002 14.2002 10.5298 18.7198 10.5298ZM18.7198 12.0189C15.0262 12.0189 12.0189 15.0262 12.0189 18.7198C12.0189 22.4135 15.0262 25.4208 18.7198 25.4208C22.4135 25.4208 25.4208 22.4135 25.4208 18.7198C25.4208 15.0262 22.4135 12.0189 18.7198 12.0189Z" fill="white"/>
</svg>
