<?xml version="1.0" encoding="utf-8"?>
<!-- Generator: Adobe Illustrator 26.3.1, SVG Export Plug-In . SVG Version: 6.00 Build 0)  -->
<svg version="1.1" id="Layer_1" xmlns="http://www.w3.org/2000/svg" xmlns:xlink="http://www.w3.org/1999/xlink" x="0px" y="0px"
	 viewBox="0 0 153 132.8" style="enable-background:new 0 0 153 132.8;" xml:space="preserve">
<style type="text/css">
	.st0{fill:none;stroke:#FFFFFF;}
	.st1{fill-rule:evenodd;clip-rule:evenodd;}
	.st2{fill:#FFFFFF;}
	.st3{stroke:#FFFFFF;}
</style>
<path class="st0" d="M10.5,50.9c-1.4-5.1,1.6-10.3,6.7-11.6l97.5-26.1c3.5-0.9,7,1.1,8,4.6l20.8,77.5c0.9,3.5-1.1,7-4.6,8
	L38.4,130.1c-3.5,0.9-7-1.1-8-4.6L10.5,50.9z"/>
<path class="st1" d="M17,38.8C11.7,40.2,8.5,45.7,10,51l0,0c-0.2-0.8-0.3-1.5-0.3-2.3c1.3,2.1,4,3.2,6.5,2.6L62,39c0,0,0,0,0.1,0
	l55.5-14.9c3.7-1,7.6,1.2,8.6,4.9l-3.1-11.4c-1-3.7-4.8-6-8.6-4.9L17,38.8z"/>
<path class="st2" d="M10,51l0.5-0.1L10,51z M9.6,48.7l0.4-0.3l-1-1.5l0.1,1.8L9.6,48.7z M16.2,51.3l0.1,0.5L16.2,51.3z M62,39
	l-0.1-0.5L62,39z M62,39l-0.1-0.5l0,0L62,39z M117.6,24.1l-0.1-0.5L117.6,24.1z M123.1,17.6l0.5-0.1L123.1,17.6z M10.5,50.9
	c-1.4-5.1,1.6-10.3,6.7-11.6l-0.3-1c-5.6,1.5-8.9,7.3-7.4,12.9L10.5,50.9z M10.5,50.9L10.5,50.9l-1,0.3l0,0L10.5,50.9z M10.5,50.9
	c-0.2-0.7-0.3-1.5-0.3-2.2l-1,0c0,0.8,0.1,1.6,0.4,2.4L10.5,50.9z M9.2,49c1.5,2.3,4.3,3.5,7.1,2.8l-0.3-1c-2.3,0.6-4.8-0.4-6-2.3
	L9.2,49z M16.3,51.8l45.8-12.3l-0.3-1L16.1,50.8L16.3,51.8z M62.1,39.5C62.1,39.5,62.1,39.5,62.1,39.5l-0.2-1c0,0,0,0-0.1,0
	L62.1,39.5z M62.2,39.5l55.5-14.9l-0.3-1L61.9,38.5L62.2,39.5z M117.7,24.6c3.5-0.9,7,1.1,8,4.6l1-0.3c-1.1-4-5.2-6.4-9.2-5.3
	L117.7,24.6z M122.6,17.8l3.1,11.4l1-0.3l-3.1-11.4L122.6,17.8z M114.6,13.2c3.5-0.9,7,1.1,8,4.6l1-0.3c-1.1-4-5.2-6.4-9.2-5.3
	L114.6,13.2z M17.2,39.3l97.5-26.1l-0.3-1L16.9,38.3L17.2,39.3z"/>
<path class="st3" d="M14.5,40.7c-3.1,0.8-5.3,2.9-4.4,6.2c0.7,2.5,3.8,4,6.9,3.1l103.1-27.6c2.2-0.6,4.4,0.4,4.8,2.2l-2.5-9.3
	c-0.5-1.8-2.7-2.8-4.8-2.2L14.5,40.7z"/>
<circle class="st3" cx="51.7" cy="20" r="17"/>
<circle class="st3" cx="53.9" cy="19.4" r="17"/>
<circle class="st3" cx="77.7" cy="23.4" r="17"/>
<circle class="st3" cx="80" cy="22.8" r="17"/>
<path class="st1" d="M9.6,48.7c0,0.8,0.1,1.5,0.3,2.3L13,62.5l0.8,3L30,125.6c1,3.7,4.8,6,8.6,5l100.4-26.9c3.7-1,5.9-4.8,4.9-8.6
	l-17.7-66c-1-3.7-4.8-6-8.6-4.9L35.1,46.2v0l-18.9,5.1C13.6,52,11,50.9,9.6,48.7z"/>
<path class="st2" d="M9.6,48.7l0.4-0.3l-1-1.5l0.1,1.8L9.6,48.7z M38.5,130.5l-0.1-0.5L38.5,130.5z M138.9,103.7l0.1,0.5
	L138.9,103.7z M143.8,95.1l-0.5,0.1L143.8,95.1z M126.1,29.1l0.5-0.1L126.1,29.1z M35.1,46.2l-0.5,0.1l0.1,0.5l0.5-0.1L35.1,46.2z
	 M35.1,46.2l0.5-0.1l-0.1-0.5l-0.5,0.1L35.1,46.2z M9.1,48.7c0,0.8,0.1,1.6,0.4,2.4l1-0.3c-0.2-0.7-0.3-1.5-0.3-2.2L9.1,48.7z
	 M9.5,51.2l3.1,11.4l1-0.3l-3.1-11.4L9.5,51.2z M12.6,62.6l0.8,3l1-0.3l-0.8-3L12.6,62.6z M13.4,65.6l16.1,60.1l1-0.3L14.3,65.3
	L13.4,65.6z M29.5,125.7c1.1,4,5.2,6.4,9.2,5.3l-0.3-1c-3.5,0.9-7-1.1-8-4.6L29.5,125.7z M38.7,131L139,104.1l-0.3-1L38.4,130.1
	L38.7,131z M139,104.1c4-1.1,6.4-5.2,5.3-9.2l-1,0.3c0.9,3.5-1.1,7-4.6,8L139,104.1z M144.3,95l-17.7-66l-1,0.3l17.7,66L144.3,95z
	 M126.6,28.9c-1.1-4-5.2-6.4-9.2-5.3l0.3,1c3.5-0.9,7,1.1,8,4.6L126.6,28.9z M117.4,23.6L34.9,45.7l0.3,1l82.5-22.1L117.4,23.6z
	 M35.5,46.1L35.5,46.1l-1,0.3l0,0L35.5,46.1z M34.9,45.7L16,50.8l0.3,1l18.9-5.1L34.9,45.7z M16,50.8c-2.3,0.6-4.8-0.4-6-2.3L9.2,49
	c1.5,2.3,4.3,3.5,7.1,2.8L16,50.8z"/>
<path class="st3" d="M137.7,44.8c-0.7-2.7-3.5-4.3-6.1-3.5l-2,0.5l1.8,6.9l-23.2,6.2c-6.2,1.7-9.8,8-8.2,14.1
	c1.7,6.2,8,9.8,14.1,8.2l25.8-6.9c2.4-0.6,3.8-3.1,3.1-5.4L137.7,44.8z"/>
<path class="st3" d="M129.9,42.9l2.9-0.8c1.6-0.4,3.2,0.5,3.6,2.1c0.4,1.6-0.5,3.2-2.1,3.6l-2.9,0.8L129.9,42.9z"/>
<circle class="st3" cx="112.1" cy="66.1" r="8.4"/>
</svg>
