<svg width="468" height="475" viewBox="0 0 468 475" fill="none" xmlns="http://www.w3.org/2000/svg">
<circle cx="146.1" cy="75.8394" r="61" transform="rotate(15 146.1 75.8394)" fill="black" stroke="white"/>
<path d="M298.922 428.924C298.057 432.151 294.964 434.728 289.862 436.548C284.777 438.361 277.817 439.377 269.456 439.565C252.741 439.94 230.544 437.002 206.837 430.649C183.131 424.297 162.439 415.744 148.151 407.061C141.003 402.718 135.484 398.358 131.987 394.245C128.479 390.118 127.088 386.34 127.953 383.113C128.818 379.885 131.911 377.309 137.013 375.489C142.097 373.675 149.058 372.659 157.419 372.472C174.134 372.097 196.33 375.035 220.037 381.387C243.744 387.739 264.436 396.293 278.724 404.975C285.871 409.318 291.391 413.678 294.887 417.791C298.396 421.919 299.787 425.696 298.922 428.924Z" fill="black" stroke="white"/>
<rect x="246.369" y="257.998" width="12" height="149" rx="6" transform="rotate(15 246.369 257.998)" fill="black" stroke="white"/>
<mask id="path-4-inside-1_1158_4697" fill="white">
<path fill-rule="evenodd" clip-rule="evenodd" d="M428.416 160.969C429.261 159.78 429.872 158.507 430.235 157.15C436.025 135.545 376.93 100.938 298.244 79.8543C219.557 58.7704 151.077 59.1931 145.287 80.7985C144.242 84.699 145.312 89.0233 148.23 93.6153L217.677 281.545C225.599 302.984 252.391 310.072 269.879 295.356L427.377 162.821C427.981 162.313 428.318 161.652 428.416 160.969Z"/>
</mask>
<path d="M428.416 160.969L427.601 160.39L427.461 160.587L427.427 160.826L428.416 160.969ZM148.23 93.6153L149.168 93.2687L149.131 93.1688L149.074 93.079L148.23 93.6153ZM217.677 281.545L218.615 281.198L217.677 281.545ZM269.879 295.356L269.235 294.591L269.879 295.356ZM427.377 162.821L426.733 162.056L426.733 162.056L427.377 162.821ZM429.27 156.891C428.939 158.126 428.381 159.292 427.601 160.39L429.232 161.549C430.141 160.268 430.805 158.888 431.201 157.409L429.27 156.891ZM297.985 80.8202C337.267 91.3458 371.624 105.239 395.412 119.17C407.313 126.139 416.518 133.088 422.376 139.592C428.269 146.134 430.581 151.998 429.27 156.891L431.201 157.409C432.785 151.499 429.881 144.935 423.862 138.254C417.809 131.533 408.408 124.462 396.423 117.444C372.44 103.399 337.906 89.4466 298.502 78.8883L297.985 80.8202ZM146.253 81.0573C147.564 76.1643 152.498 72.2418 160.873 69.5223C169.198 66.8189 180.644 65.403 194.435 65.3179C222.002 65.1477 258.703 70.2946 297.985 80.8202L298.502 78.8883C259.098 68.3301 222.215 63.1463 194.423 63.3179C180.534 63.4036 168.857 64.8267 160.255 67.6201C151.702 70.3976 145.905 74.6299 144.321 80.5396L146.253 81.0573ZM149.074 93.079C146.24 88.6193 145.307 84.5878 146.253 81.0573L144.321 80.5396C143.177 84.8102 144.384 89.4273 147.386 94.1516L149.074 93.079ZM218.615 281.198L149.168 93.2687L147.292 93.9619L216.739 281.892L218.615 281.198ZM269.235 294.591C252.277 308.861 226.297 301.988 218.615 281.198L216.739 281.892C224.902 303.98 252.504 311.283 270.522 296.121L269.235 294.591ZM426.733 162.056L269.235 294.591L270.522 296.121L428.021 163.586L426.733 162.056ZM427.427 160.826C427.362 161.275 427.143 161.711 426.733 162.056L428.021 163.586C428.82 162.914 429.274 162.028 429.406 161.112L427.427 160.826Z" fill="white" mask="url(#path-4-inside-1_1158_4697)"/>
<mask id="path-6-inside-2_1158_4697" fill="white">
<path fill-rule="evenodd" clip-rule="evenodd" d="M347.644 229.914C350.008 228.512 351.53 226.783 352.081 224.725C355.512 211.922 320.02 191.288 272.809 178.638C225.597 165.987 184.543 166.111 181.113 178.914C180.629 180.72 180.919 182.682 181.907 184.755L217.675 281.545C225.598 302.984 252.389 310.072 269.877 295.356L347.644 229.914Z"/>
</mask>
<path fill-rule="evenodd" clip-rule="evenodd" d="M347.644 229.914C350.008 228.512 351.53 226.783 352.081 224.725C355.512 211.922 320.02 191.288 272.809 178.638C225.597 165.987 184.543 166.111 181.113 178.914C180.629 180.72 180.919 182.682 181.907 184.755L217.675 281.545C225.598 302.984 252.389 310.072 269.877 295.356L347.644 229.914Z" fill="black"/>
<path d="M347.644 229.914L347.134 229.054L347.063 229.096L347 229.149L347.644 229.914ZM181.907 184.755L182.845 184.408L182.83 184.365L182.81 184.324L181.907 184.755ZM217.675 281.545L218.613 281.198L217.675 281.545ZM269.877 295.356L269.233 294.591L269.877 295.356ZM351.116 224.467C350.653 226.191 349.356 227.736 347.134 229.054L348.155 230.775C350.659 229.289 352.407 227.374 353.047 224.984L351.116 224.467ZM272.55 179.604C296.096 185.913 316.684 194.204 330.933 202.489C338.064 206.635 343.557 210.75 347.042 214.575C350.564 218.441 351.835 221.78 351.116 224.467L353.047 224.984C354.043 221.269 352.164 217.227 348.521 213.228C344.841 209.189 339.153 204.954 331.939 200.76C317.497 192.364 296.733 184.013 273.067 177.672L272.55 179.604ZM182.078 179.173C182.798 176.487 185.568 174.231 190.552 172.644C195.483 171.073 202.297 170.256 210.546 170.231C227.028 170.181 249.004 173.295 272.55 179.604L273.067 177.672C249.401 171.33 227.245 168.181 210.54 168.231C202.195 168.256 195.151 169.08 189.945 170.738C184.79 172.38 181.142 174.941 180.147 178.656L182.078 179.173ZM182.81 184.324C181.894 182.403 181.672 180.689 182.078 179.173L180.147 178.656C179.585 180.751 179.944 182.961 181.005 185.185L182.81 184.324ZM180.969 185.101L216.737 281.892L218.613 281.198L182.845 184.408L180.969 185.101ZM216.737 281.892C224.9 303.98 252.503 311.283 270.521 296.121L269.233 294.591C252.275 308.861 226.296 301.988 218.613 281.198L216.737 281.892ZM270.521 296.121L348.288 230.68L347 229.149L269.233 294.591L270.521 296.121Z" fill="white" mask="url(#path-6-inside-2_1158_4697)"/>
<path d="M351.598 224.596C350.81 227.54 347.82 229.872 342.794 231.472C337.794 233.065 330.923 233.884 322.65 233.909C306.112 233.959 284.091 230.836 260.515 224.519C236.939 218.202 216.307 209.896 202.009 201.583C194.857 197.425 189.316 193.28 185.782 189.401C182.23 185.502 180.807 181.988 181.596 179.044C182.384 176.1 185.374 173.768 190.4 172.167C195.4 170.575 202.271 169.756 210.544 169.731C227.082 169.681 249.103 172.804 272.679 179.121C296.255 185.438 316.887 193.744 331.185 202.056C338.337 206.214 343.878 210.359 347.412 214.238C350.964 218.138 352.387 221.652 351.598 224.596Z" stroke="white"/>
<rect x="427.086" y="85.0936" width="16" height="173.149" rx="8" transform="rotate(45 427.086 85.0936)" fill="black" stroke="white"/>
<rect x="427.043" y="85.0506" width="16" height="13.2844" rx="6.64222" transform="rotate(45 427.043 85.0506)" fill="black" stroke="white"/>
<path d="M429.753 157.021C428.373 162.168 423.224 166.168 414.805 168.902C406.41 171.628 394.906 173.045 381.091 173.131C353.467 173.301 316.721 168.145 277.409 157.611C238.096 147.078 203.695 133.17 179.858 119.21C167.936 112.229 158.682 105.249 152.775 98.6911C146.851 92.114 144.391 86.075 145.77 80.9279C147.149 75.7807 152.299 71.7807 160.718 69.0468C169.113 66.3208 180.617 64.9032 194.432 64.8179C222.056 64.6474 258.802 69.8034 298.114 80.3372C337.427 90.871 371.828 104.779 395.665 118.738C407.587 125.72 416.841 132.699 422.748 139.257C428.672 145.835 431.132 151.874 429.753 157.021Z" stroke="white"/>
</svg>
