<svg width="588" height="199" viewBox="0 0 588 199" fill="none" xmlns="http://www.w3.org/2000/svg">
<path fill-rule="evenodd" clip-rule="evenodd" d="M8.63469 44.1004L8.63947 44.0997C41.95 38.6871 84.0751 31.8423 128.386 31.0712C177.403 30.2182 227.509 36.8704 269.777 60.0953C288.503 70.3847 308.302 85.5888 330.237 102.9C332.281 104.513 334.342 106.142 336.419 107.785L336.419 107.785C356.274 123.489 377.627 140.377 400.151 155.104C450.024 187.713 508.687 211.759 576.534 190.247C584.43 187.743 588.802 179.311 586.298 171.415C583.795 163.518 575.363 159.146 567.466 161.65C512.313 179.137 463.456 160.652 416.569 129.995C395.244 116.052 374.957 100.011 354.939 84.1831L354.909 84.1596C352.878 82.5534 350.849 80.9494 348.822 79.35C327.168 62.261 305.477 45.4813 284.223 33.8029C235.491 7.02613 179.431 0.178365 127.864 1.07576C81.2613 1.88677 37.0341 9.08326 3.8735 14.479C2.90618 14.6364 1.94827 14.7923 1 14.9464V45.3379C3.48911 44.9365 6.03505 44.5228 8.63469 44.1004Z" fill="black"/>
<path d="M8.63947 44.0997L8.55928 43.6061L8.55912 43.6062L8.63947 44.0997ZM8.63469 44.1004L8.71488 44.594L8.71505 44.5939L8.63469 44.1004ZM128.386 31.0712L128.377 30.5713L128.377 30.5713L128.386 31.0712ZM269.777 60.0953L270.017 59.6571L270.017 59.6571L269.777 60.0953ZM330.237 102.9L330.547 102.507L330.547 102.507L330.237 102.9ZM336.419 107.785L336.109 108.177L336.12 108.186L336.132 108.195L336.419 107.785ZM336.419 107.785L336.729 107.393L336.718 107.384L336.706 107.376L336.419 107.785ZM400.151 155.104L400.425 154.686L400.425 154.686L400.151 155.104ZM576.534 190.247L576.383 189.77L576.383 189.77L576.534 190.247ZM567.466 161.65L567.617 162.126L567.617 162.126L567.466 161.65ZM416.569 129.995L416.295 130.413L416.295 130.413L416.569 129.995ZM354.939 84.1831L354.629 84.5753L354.629 84.5753L354.939 84.1831ZM354.909 84.1596L355.219 83.7675L355.219 83.7674L354.909 84.1596ZM348.822 79.35L348.513 79.7424L348.513 79.7424L348.822 79.35ZM284.223 33.8029L283.983 34.2411L283.983 34.2411L284.223 33.8029ZM127.864 1.07576L127.873 1.57569L127.873 1.57569L127.864 1.07576ZM3.8735 14.479L3.7932 13.9855L3.79319 13.9855L3.8735 14.479ZM1 14.9464L0.919783 14.4529L0.5 14.5211V14.9464H1ZM1 45.3379H0.5V45.925L1.0796 45.8315L1 45.3379ZM8.55912 43.6062L8.55434 43.6069L8.71505 44.5939L8.71983 44.5932L8.55912 43.6062ZM128.377 30.5713C84.0255 31.3431 41.8668 38.1941 8.55928 43.6061L8.71966 44.5932C42.0333 39.1802 84.1247 32.3416 128.395 31.5711L128.377 30.5713ZM270.017 59.6571C227.642 36.373 177.436 29.7175 128.377 30.5713L128.395 31.5711C177.369 30.7189 227.376 37.3678 269.536 60.5335L270.017 59.6571ZM330.547 102.507C308.616 85.2001 288.786 69.9696 270.017 59.6571L269.536 60.5335C288.22 70.7997 307.987 85.9775 329.928 103.292L330.547 102.507ZM336.729 107.393C334.652 105.75 332.591 104.12 330.547 102.507L329.928 103.292C331.971 104.905 334.032 106.535 336.109 108.177L336.729 107.393ZM336.706 107.376L336.705 107.375L336.132 108.195L336.132 108.195L336.706 107.376ZM400.425 154.686C377.923 139.973 356.587 123.099 336.729 107.393L336.109 108.178C355.961 123.879 377.332 140.781 399.878 155.523L400.425 154.686ZM576.383 189.77C508.747 211.215 450.248 187.262 400.425 154.686L399.878 155.523C449.8 188.164 508.626 212.303 576.685 190.723L576.383 189.77ZM585.822 171.566C588.242 179.199 584.016 187.35 576.383 189.77L576.685 190.723C584.845 188.136 589.362 179.424 586.775 171.264L585.822 171.566ZM567.617 162.126C575.251 159.706 583.401 163.932 585.822 171.566L586.775 171.264C584.188 163.104 575.475 158.586 567.315 161.173L567.617 162.126ZM416.295 130.413C463.232 161.103 512.253 179.681 567.617 162.126L567.315 161.173C512.373 178.594 463.68 160.201 416.842 129.576L416.295 130.413ZM354.629 84.5753C374.644 100.401 394.948 116.456 416.295 130.413L416.842 129.576C395.539 115.648 375.27 99.6216 355.249 83.7909L354.629 84.5753ZM354.599 84.5518L354.629 84.5753L355.249 83.7909L355.219 83.7675L354.599 84.5518ZM348.513 79.7424C350.539 81.3417 352.568 82.9456 354.599 84.5519L355.219 83.7674C353.188 82.1612 351.159 80.557 349.132 78.9575L348.513 79.7424ZM283.983 34.2411C305.195 45.8964 326.854 62.6499 348.513 79.7424L349.132 78.9575C327.483 61.8721 305.76 45.0663 284.464 33.3647L283.983 34.2411ZM127.873 1.57569C179.397 0.679029 235.358 7.52353 283.983 34.2411L284.464 33.3647C235.624 6.52872 179.464 -0.322299 127.855 0.575838L127.873 1.57569ZM3.9538 14.9725C37.117 9.57634 81.3108 2.38599 127.873 1.57569L127.855 0.575838C81.2118 1.38756 36.9512 8.59017 3.7932 13.9855L3.9538 14.9725ZM1.08022 15.4399C2.02854 15.2858 2.98649 15.1299 3.9538 14.9725L3.79319 13.9855C2.82587 14.1429 1.868 14.2988 0.919783 14.4529L1.08022 15.4399ZM0.5 14.9464V45.3379H1.5V14.9464H0.5ZM8.5545 43.6069C5.95481 44.0293 3.40916 44.443 0.920399 44.8443L1.0796 45.8315C3.56905 45.4301 6.1153 45.0164 8.71488 44.594L8.5545 43.6069Z" fill="white"/>
</svg>
