<?xml version="1.0" encoding="UTF-8"?><svg id="Layer_1" xmlns="http://www.w3.org/2000/svg" viewBox="0 0 500 500"><defs><style>.cls-1,.cls-2{fill:#ece3ce;}.cls-3{fill:#9c193e;}.cls-2{fill-rule:evenodd;}</style></defs><rect class="cls-3" y="0" width="500" height="500"/><g><path class="cls-1" d="M335.95,165.68c-1.8,.1-2.75-.6-2.75-2.38,0-.32-.4-.65-.42-.68-.92,.23-1.48,.43-2.05,.45-1.23,.05-2.7-.43-3.65,.1-2.5,1.35-4.48-.32-6.55-.55-2.08,.32-4.05,.63-6.08,.95-.15-.13-.35-.3-.42-.35-1.88,.8-3.63,1.55-5.42,2.3-.38-.2-.77-.43-1.15-.65-.65,.35-1.23,.65-1.98,1.05l2,.4c-.83,.43-1.85,.73-2.35,.35-1.3-.98-2.38-.3-3.52,.05-4.05,1.25-7.95,2.75-11.13,5.55q-4.83,0-12.92,5.55h-1.83c-.13,.38-.25,.73-.4,1.13-.75,.07-1.52,.15-2.27,.23,0,.9,0,1.6,.02,2.3,.2,.1,.38,.25,.52,.4l-.2,.2c-.15-.18-.27-.32-.42-.5l.1-.1c-.77-.38-1.5-.82-2.3-1.18-.2-.1-.52,.1-.9,.2v1.35c-.75,.3-1.38,.52-1.98,.8-2.3,1.07-4.58,2.15-6.95,3.27-.52-1.52-.9-2.9-1.45-4.2-.45-1.05-.4-2.3-1.33-3.13-1.33-1.2-1.67-2.8-1.73-4.5-.02-1.2,0-2.4,0-3.9-1.3,.6-2.3,1.07-3.5,1.65-.07-.52-.15-.88-.2-1.25-.05-.48-.07-.95-.18-2.15l-8.13,8.13h3.27c.07,.13,.13,.27,.2,.4-.5,.3-1,.6-1.4,.82v2.98c-.57,.07-1.07,.13-1.55,.18-.27,.63-.8,1.23-.8,1.8,.02,1.63-.63,3-1.1,4.48-.45,1.45-.6,2.95-1.27,4.38-.35,.7,.07,1.77,.15,2.52-.1,.57-.2,1.05-.27,1.5,1.25,.55,.6,1.55,.43,2.3-.27,1.1-.82,2.1-1.02,2.6-1,.88-1.7,1.3-2.13,1.9-.43,.6-.55,1.43-.93,2.07-.25,.45-.77,.73-1.07,1.15,.32,1.88,.98,3.68,1.35,5.52,.35,.18,.73,.35,1.18,.57,1.23-1.73,2.43-3.4,3.35-4.7,4.6,.55,8.77,.7,12.55,2.27,1.35-1.57,1-3.2,1.08-5.07,2.15-1.57,4.35-3.38,6.77-4.9,3.95-2.48,8.23-4.4,12.27-6.75,3.95-2.3,8.13-4.18,12.13-6.32,3.48-1.88,7-3.35,11-3.05,2.02-.38,2.48-2.35,3.95-3.88v2.88c.77-.18,1.33-.3,1.88-.43,2.15-.52,4.13-1.5,6.42-1.65,1.25-.07,2.7-.25,3.95-.75,3.48-1.35,6.83-2.9,9.92-4.98,2.23-1.5,4.2-3.45,6.8-4.38,1.35-.48,2.65-1,3.98-1.52,.13-.05,.17-.32,.27-.52l-.73-1.45c.3-.28,.5-.48,.87-.88Z"/><path class="cls-1" d="M216,186.25c-1.05-.95-2.52-2.27-3.7-3.35h-5.55c-1.77,2.13-1.93,5.23-4.25,6.65h-1.1c-.32-.52-.55-1.1-.93-1.5-1.25-1.27-2.05-2.85-3.1-4.25-2.3-3.07-4.52-6.25-7.15-9-3.7-3.88-7.75-7.45-11.68-11.13-.27-.25-.68-.32-1-.55-2.38-1.7-4.85-3.27-7.07-5.15-2.77-2.32-5.75-4.25-8.93-5.95-3.93-2.13-8.05-3.8-12.15-5.52-1.05,.52-2.07,1.05-3.2,1.6,.6,2.38,1.77,4.43,3.25,6.35-1.05,1.82-2.1,3.6-3.07,5.32,1.05,1.27,1.8,2.75,3,3.5,1.75,1.1,3.07,2.57,4.45,4,1.98,2,3.77,4.18,5.68,6.25,.13,.15,.25,.27,.4,.4,9.7,3.18,17.8,10.38,26.93,15.6,.05-.45,.1-.9,.1-1.27,.35-.7,.63-1.23,.98-1.93,3.32,3.18,6.57,6.35,9.88,9.45,1.38,1.3,2.27,2.7,2.1,4.68-.05,.45,.1,.98,.3,1.4,.9,1.85-.18,3.4-.73,4.98-.15,.4-.4,.75-.73,1.13,1.13,4.2,1.57,8.45,1.68,13,.23-.05,.45-.07,.7-.13,.77-2.68,1.6-5.35,2.63-8.02l-.02,.02c.43-2.57,.98-4.6,1-6.65,.02-2.3,.68-4.43,1.32-6.55,.32-1.07,1.13-2,1.75-3.05l-1.07-1.07c1.25-2.77,2.52-5.57,3.88-8.6,1.07,.7,2.1,1.38,3.2,2.07,.85-.7,1.57-1.65,2.23-2.63,.02-.03,0-.08,0-.1Zm-30.13-7.3c-1.57-1.65-3.4-2.98-5.32-4.18-1.25-.77-2.38-1.85-3.38-2.85-2.15-2.1-4.55-3.82-6.98-5.52-2.57-1.82-5.02-3.95-8-5.1-4.27-1.63-8.05-3.82-10.5-7.88-.63-1.05-1.52-1.93-2.3-2.9,.15-.15,.27-.3,.43-.45,3.52,1.88,7.23,3.4,10.5,5.75,2.1,1.5,4.35,2.8,6.52,4.23,1.23,.8,2.15,1.98,3.43,2.8,1.9,1.23,3.5,2.95,5.23,4.48,2.4,2.15,4.82,4.25,7.1,6.52,2.13,2.13,4.07,4.43,6.07,6.68,.15,.18,.07,.52,.18,1.38-1.25-1.2-2.13-2.05-2.98-2.95Z"/><path class="cls-1" d="M198.03,208.85c-.48-.48-.95-.82-1.23-1.3-1.38-2.27-2.95-4.35-4.63-6.38-1.27-1.55-2.2-3.4-3.4-5.02-1-1.35-.9-3.07-1.73-4.52-.32-.57-.27-1.38-.2-2.13-9.13-5.23-17.23-12.43-26.93-15.6l1.2,1.2c-.3,.3-.43,.52-.6,.57-.45,.15-.95,.2-1.4,.35-2.15,.68-4.63,.85-5.3,3.63-.57,2.4,.63,5-.73,7.38-3.05-1.48-6.32,.43-9.18-1.18h-6.6c-.4,.55-.68,.93-1.13,1.52,2.07,.77,3.9,1.48,5.75,2.18,.63,.23,1.32,.68,1.88,.57,1.38-.27,2.57,.38,3.73,.73,1.8,.55,3.82,.9,5.02,2.98-.55,3.25,.23,6.63,.57,10.02,.13,1.32,.35,2.73,.75,3.98,1.2,3.93,2.95,7.63,5.38,11,1.45,2.02,2.82,4.1,4.25,6.15-.2,.2-.32,.43-.48,.48-1.4,.38-2.77,.8-4.2,1-.85,.13-1.77-.13-2.65-.25-.57-.07-1.15-.3-1.7-.3-2.25-.02-4.5,.02-6.77-.02-.88-.02-1.55,.2-1.88,.85,.88,2.4,2.93,3.63,5.05,5.15-.6,.07-.93,.23-1.18,.15-1.65-.5-3.45-.32-5.05-1.18-.35-.2-.93,.02-1.27,.05,.27,.88,.5,1.6,.75,2.35,1.18,.35,2.32,.77,3.55,1.05,2.45,.52,4.93,1.05,7.4,1.43,1.65,.25,3.25,1,4.98,.65,1.23,1.1,2.8,.18,4.02,.68,1.48,.63,2.93,.5,4.4,.55,3.43,.05,6.75-.8,10.2-.7,1.7,.05,3.43-.98,5.15-1.52,1.4-.4,2.85-.02,4.32-.77,1.3-.68,1.55-2,2.5-2.77,1.02-.85,2.52-1.02,3.38-2.2,.88-1.2,1.77-2.38,2.85-3.8-.1-.93-.23-2.18-.38-3.43,.32-.38,.77-.93,1.27-1.55,.48,.25,.88,.45,.98,.5,.6-.13,1.1-.2,1.65-.3-.07-4.57-.55-8.82-1.68-13-.25,.2-.5,.47-.72,.8Zm-26.05-22.88c.9,.93,1.98,1.95,3.13,3.15-1.35,.45-2.23,.75-3.3,1.1-.5-1.35-1.02-2.73-1.6-4.25h1.78Zm-4.05,16.08c1.68-1.65,3.25-.68,4.8,.02-.7,2.57-1.38,5.13-2.07,7.7-1.8-1.18-1.25-3.65-2.73-5.1v-2.62Zm-7.25-21.65h5.75c-2.85,1.15-5.18,2.1-7.93,3.2,.3-1.8,1.58-2.3,2.18-3.2Zm8.2,49.88c-.2-.15-.57-.15-.85-.13-2.93,.35-5.73-.68-8.68-.73-.02-.32-.05-.6-.1-.85,.23-.1,.38-.25,.55-.27,3.43-.43,6.77,.82,10.2,.65,.9-.05,1.8,.52,2.7,.85,.07,.02,.05,.38,.1,1.05-1.42-.32-2.75,.4-3.92-.57Zm14.65-7.32c.9,.6,1.5,1,2.48,1.65-2.57,0-4.8-.07-7.02,.02-2.27,.1-4.55,.38-6.82,.6-3.88,.35-6.7-1.65-8.9-4.4-1.98-2.45-3.82-5.1-5.02-8.05-1.1-2.63-2.2-5.27-2.7-8.13-.2-1.15-.52-2.25-.6-3.45-.05-1.15-.45-2.27-.55-3.45-.1-1.23-.02-2.45-.02-3.63l.8-.8c3.2,1.35,6.35,2.68,9.48,4-.75,2.93-.6,5.52,.4,8.13s2.1,5.05,3.6,7.45c1.6,2.55,4.05,3.48,6.48,4.9h5.18c2.13-1.45,4.5-2.55,4.25-5.93,1.3,1.6,2.3,2.82,3.3,4.05,1,1.2,2.02,2.38,3.27,3.85-2.68,1.15-5,2.13-7.58,3.18Z"/><path class="cls-1" d="M318.02,189.2c-1.45,.32-2.38,.73-3.1,1.32,9.52,1.23,12.75,2.2,17.75,5.38-2.77,5.38-3.5,11.35-4.35,17.02-.3,.52-.52,.95-.75,1.35l-.7-.7c-.42,.82-.83,1.65-1.2,2.4-.35,.07-.63,.15-.92,.23v1.6c-.25,.18-.7,.45-1.05,.8-2.4,2.4-4.98,4.57-7.77,6.5-.77,.52-1.65,1-2.52,1.3-1.8,.63-7.67,1.13-9.52,.68-1.77-.43-3.38-1.32-4.8-2.52-.23-.2-.45-.4-.65-.65-1.52-1.93-3.58-2.95-5.9-3.57-1.13-.3-1.95-.82-2.95-1.73,.33-.65,.67-1.3,1.08-2.1,.45,.25,.85,.45,1.23,.68,.27-1.82,.55-3.65,.83-5.45-.6-.68-1.2-1.3-1.95-2.13-.35,.63-.6,1.05-1.1,1.9v-4.13c-1.6,.23-2.13,1.2-2.83,2.4-1.02,.43-2.27,1.52-3.65,.23-.5,1.23-1,2.45-1.52,3.8,2.15,1.65,5,1.88,7.55,3.2-.35,.55-.67,1.02-.9,1.38-2.4,.6-4.45-.27-6.33-1.2-.92-.45-1.67-.43-2.52-.48-.73,1.9-2.3,3.1-3.77,4.2-.88,.65-2.02,1.07-3.52,.27-2.33-1.25-5.23-1.4-7.1-3.57v-3.25c-.55,0-1.35-.25-1.63,.05-2.17,2.13-4.8,2.55-7.68,2.3-.3-.02-.6,0-.85,0l-1.07-1.07c3-2.27,6.02-4.48,8.92-6.8,3.25-2.6,6.83-4.73,10.38-6.88,5.15-3.07,10.58-5.57,15.9-8.32,4.88-2.52,10.1-4.3,15-6.85,1.05-.55,2.25-1,3.4-1.4,1.08-.38,1.98-1.68,3.15-1.2,1.85,.73,4.13,.6,5.4,2.57,.58,.8,1.85,1.2,2.05,2.45Zm-2.32,20.65c-1.35,0-2.77,.07-4.2-.02-.75-.05-1.7-.77-2.15-.52-1.75,1-3.55,.27-5.15,.57-1.2-.73-2.33-1.27-3.3-2.05-1.08-.85-1.98-1.93-3.33-3.27,.25,4.38-.42,8.25,.83,11.68,1.95,.13,3.45-1.2,5.2-1.38,3.58-.4,6.85-1.73,10.05-3.18,1.75-.8,3.42-1.38,5.35-1.18,.8,.07,1.63,.02,2.42,.02,3-3.02,1.88-7.25,3.35-10.77-.73-.93-1.5-1.93-2.08-2.68h-2.3c-.63,2.55-1.15,5.07-1.85,7.52-.58,1.88-.88,3.98-2.85,5.25Zm-5.73,13c4.25-2.82,7.08-6.5,10.5-9.68-2.75-1.05-5.2,.85-7.67,.32-2.95,1.73-5.8,3.38-8.48,4.93-.55-.55-.92-.93-1.75-1.75v3.18c-.48-.38-.67-.55-.92-.75-.33,.25-.65,.52-1.55,1.25,3.77,.88,6.72,2.23,9.87,2.5Zm-17.65-13h.2v-.63h-.2v.63Z"/><path class="cls-1" d="M133.42,247.9c1.9,.25,2.27,1.63,2.35,2.43,.23,2.35,.95,4.57,1.3,6.88,.13,.88,.48,1.73,.55,2.52,.07,1.02,.68,1.83,.75,2.8,.07,.85,.32,1.7,.7,2.48,1.15,2.3,2.38,4.55,3.6,6.9h1.93c3.48-1.9,6.9-3.6,10.15-5.58,3.7-2.27,7.55-4.3,10.93-7.1,2.43-2.02,5.25-3.48,8.3-4.43,.63-.2,1.25-.48,1.73-.68,1.27,.35,1.5,1.15,1.4,2.23-.93,.85-1.88,1.77-2.93,2.75-.07-.75-.15-1.52-.25-2.63-2.05,.98-3.98,1.9-5.82,2.75-.35,.98-.45,2.05-1,2.73-4.02,4.9-7,10.67-12,14.38-.43,1.98-1.52,3.65,.07,5.25-1.88,3.52-3.93,6.65-7.13,8.8h-3.15c.82-.83,1.45-1.4,2.02-2.02,2.05-2.23,4.05-4.48,6.2-6.83-.85-.6-1.68-1.17-2.68-1.9,.82-.17,1.45-.27,2.15-.42-.35-.35-.57-.58-.8-.8-.13,0-.3-.05-.4,0-3.38,1.88-3.43,1.98-5.15,6.35-.2,.5-.57,.95-.98,1.58-.43-.3-.8-.58-1.27-.9,1.45-2.95,2.9-5.85,4.45-8.98h-5.25c-1-1.63-1.82-3.13-2.8-4.55-1.48-2.2-2.68-4.48-2.63-7.23,.02-1.27-.77-2.38-.7-3.75,.05-1.05-.65-2.15-1-3.23-.38-1.17-.65-2.4-1.1-3.55-.52-1.32-.57-2.8-1.45-4.02-.38-.5-.1-1.38-.1-2.23Zm11.78,25.45c2.38,1.13,3.57-.63,5.13-.92,2.63-.5,3.35-3.48,5.05-5.33-3.53,1.6-6.55,3.95-10.18,6.25Z"/><path class="cls-1" d="M322.33,268.85c2.27-1.05,4.2-2.17,6.83-1.65-.48,2.42-.83,4.8-1.4,7.15-.38,1.58-1.15,1.67-3.1,.42v-2.7c-.8,1.2-1.27,1.92-1.83,2.75,.63,.4,1.23,.77,1.85,1.17-.15,.1-.33,.27-.5,.27-2.77,.02-5.52-.02-8.3,.02-.73,0-1.42,.25-2.2,.4v-1.65h3.92c-1.8-2.9-3.4-5.42-5.75-7.55v-2.7l1-1c.08,1.33,.15,2.48,.23,3.65q1.02-.8,1.35-2.23c2.4,1.88,4.5,4.25,7.9,3.63Z"/><path class="cls-1" d="M299.4,237.63c1.35,1.05,2.88,2.23,4.5,3.5-.45,.8-.92,1.63-1.48,2.6-1.75-.25-3.55-.27-5.15-.85-.8-.3-1.52-.27-2.27-.43-.75-.15-1.45-.5-2.2-.57-2.92-.32-8.98-2.3-12.3-3.68-3.95-1.63-7.75-3.55-11.5-5.57-3.33-1.8-6.7-3.52-9.95-5.25,.2-.4,.4-.82,.7-1.43,.6,.35,1.3,.75,1.98,1.18,3.48,2.18,7.02,4.07,10.88,5.63,4.55,1.82,9.3,3.23,13.77,5.3,2.7,1.27,5.8,1.68,8.58,3.05,.83,.4,2.02,.48,3.08,.7,.67,.15,1.38,.02,2.1,.02,.1-1.88-1.45-2.18-2.33-2.35-1.45-.3-2.42-1.27-3.73-1.85,1.7,0,3.4,0,5.32,0Z"/><path class="cls-1" d="M350.83,241.15c-.27-.5-.52-1-.92-1.75,.6-3.05-.98-6.25-.58-9.57-1.08-1.63-.4-3.57-1.13-5.35-.65-1.57-.38-3.5-.75-5.23-.38-1.77-.92-3.5-1.27-5.3-.42-2.1-1.48-4.07-2.2-6.13-.17-.5-.1-1.1-.17-2.05,.75,.48,1.33,.63,1.5,.98,.8,1.6,1.88,3.23,2.1,4.93,.4,2.88,1.85,5.48,2.05,8.38,.05,.55,.42,1.07,.48,1.63,.25,2.15,.05,4.45,.73,6.45,.75,2.23,.38,4.35,.5,6.52,.1,2.13,.02,4.25,.02,6.38-.13,.08-.23,.1-.35,.13Z"/><path class="cls-1" d="M310.48,273.95l2.42,2.42c-4.13-.4-8.2-.8-11.85-3.13-2.05-1.3-5.6-4.83-7.05-7.48-2.08-3.75-2.42-4.88-2.25-7.42,1.42,2.4,2.63,4.75,4.15,6.88,1.98,2.75,3.98,5.55,7.25,7.08,1.2,.58,2.3,.9,3.6,.98,1.3,.05,2.63,.45,3.73,.67Z"/><path class="cls-1" d="M128.12,282.35c-2.4-1.58-2.57-4.02-3.22-6.15-.7-2.25-1.4-4.55-1.97-6.85-.75-3.05-1.6-6.08-2.45-9.08-.22-.8-1.07-1.48-.18-2.6,2.65,8.3,5.25,16.5,7.82,24.68Z"/></g><path class="cls-1" d="M238.23,272.65c1.27,.13,2.27,.25,3.45,.38-.27,.33-.45,.52-.63,.77,.18,.2,.35,.4,.55,.63-1.43,1.1-3.07,1.08-4.77,.83,.57-.98,.75-1.95,.2-3-.27,.55-.55,1.05-1,1.95v3c-1.63-.83-3.13-1.6-4.63-2.35-.38-1.17-.05-2,.48-3.08,1.4-2.77,3.55-4.85,5.77-6.8,1.55-1.33,2.98-2.85,4.88-3.8,.7-.35,1.18-1.13,1.82-1.8h2.73v-1.77c1.07-.05,2.05-.1,3.23-.15-.13-.65-.13-1.23-.35-1.73-.57-1.4-1.27-2.75-1.8-4.18-.9-2.48-2.32-4.77-3.4-7.2-.85-1.9-1.25-4.02-2.25-5.82-1.05-1.88-1.1-4.02-2.05-5.93-.38-.75-.13-1.82-.05-2.73,.25-2.52-.93-4.77-1.32-7.15-.05-.35-.5-.6-.93-1.05-1,1.82-1.9,3.5-2.9,5.32-.65-1.3-1.2-2.38-1.82-3.65-.8-.45-1.8-.98-2.7-1.48-.52-1.82,.05-3.23,1.05-4.75-.75-.07-1.48-.15-2.2-.25-.45-3.95-.43-4.13,.95-7.1-.38-.13-.73-.25-1.07-.4,.2-.5,.38-1,.63-1.48,.25-.5,.57-.95,.88-1.43,1.3-.07,1.27,1.05,1.7,1.77,1.13-.35,.73-1.52,1.18-2.13,.35-.5,1.2-.7,1.48-1.77,.13,.85,.23,1.4,.35,2.18,.4-.15,1.02-.25,1.02-.38,0-.32,.1-.57,.25-.77,.32,1.88,.98,3.68,1.35,5.52-.05-.02-.07-.05-.13-.05q-.32,4.38,.57,5.9c.68,.1,.73-.8,1.25-1h2.75c1.07,1.55,2.2,3.13,3.23,4.77,.55,.88,.93,1.88,1.3,2.65-.48,1.35-.73,2.63-1.32,3.68-1.43,2.57-.48,5.05,.48,7.32,2.52,6.02,4.65,12.23,7.55,18.1-.3,1.68,1.52,2.73,1.3,4.53,4.2,.1,8.05,2.1,12.42,2.02-.4,.42-.58,.65-.98,1.1h2.65c1.7,.83,1,2.05,1.38,3.02,.48-.2,.95-.4,1.55-.65,.13,.75,.2,1.33,.4,2.63,.3-1.25,.42-1.83,.58-2.42,.17,.13,.42,.25,.4,.33-.23,2.27,.9,3.67,2.88,4.55,.45,.2,.88,.42,1.5,.73-.13,.75-.27,1.45-.48,2.67,.67,1.33,1.3,3.25,1.05,5.38,1.52,1.65-.27,4,1.25,5.75-2.23,3.13-4.5,6.3-6.85,9.55-.38-.3-.58-.45-.83-.63-.55,.65-1.13,1.3-1.52,1.75-2.92-.6-5.45-1.13-8.3-1.7-.45,.15-1.27,.42-2.1,.67-.13,1.13-.27,2.3-.4,3.45-.65,2.15-2.35,3.75-3.45,6l-1.05-.83c-.07,1.45-.15,2.5-.2,3.52-3.35,8.1-9.27,13.63-17.18,17.55,.2,.15,.43,.27,.63,.42-3.07,1.08-6.25,1.17-9.48,.88-.75-.45-1.57-.8-2.5-1.1-1.77-.58-3.85-1.3-4.98-2.65-1.35-1.6-3-2.75-4.43-4.2-.27-.27-.75-.38-1.4-.67,.05,.13,.07,.23,.13,.35-.9-1.3-1.95-2.5-4-2.65,.35-.1,.68-.17,1.02-.27-1.3-.4-2.3-.7-3.23-.98-.95,.48-1.8,.92-2.77,1.42-1.77-1.38-3.55-2.73-5.3-4.15-1.05-.88-2.13-1.6-3.45-1.52-4.7-1.95-10.65-.05-15.75,.85-.48-.27-.8-.5-1.1-.5-1,.05-1.95-.77-2.93-.92-2.57-1.3-5.43-1.92-7.98-2.83,.05-.02,.13-.05,.2-.08-1.27-1.35-2.35-2.48-3.45-3.63,.45-.17,.82-.3,1.35-.5-.35-.75-.68-1.45-1.05-2.2l-.55,.55c-.13-.1-.35-.2-.38-.3-.1-1.95-1.15-3.65-1.48-5.58-.15-.92-.15-1.45,.13-2.38,.85-2.73,1.35-5.55,2.55-8.2,.23-.5,.02-1.17,.02-2.08,.4,.3,.6,.42,1,.73,.27-.52,.55-1.05,.85-1.55,.82-1.48,1.77-2.77,3.48-3.38,.8-.27,1.57-.7,2.7-1.23h2.95q4,0,7.55,1.85c1.23-.4,1.38-1.6,1.75-2.52,1.48-3.7,2.95-7.4,4.43-11.08,1.1-2.73,2.23-5.45,3.4-8.13,1.9-4.43,4.02-8.8,5.5-13.43,.2-.65,.5-1.57,.2-2-1.02-1.5-.43-3.48-1.63-4.9-.27-.3-.25-.98-.15-1.45,.38-1.75,.25-3.65,.75-5.25,.55-1.82,.2-3.52,.55-5.5h-.07c.77-2.68,1.6-5.35,2.63-8.02,.77-.75,1.57-1.15,1.63-1.65,.3-2.8,1.38-5.4,1.9-8.15,.25-1.32,.48-2.68,2.18-3.1,.45-.1,.7-.85,1.1-1.38-.6-.27-1.02-.48-1.3-.6,.8-.65,1.63-1.3,2.38-1.93v-5.1c.82-.55,1.63-1.1,2.57-1.73l-.38-.23c.85-.7,1.57-1.65,2.23-2.65,1.65,4.4,3.1,8.27,4.6,12.25-.2,.07-.55,.18-1.13,.38,.43,2.2,1,4.45,1.2,6.7,.23,2.45,.05,4.93,.05,7.25-.8,2.18-2.43,3.8-2.52,6.2-.05,.98-.77,1.93-1.18,2.88-.63,1.48-1.2,3-1.85,4.45-.23,.5-.63,.93-1.15,1.63-1.27-1.38-2.77-2.23-3.45-4.2-1.88,.27-3.77,.57-5.77,.88-.05,.75-.07,1.43-.13,2.25-.52,.32-1.1,.68-1.63,1,1.55,2.02,3.13,4.13,4.8,6.3-.23,1.32,.4,2.9-.8,4.77,.65,.63,1.45,1.45,2.23,2.23-.88-.4-1.88-.88-3.1-1.43-.52,1.82-1.02,3.55-1.55,5.35,1.07,.38,2.05,.73,3.1,1.13v4.07c-.82,1.27-1.77,2.75-3,4.6-.05,.75-.18,2.17,.7,3.15,1.15,1.33,.38,2.38-.05,3.52-.38,1.05-1.35,1.65-1.98,2.52-.73,1.02-.2,2.08-.88,3.08-2.3,3.4-3.5,7.35-5.18,11.08-.8,1.77-2,3.4-2.98,5.02,.5,.35,.9,.65,1.43,1.02-1,.5-1.95,.7-2.45,1.3-.52,.6-.55,1.6-.9,2.38-.35,.77-.88,1.48-1.2,2.27-.3,.77-.4,1.63-.3,2.65,.27-.5,.52-1,.73-1.38,1.95,.3,3.57-.35,5.02,.7,.85,.63,1.85,1.05,2.65,1.73,1.77,1.45,3.48,3,5.13,4.48,.5-.02,.9-.05,1.32-.05-1.27-3.6-2.52-7.13-3.77-10.7,.95-.6,1.7-1.08,2.48-1.55h2.35c2.57,.67,3.15,2.85,4.93,3.7,1.73,.83,3.43,1.67,5.07,2.6,2.48,1.38,4.55,3.08,5.13,6.08,.1,.55,.3,1.2,.7,1.55,2.32,2,3.05,4.88,4.18,7.52,1.02,2.45,1.77,5.02,2.63,7.52-.55,.7-1.02,1.3-1.5,1.9,1.8,1.65,3.88,1.05,5.77,1.17,6.63-3.4,13.98-9.63,17.18-17.3-.75-1.08-1.55-2.17-2.38-3.38,.85-.33,1.6-.92,2.73-.95,1.1-.02,1.9-1.05,2.68-1.85,.4-.42,.73-.92,1.38-1.77-.18-1.88-.38-4.15-.57-6.3-1.1-1.02-2.05-1.92-2.93-2.75-2.32,.38-2.68,2.92-4.35,4.13-.32-.67-.65-1.35-1.05-2.13,1.07-1.83,1.57-3.95,3.15-5.5,1.95-1.9,3.13-2.2,5.45-.77,1.78,1.08,3.68,1.9,4.82,4,1.1,1.98,3.33,3,5.48,3.73,1.67,.58,4.83-.85,5.9-2.35,1.35-1.9,2.05-3.98,1.85-6.33-.05-.73-.08-1.45,0-2.15,.4-3.2-1.48-5.75-2.5-8.5-3.4-3.58-6.85-7-12.4-6.45-.5,.05-1,0-1.83,0,.3,.75,.6,1.33,.7,1.9,.1,.7,.02,1.42,.02,2.1l-.98,.98c-.23-.08-.52-.13-.77-.25-1.2-.58-2.38-1.2-3.6-1.73-.7-.3-1.45-.48-1.95-.63-4.2,2.6-8.57,4.58-11.55,8.95Zm-61.88,28.82s-.02-.02-.07-.05l-.07-.08c4.13,1.38,7.63,.48,11.27,.3-1.65-2.05-3.43-3.38-5.68-2.95-1.7-.88-3.15-1.5-3.18-3.48,0-.58-.57-1.25-1.05-1.67-1.85-1.63-2.23-3.6-1.68-5.98h5.98c.63-1.63,1.27-3.2,1.8-4.8,.85-2.58,.8-2.58-.6-5.38-.07-.17-.05-.4-.05-.5-2.05-1.5-3.5-.75-4.88,.58-.4,.4-.98,.6-1.43,.95-3.7,2.85-5.93,6.42-6.02,11.27-.02,1.83,.57,3.48,.9,5.2,.23,1.25,1.27,2.35,1.57,3.63,.4,1.65,1.95,1.8,2.88,2.75l.18,.17c.1,0,.13,.02,.13,.02Z"/><g><g><path class="cls-2" d="M429.18,192.03c-.88,2.43-2.23,2.55-4.45,1.35-3.02-1.75-6.25-3.23-9.55-4.3-2.55-.6-5.1-.95-7.73-1-.67,0-1.35-.55-1.95-.6l-2.23-.6c-.27,0-1,.68-1.27,.55-.48-.32-.88-.8-1.27-1.27-1.75,.27-3.3,.55-4.5,.68-2.15,.2-4.3,.27-6.13,.48,.27,.68,.55,1.4,.67,2.15-1.35,.6-2.63,1-3.98,1.55-.27-1-1-2.75-.67-3.1,1.67-1.48,3.7-2.55,5.77-3.3,3.15-.8,6.4-1.35,9.67-1.63,1.4,.07,2.75,.32,4.17,.8,.27,.07,.6,.07,.8,0l9.88,1.55,.27-.48,1.83,2.5,.67-1.63,1.67,2.07,.95-.88,.27,1.27c.8-.2,1.55-.32,2.35-.48,.2,0,.33,.55,.67,.95l1.75-.32,.8,2.15,2.5-1.95-1.15,3.02,.15,.45h0Z"/><path class="cls-2" d="M429.18,192.03v-.6l2.5-1.95,4.17,4.65,.95-2.27,2.42,2.7,.33-.55,3.3,2.9h0l4.17,3.9,1.4-2.55,.88,.27c0,1.48,0,2.95,.2,4.45l-.88,2.7-4.13-2.68h-.2l-3.3-3.5c-1.08,.2-2.23,.2-3.3,0-1.35-.75-2.5-1.63-3.7-2.55-.88-.27-1.75-.55-2.7-.68-1.72-.55-2.72-2.5-2.12-4.25h0Z"/><g><path class="cls-2" d="M213.08,380c-.32,.5-.68,1.02-1.07,1.5-.13,.2-.27,.35-.43,.5-.07,.08-.15,.17-.23,.25-.02,.1-.05,.23-.05,.33-1.35,2.7-2.43,4.7-3.5,6.6-1.27,2.35-2.75,4.77-4.18,7.13-3.43,5.65-6.85,11.38-10.3,16.95-.95,1.35-1.95,2.55-3.02,3.83l2.27,1.67,7.43-11c3.15-3.63,5.57-7.73,7.32-12.25l.88-1.88c-.27,3.63-.8,7.25-1.63,10.75-1.4,8-3.1,15.92-4.18,24-.95,6.92-1.55,13.77-1.68,20.77-.07,3.9,.48,7.8,1.75,11.58,.88,2.55,1.95,5.77,6.4,6.13-1.2-2.27-2.35-4.65-3.3-7.13-2.15-8.8-2.15-18.1,0-26.9,1.15-6.17,2.35-12.7,3.5-18.42,1.15-5.77,2.5-11.5,3.5-17.27,.68-3.7,1.07-7.52,1.4-11.38,0-1.8,.13-3.63,.3-5.42-.12-.23-.55-.33-1.2-.33Z"/><path class="cls-2" d="M134.17,412.37c2.75-5.25,5.73-10.42,8.35-15.73,2.02-3.9,3.7-8.35,5.52-12.02,1.88-3.77,3.98-7.33,6.05-10.9,.88-1.7,1.93-3.13,2.9-4.63-.15-.48-.18-.98-.02-1.5l-1.85,1.15v-4.9c-.27-2.55-2.02-3.23-4.1-1.67-1.4,.8-2.7,1.88-3.82,2.9-.95,1.2-1.75,2.5-2.5,3.83-.95,.2-1.82,.55-2.7,1.08-2.15,1.63-4.1,3.42-6.18,5.1l-3.77,4.02-.2-.8c-1.95,1.95-3.63,4.02-5.53,5.73-4.45,3.77-9,7.52-13.25,10.95-4.38,3.42-8.75,6.73-13.25,9.88-.95,.55-2.5,.55-3.82,.55,0-1.08,.28-2.08,.6-3.02,4.03-5.73,8-11.5,12.3-17.02,2.95-3.63,6.05-7.05,9.43-10.3,3.35-3.3,7.2-6.25,10.5-9.55,1.23-1.23,2.27-1.6,3.4-1.65,.4-1.25,.95-2.38,1.63-3.38-.25,.05-.52,.13-.77,.17,.32-1.2,.68-2.42,.8-3.7-.07-.95-.32-1.88-.68-2.75-.88,.33-2.23,.75-2.75,1-.3,.15-.6,.3-.95,.4-.57,.4-1.25,.65-1.95,.67h-.18c-.13,.02-.28,.08-.4,.1-.1,.02-.15,.05-.18,.08-.07,.02-.13,.08-.18,.1-.03,.02-.05,.02-.07,.08l-.07,.08c-.25,.55-.65,1.02-1.2,1.35,.15,.7,.07,1.45-.35,2.02-1.47,1.83-3.1,3.58-4.85,5.1-1.35,.88-2.7,1.63-4.1,2.35-3.1,2.08-5.85,4.02-9,6.4-3.15,2.35-5.72,5.25-9,7.4-3.63,2.27-7.53,4.23-11.57,5.85-2.55,.88-5.3,1.48-8,1.67-.28,0-1.4-2.42-1.15-2.7,2.9-3.3,6.18-6.45,9.47-9.48,1.95-1.63,4.18-3.3,6.13-4.9h.07l.2,.55,10.07-5.3-.47-2.08c.68,.67,1.35,1.4,1.35,1.4,2.7-1.27,5.3-2.75,8-4.23l.28,.55v-1.48l6.4-1.55v-2.27l-.07-.15c-.05-.02-.07-.08-.13-.1-1.7,.23-3.72-.33-5.2-1.02-.13,.02-.25,.08-.38,.1-.05,.02-.13,.02-.18,.05-.05,.05-.1,.1-.13,.15h.03l-.6,1.88-.68-.95-7.72,4.3-.28-.55-11.57,6.73-1.55,2.27-.95-1.08v.55c-5.93,3.9-11.22,7.13-14.25,12.9-.6,1.48-1.07,3.02-1.4,4.58-.28,1.67-.28,3.35,0,4.98,1.2,4.5,5.1,2.23,7.8,2.23,1.07,.08,2.28-1.55,3.43-2.35l.47,1.27,18.35-11.1-.28-.33,3.7-3.1c-.2,.75-.55,1.48-.88,2.15-2.55,2.95-4.9,6.13-7.13,9.35-2.35,4.3-4.45,8.8-6.13,13.45-.32,1.67,.07,3.42,1,4.9,.55,.75,2.22,1.08,3.3,1.08,1.15,0,2.35-.08,3.5-.33v-1.15l1.75,.95,3.97-3.77,.6,.67v-1.27l.8,.67c.47-.67,1-1.2,1.63-1.83,1.35-1.08,2.95-2.02,4.3-3.15,2.03-1.75,3.9-3.77,5.85-5.52,3.63-3.23,7.25-6.45,10.95-9.63,2.63-2.08,5.38-4.3,8.07-6.6h-.2l11.77-9c-.75,3.63-2.02,7-3.7,10.23-3.7,7.13-7.8,14.13-11.23,21.38-4.02,8.35-7.6,16.8-11.1,25.35-.55,2.02-.75,3.98-.75,6.05,1-.33,1.68-.33,1.68-.33,2.5,2.42,2.82,.08,3.83-1.63,1-1.75,1.55-3.7,2.7-5.3,2.82-3.77,5.77-7.4,8.68-10.95v.2l4.18-6.25,4.85-7.13-.88-.8c-3.5,.4-4.23,3.3-5.73,5.92-2.5,3.98-5.25,7.73-8.35,11.3-1.88,2.95-4.18,5.58-6.72,8l3.78-7.73c.85-1.85,1.65-3.8,2.6-5.55Z"/><path class="cls-2" d="M100.07,307.35c-1.47-1.48-7.8-.67-7.8,.27-1.07,.55-2.22,1-3.3,1.63-5.72,3.5-11.63,6.8-17.08,10.75-4.22,3.15-8.47,6.13-14.13,5.58-3.3-.13-7.8,.4-8.8-3.42-.6-2.27,1.47-5.65,3.1-8,1.88-2.42,4.1-4.58,6.6-6.33,9.35-7.67,19.37-14.33,31.52-16.75,1.88-.13,3.78,.08,5.57,.55,.75,.13,1.47,.4,2.22,.6l.28-1c-1-.55-2.15-1.48-3.1-1.48-3.7-.08-7.47,.4-11.03,1.27-5.53,1.83-10.95,4.1-16.08,6.85-3.7,2.5-7.4,5.17-10.75,8.2-2.35,1.4-4.5,2.95-6.6,4.65-2.15,2.15-4.03,4.7-5.58,7.4-1,1.63-1.95,4.98-1.35,5.45,2.63,1.88,5.58,3.35,8.75,4.23,2.28,.27,4.65,.27,7,0l-3.5,7.67c2.5,1.83,3.3,1.15,4.7-2.75l2.9-3.3,10.63-4.85,11.5-5.1s0,.05-.03,.05h.03c.15-.08,.3-.13,.45-.17,.03,0,.03-.02,.05-.02,.1-.08,.22-.1,.35-.15,.2-.1,.43-.17,.63-.27h.03s.03,0,.03-.02c.05-.02,.07-.05,.13-.05,.22-.17,.45-.3,.72-.4,.43-.6,1.03-1.13,1.88-1.58,1.88-1.08,3.82-2.23,5.57-3.58,2.03-1.4,4.1-2.95,5.93-4.3-.1-.08-.77-.88-1.45-1.63Z"/><path class="cls-2" d="M225.08,405.73l-2.95-3.77c-.68,7-1.35,13.45-1.88,19.77l-.55-.13c.32,1.27,.68,2.5,.75,3.83-.75,6.17-.95,12.3-.75,18.5,.68,4.85,2.43,9.48,5.25,13.45,4.57,6.6,12.85,5.52,16.8-3.15,3.23-6.45,4.85-13.65,4.65-20.92-.27-5.77-1.07-11.42-1.48-17.27-.2-3.3,0-6.6-.2-9.88-.2-4.23-.32-8.55-.95-12.7-.27-2.08-1.55-3.98-1.95-6.13-.27-1.67-.07-3.42,.68-4.98l.8,1.63v-2.63l.8-.48,40.68,64.55,.55-.13c-.67-4.3-1.4-8.67-1.88-12.98-.13-2.27-.13-4.58,0-6.85v-3.35c0-1.15-.27-2.42-.33-3.58,0-3.58,0-7.2-.33-10.7s-1.35-6.6-1.35-9.88c0-1.75,1.63-3.42,2.7-5.65l5.77,14.05,.48-.27,2.95,6.6c7.52,9.88,15.73,18.98,26.9,24.95l.8-4.1,1,.27c.33-.75,1-1.55,.95-2.27-.75-7.48-2.75-14.73-6.17-21.45-1.27-2.75-4.1-5.45-4.17-8.13,0-4.17-4.17-3.83-5.52-6.6s-3.3-3.5-2.27-6.6c.13-.55-.27-1.27-.55-2.35,2.08,.48,4.3,.33,5.65,1.48,1.35,1.08,1.48,3.3,2.15,5.1l.67-1.48,2.35,3.98,.95-1.55v2.75h.27v-2.27l7.8,8.35h.33l4.45,3.3,.2-.13,11.7,8.67v-.27l4.3,3.1,.67-.6,1.48,.8,.2-1.55,2.55,.67-.8-.55c.2-1.67,.2-3.35,0-4.98-1.67-4.77-3.77-9.35-5.65-14.05-1.35-3.3-2.35-6.6-3.9-9.67-1.4-2.63-3.15-5.1-5.25-7.4-2.08-2.27-1.83-4.65,1-5.92l.33,1.83,7.2,.67,2.9,3.58,.8-2.27,1.55,1.63,9.35,3.9c-.27,.33,0-.2,.13-.2,2.15,.95,4.23,1.88,6.6,2.95,.67-.13,1.35-.27,1.95-.27,.33,0,.8,.48,1.27,.75l6.85,1.95c2.35,.67,4.65,1.48,7.05,1.88,.27,0,.88-1.27,1.35-1.88l1,.95,1.48-1.83,.75,2.08,2.27-2.5,.8,.27-.75,3.58,1.4-1.15c-.27,2.55-.48,4.58-.6,6.33l-3.3,1.48-.67-1.4c-5.25,2.27-9.35-1.15-13.85-2.35-3.15-.8-6.33-1.75-9.42-2.95-6.4-2.35-12.7-4.85-19.23-7.4l-.67,2.23,1.15-.27,2.7,8.67c0,.33,0,.13,0,0v-.67c1.48-.27,11.38,20.98,10.35,21.85-.27,.27-.55,.6-.75,.88h.8c-.13,1.35-.33,2.55-.55,3.83-.6,5.38-4.5,7.13-9.08,4.23-4.7-2.9-9.55-5.3-14.2-8.13-2.23-1.63-4.45-3.42-6.4-5.38-1-.8-2.15-1.4-3.3-1.75l2.15,1.95-.27,.33-4.5-3.9,1.35,2.9c1,1.48,1.75,2.08,1.88,2.7,.48,3.42,1.08,6.92,1.88,10.3,1.95,4.65,2.55,9.75,1.63,14.73-.6,2.27-2.95,4.02-4.58,5.92,0,0-.88-.27-1.48-.55s-.67,0-.88,0c-5.73-3.3-11.23-7.13-16.48-11.23-4.58-4.7-8.75-9.67-12.58-15l-.48,.55-3.77-7.48v9.88h.55c0,2.55,0,5.25,.27,7.88,.27,2.55,.33,4.5,.8,6.6,.6,3.1,1.35,6.13,1.88,9.15,.13,.8,.27,1.67,.6,2.5,.88,2.9-.08,6.05-2.55,7.8l-.55-2.63-1.95,1.88c-13.77-17.55-25.02-36.85-37.73-56.02l-1,20.98,4.5-.75-3.63,6c0,.2,.6,.6,.68,.95,1.15,13.85,0,27.23-8.07,39.27l-.68-.33-3.77,2.63v-.27h-4.77v-.67l-3.98-.67-3.02-2.27v-.55l-.75,.67c-1.75-1.75-3.23-3.77-4.45-6.05-1.68-4.5-2.7-9.08-3.02-13.85,0-8.67,.48-17.48,1.07-26.15,.32-4.9,1.48-9.88,2.27-14.85,0-1.08,0-2.27,.27-3.3,.13-.33,.48-.6,.8-.67,.27,0,.6,.48,.88,.8l.75-1.27,1,1.48,.6-1.27,4.85,5.77-2.7-1.27,.68,1-1.27,2.35-.03,.52Z"/><path class="cls-2" d="M409.6,248.58c-.2,.68-.27,1.27-.27,1.88,.2,.88,.6,1.68,1,2.5,.67,1.27,1.35,2.5,1.95,3.9v-2.63l4.65,3.5h-.2l6.13,4.5v1.83l.95-.88,7.67,7,.27-.55,2.63,4.1,.33-.33c1.55,1.75,2.75,3.7,3.77,5.77,.67,2.95,1.08,5.85,1.27,8.88-4.5,1.08-12.77-4.58-12.1-7.8-1.48,0-2.75,.2-4.17,.27-.48,.08-.88,0-1.27-.2-1.35-1-2.55-2.15-4.23-3.5,0,.27,0-.2,0-.2l-11.9,2.35,1.67,5.73,.67-.13-.27-1.15c6.25,4.17,21.38,26.9,20.58,30.67,3.9,.67,4.1,3.3,3.42,6.6l-1.88,1.63-2.55-3.02-.2,1.35-1.67-.75c-.2-1.83-.55-3.83-.95-6.92v5.3l-2.55-4.1h0c-.88-1.75-1.27-2.7-1.75-3.5-.55-.8-1.55-1.83-2.15-2.9-1.08-1.83-2.08-3.83-3.3-5.65-1.27-1.83-2.5-3.7-3.9-5.45-.8-.88-1.63-1.67-2.5-2.42-.67-.55-.95-1.35-.95-2.15l.67,1.4,.75-.6c-.95-.88-1.88-1.75-2.7-2.7-2.42-3.3-4.85-6.33-7.05-9.63-.48-.67,0-2.15,.55-3.3,.8-2.23,1.83-4.3,2.7-6.6l.95,.27,.33,1.35,6.13-1.88,1.63,1.35c1.15-.55,2.42-.8,3.77-.95,.48,0,.88,1.08,1.4,1.75,2.7-.6,5.73-1.15,5.77,3.5l.67-3.5-10.08-8.35h-.2c-2.23-1.63-4.17-3.1-6.17-4.7-3.9-3.3-7.8-6.6-11.58-9.88-.48-.8-.55-1.68-.2-2.5,1.55-.55,3.15-.88,4.77-1,.6,.07,1.27,.2,1.75,.48,0-.32-.2-.95,0-1.27,.48-.55,.88-1,1.48-1.4v2.95l1.67-4.77,1.63,2.35,1.48-2.15,.75,2.75v-2.95l1.88,1.35-.2,.2-1.55,2.27-2.23-.68,2.63,3.3h.4Z"/><path class="cls-2" d="M381.58,113.9l-.48,2.5h.6v3.3h-.67l-.6-3.3-.8,3.3h-.6v-.28l-5.85,1.68-.27-.95,1.67-1.07c-1.63-.8-2.08-.55-2.9,2.22l-.95-1-.67,1.28-.67-.28,1.67-4.65-1.88,1.35c.08,1.35,0,2.63-.33,3.97-.2,.47-1.83,.28-2.75,.47l1,3.9h.55l-.6-2.55,11.23,1.63c1.48,.13,2.9,.32,4.3,.68,.75,.28,1.4,.68,2.08,1.15v-.68l16.88,2.75v-.68l3.98,1.68,.67-1.4,6.33,2.5,.27-.55c0,1.27,3.98,1.35,.55,2.95l1,.68-1.55,1.63c.88,4.98-3.3,4.98-6.33,5.93l-2.27-4.57v3.3l-1.48-.48,.27,1.35-.27,.2s-.95-.68-.88-.75c1.27-3.77-2.75-3.3-4.17-4.85-.75-.75-3.02,0-4.65,0-.88-.2-1.75-.27-2.63-.32l-5.38-.48v-1.27l-.33,.68c-1.15-.8-2.42-1.4-3.77-1.82-.75,0-1.63,.75-3.3,1.48l-2.23-2.35c-1.15,.55-2.35,1.48-3.1,1.15-1.35-.48-2.35-1.63-3.3-1.88l-4.3-.8v1l-7.48-3.3c0-.47,0,0,0,.8l-2.55-2.15h0l-3.58-2.95,1.48-3.5,1.67-2.95,2.23-.2,.27,1.88h.2v-2.82h.48c0,1.55,.27,3.15,.48,4.9l1.48-2.7-1.35-.68,1.15-.75-.27-1.55,2.7,.6,1.27-1.55,.67,2.07c1.27,.32,2.55,.47,3.9,.32,1.55-.47,2.9-1.63,4.45-2.22,2.08-.75,4.17-1.07,6.33-1.68l.75,3.1c.2-1.75,.27-2.35,.33-3.3l.95,1.47,.8-1.63,.67,.75v.13l-.13,.18Z"/><path class="cls-2" d="M149.58,401.23l-.88-.8c-1.68-4.9,3.9-5.85,4.98-9.15l.48,.27,13.85-16,.95,.6c.48-.95,.8-2.15,1.07-2.15,1.07,0,3.1,.27,3.15,.67,.55,5.05,1.95,10.42,.8,15.13-2.63,10.23-6.6,20.05-10.23,30.05-2.23,6.25-4.5,12.5-6.4,18.9-.95,3.98-1.68,8.08-2.07,12.1,0,.27,1.55,1.27,1.88,1,2.07-.95,3.98-2.15,5.73-3.5,3.35-2.7,6.65-5.58,9.68-8.67,2.9-2.95,5.25-6.33,7.8-9.55l2.27-2.9,.27,.2c1.27-1.83,2.5-3.58,3.57-5.52,1.07-1.88,1.63-3.3,2.55-5.05,0,0,.75,0,1.15,.27l2.27,1.67c-.68,.55-1.27,1.15-1.75,1.83-1.55,2.35-2.9,4.77-4.45,7.13-.2,.27-.68,.33-1.07,.67h0l-4.02,6.6-.55-.95h-.32c-2.9,3.9-5.45,7.88-8.55,11.5-2.75,3.15-5.77,6.13-9,8.8-2.43,2.23-5.85,2.95-8.95,1.88-1.35-.8-2.15-2.15-2.27-3.7-.27-6.73,.95-13.52,3.7-19.77,2.35-4.85,3.5-10.3,5.45-15.33,1.88-5.05,4.5-9.42,5.77-14.33,1.88-7.2,5.77-14.13,4.45-21.92,0-.2-.27-.33-.55-.67l-9.15,8.2-.48-.67-2.07,4.23-4.45,4.02h0l-4.45,5.73-.48-.67,.32-.13Z"/><path class="cls-2" d="M414.73,358.33l.2-.88h.48c.08,1.35,.2,2.55,.55,3.83,.33,1.75,.6,3.5,.6,5.3,0,.48-1.75,.88-2.7,1.27h-1.35c-2.7,2.63-3.3,0-4.5-1.63-.2-.48-.6-.88-1-1.15-3.02-1.88-1.88-5.3-3.02-7.92,0,0,.2-.27,.27-.48l4.58,3.77-2.35-10.42-.33,.2-1.55-3.1-1.88-4.17c-.55,.27-.13,0,0,0l-1.08-1.67v1.35l-6.4-7.8-.55,.67c-.95-1.35-1.67-3.1-2.9-3.5-1.2-.4-2.63,.8-3.98,1.35l1.55-2.7-3.1-2.63c2.7-3.1,4.5-2.95,7.48,0,3.02,2.95,7.13,5.58,10.42,8.67,1.67,1.67,3.1,3.58,4.17,5.73,1.83,3.5,3.5,7.13,5.1,10.75,.6,1.52,1.08,3.27,1.28,5.15h0Z"/><g><path class="cls-2" d="M359.45,79.68c1.67-1.55,2.27-4.85,5.65-3.9l.8-3.9,.75,.68,3.9-5.38,1.08,.55c-.2-.47-.33-1.28-.6-1.15-1.35,0-2.55,.32-4.17,.68v-.2l-5.45,3.3-.2-.8c-1.63,1.07-3.3,2.28-5.05,3.3l-7.67,4.9-.6-1.35,.95,1.35c-1.63,1.28-3.35,2.35-5.1,3.3-1.95,.55-3.98,.88-6.05,.95,0-.28,0,.6,.2,1.63l1-1.35,.88,.88-12.58,10.15c0-1,.13-1.75,.27-2.55h-.27l-.95,3.97h-.6l-1.83,2.63c2.35-1.47,4.17-2.63,6.13-3.78,.27-.2,.95,0,1.4,.2-.2,1.28-.67,2.5-1.15,3.7-.27,.47-1.63,.2-1.95,.88l-6.6,3.7-.48,1.55-3.1-1,.48,1.35-4.3,2.22c-.6-3.03,.33-6.13,2.5-8.28,2.15-2.7,4.5-5.3,7.05-7.72,2.7-2.28,5.52-4.45,8.48-6.4,.48-.28,1.27,0,2.08,0l-.75-1.63,5.65-4.45,8.35-5.1,3.1,.28-.67-2.43,.6-.2,.88,1,1.55-1.28-.55-.68,8.35-4.5v.68l3.02-1.83,1.08,1.62c1.27-1.63,2.23-3.97,3.83-4.7,1.63-.67,3.83,.47,6.6,.95-.33,0,.2,0,.55,0,.8-.67,1.95-1.55,2.15-2.42,.95-3.35-1-6.85-4.45-7.8-.6-.13-1.15-.2-1.67-.2-4.45-.47-8.8-.47-13.25,0-3.9,.6-7.73,1.55-11.42,2.75-1.83,.8-3.58,1.75-5.25,2.9-3.23,1.55-6.33,3.22-9.35,5.1-4.1,3.02-7.88,6.6-11.77,9.87-2.42,2.07-4.85,4.22-7.25,6.32-2.42,2.07-4.5,3.78-7.05,5.93l-.27-1.82-2.15,1.75,1.15,1.68-5.25,.8-.48,3.3h-2.35l-.55,1.95-2.95-1.35,2.08,1.75-7.3,8.22-.27-.88c-.75,.28-1.67,.28-2.15,.8-4.3,4.7-8.55,9.63-12.7,14.72-2.27,2.7-4.45,5.65-6.6,8.35-1,.95-2.15,1.82-3.3,2.55-2.42-.28-3.77-2.9-2.08-6.6,3.1-6.85,6.4-13.57,9.88-20.25,1.88-3.5,4.7-6.6,6.73-9.88,3.02-4.97,5.73-10.15,8.6-15.13l-1-.88c-2.15,2.35-4.23,4.65-6.33,7-2.08,2.35-4.23,4.85-6.6,7.4h0l-15.48,21.38-.33-.32c-1.75,3.03-3.5,6.13-5.3,9.07-2.27,3.78-4.45,7.47-6.85,11.1-.75,1.07-2.35,1.68-3.57,2.5-.68-1.07-1.27-2.23-1.63-3.43-.2-1.63,.2-3.15,1.15-4.5v3.3c0,.32,.32,.8,.6,1.15,.27-.2,.8-.32,.95-.68,2.5-4.18,4.77-8.55,7.4-12.65s5.1-7.05,7.68-10.63c1.35-1.88,2.55-3.9,3.9-5.78,.33-.55,1.27-.68,1.67-.88-.13-.28-.88-1.15-.75-1.35,1-1,1.95-2.15,2.9-3.3l8.67-11.18v-.2l5.3-5.53c.55-1.4,.67-2.5,1.27-3.1,1.08-.95,2.27-1.75,3.5-2.55l4.3-1.88c1.27,4.18,.6,8.75-1.83,12.3-2.7,5.45-5.77,10.55-8.95,15.8-3.15,5.1-6.13,9.15-8.95,13.85-.88,1.82-1.63,3.78-2.23,5.72,2.63-2.9,4.9-5.25,7.2-7.72s4.45-4.97,6.6-7.47l-1.35,.13,27.03-29.05,.48,.28,7.73-9.15,1.48,2.5-.6-2.55,5.38-1.67v-.33c1.88-.08,3.83-.33,5.65-.8,1.48-.75,2.9-1.67,4.1-2.75,.2-.13,.33-.33,.6-.6l1.35,1.4-.48-2.22,1.63,.67v-1.47l1.15,1.47-.48-3.3,2.35,2.15,6.33-6.4,1.95,3.9c-1.35-6.13,2.42-4.3,4.85-4.7,.67,0,1.35-.8,1.95-.95,1.15-.13,2.27-.28,3.42-.28l.13,1.28,.2-.88,2.7-.28-1.63-2.15,10.5-1.4,.2,1.55,3.3-1.08,.33,1.35,.48-.88,5.25,2.7c-.6,.75-.48,.6,0,0v2.7c.75,0,1.75,0,2.35,.47,.67,.6,1.08,1.4,1.27,2.28,.2,1.95,.27,3.97,.13,6.05-.2,.95-.6,1.83-1,2.63-.88,2.42-1.67,4.9-2.63,7.33-.33,.68-.8,1.28-1.35,1.75-.33,.68-.75,1.35-1.15,1.88-.6,.55-1.35,.95-1.95,1.35l-1.83,3.3-7.52,4.57-.33-1.68-2.43,.03h0Z"/><path class="cls-2" d="M410.75,243.33l1.88,.68c.95-.68,1.95-1.4,3.15-1.95,.2,0,.75,.32,.88,.48h6.05v-.68l-9.88-2.07,1.4-1.82-.33-.27-.55,1.35-.8-1.63-.2,1.95-1.15,1.07c-.2-.75-.2-1.63-.67-2.15-.55-.55-1.35-.8-2.08-.75-3.7,.13-7.2-1-10.08-3.3-.48,0-1.08,.48-1.27,.27-1.27-1.35-2.35-2.7-3.3-3.82l-.33,1-1.08-2.5,.95-1.55-.48-.32-1.75,1.35-.67-1.88,2.7-.68,.27-2.35h2.55c.88-2.35,1.55-4.5,4.3-1.68,.55,.55,1.95,0,2.95,0,.08-.75,.08-1.4,0-2.15l3.83,1.27,.55-.95,1,1.07c.67-.07,1.35-.2,1.95-.32,.33,0,.95-.55,.95-.8-.08-.6-.2-1.15-.55-1.75-.27,0-.6,.32-.8,.27-1.48-.32-2.9-.88-4.17-1.35l2.27-2.7c-.95-.32-1.95-.68-3.02-.95-3.02-.55-6.13-.88-9.08-1.35-3.77-.55-7.52-.95-11.3-1.55-.6,0-1.15-.68-1.63-1.88l11.7,.55h0l4.17,.55-.6-1.4,9.67,1.95,.27,1.63,.33-1.88,1.27,.48c.2-.32,.48-.95,.55-.95,.6,0,1.08,.55,1.67,.68,1.67,.6,3.5,1,5.3,1.35,8.95,4.9,19.5,4.57,28.85,7.25h16.48l-.6-3.02-.55,.6-9.88-9.27-.27,.55-3.58-1.88,.88-2.7,2.08,.48-2.23-3.5,.95-.55v.27l3.9,2.55c0,.27,0,0,.27-1.4,1.15,2.07,1.88,3.5,2.9,4.9,.33,.48,.8,.68,1.35,.75,.95,.13,2.42-.2,2.9,.27,3.3,3.57,7.4,6.6,7.73,12.18-.08,.32-.13,.68-.27,.95l-.67-.32c-.2,.6-.2,1.63-.75,1.88-.88,.27-1.88,.48-2.9,.32l.33,1.35h-14.92l.95-1.63-.8-.27-1.88,7.4-9.88-4.23,.2,.88-3.5-1.27h-7v.68l-4.02-1.07c-6.13,3.5-13.52,1.27-20.5,3.3l-.55-.88-4.02,1.48,.88,3.3,.67-1.95,4.23,2.7,.33-2.15,1.75,.68,1.48,2.27,.55-1.63c2.95,1.95,8.27,.13,8.55,5.65,.33-.88,.6-2.15,1.08-2.35,3.3-1.27,4.85,1.63,6.6,3.02,1.08-.55,2.23-.95,3.3-1.35,.48,.6,.75,1.27,.8,1.88-.08,.88-.08,1.75,0,2.55,.13-.32,.27-.75,.33-1.07,.48-3.3,.33-3.3,3.3-1.68,1.35,.6,2.7,1,4.17,1.35-1.48,2.5-.8,5.65,1.48,7.32-4.17,4.5-8.8,1.88-14.05,1.88,.2-.32,0,.2,0,0l-7.67,1.35-.33-2.23-3.02,3.3-2.08-4.9-.75,.95,.27-2.95,.2-.2,.15-.35Z"/><path class="cls-2" d="M275.33,76.78c-1.55,1.75-3.02,3.5-4.58,5.25-.75,.6-1.63,1-2.5,1.4l1.35-2.28h0l-2.63,4.97-1.35-.68,6.4-10.7,.67,.55,.8-1.4h0l13.25-23.67-.55-.6c-2.27,1.47-4.45,3.03-6.6,4.3-.88,.28-1.83,.47-2.9,.47l-3.5,4.78-.55-.2-15.52,12.5-.88-.75v1.15l-2.35,2.15h0l-7.05,7.33-11.57,12.5-.68-1.15c-1.48,.6-3.1,.95-4.65,1-1.35,0-2.5-1.35-3.5-1.95l-12.05,15.75,1.35-4.9,1.63-.28-.32-1.63h.48c1.4-1.55,2.63-2.9,3.82-4.22,.32-.55,.48-1.35,.88-1.68,2.07-2.28,4.45-4.3,6.25-6.6,.95-1.55,1.68-3.22,2.15-4.97,.2-.8,.48-1.55,.8-2.28,.2-2.55,.6-5.1,1.07-7.72,1.75-7.13,3.9-14.25,5.73-21.45,.88-3.9,1.55-7.8,1.95-11.77-.07-1.47-.27-2.95-.68-4.3-3.77,3.1-7.25,6.4-10.63,9.88-4.1,4.85-7.8,10.08-11.1,15.48-4.02,6.72-7.4,13.93-11.02,20.93-.88,1.82-1.55,3.78-1.95,5.65-.13,.68,.32,1.55,.88,3.15-.95,.32-2.07,.55-3.1,.32-.6-.2-1.07-2.28-.8-3.3,2.55-6.93,4.98-13.85,8.07-20.57,2.75-5.65,5.85-11.17,9.27-16.47,.55-.88,1.63-1.35,2.75-2.28,.8-1.63,1.82-3.1,3.02-4.5,2.55-2.63,5.45-4.97,8.07-7.53,2.63-2.35,6.05-3.7,9.55-3.78l.55,1,1.27-1.95c1,2.35,1.63,4.9,1.75,7.47-1.48,8.6-3.3,17.08-5.38,25.67-.95,4.18-2.15,8.28-3.1,12.03l1.48,.8,4.98-4.45,3.3-.13-1.68-1.15,7.4-3.1v-.28c.95-.32,1.82-.8,2.63-1.4,2.07-1.63,3.9-3.5,5.93-5.05,1.48-.88,3.02-1.63,4.65-2.22,.2-.8,.6-1.55,1.08-2.15,1-.88,2.35-1.4,3.77-1.47l7-7.4v1.75h.27l.6-1.95,2.9,.55v-.47l-1.27-.47-.27-1c3.9-1.35,7.73-2.55,11.58-3.9,.48,0,1,0,1.55,.2-.2,.55-.48,1-.67,1.55-.13,.67-.2,1.4-.27,2.15l1.15-2.35c1.48,2.95-1.08,7.8-2.9,9.88-1.75,2.08-3.77,5.38-5.73,8.27h-1.08v.28h1.27l-3.58,5.53-6.17,7.88h-.2Zm-39.88,10.75l15-16.88c-4.45,6.05-14.33,7-15,16.88h0Z"/><path class="cls-2" d="M61.15,166.95c1.08-.2,2.22-.48,3.3-.55,.47,0,.95,.32,1.55,.68l.68-1.35,.47,1.07c3.97-2.23,8.95-1.63,12.25,1.63l2.35-1.55,.88,1.63,1.4-1,.8,1.88,.8-.75-.28-1,.55-.2,.95,2.23,1.68-1.27c0,3.9,2.35,2.43,4.1,1.75l.47,2.07,1.28-.55c-.8-1.55-1.55-3.1-2.15-4.7-.2-.68,.47-1.55,.75-2.5l-3.3-.32-2.22-3.02,1.55-1.82h-1.55c-.8-.07-1.63-.27-2.43-.55-.6-.2-1.4-.48-1.63-.95-.88-1.68-1.4-3.5-2.28-5.1-.88-1.63-2.07-2.43-2.55-3.82-.68-2.23-1-4.5-1.28-6.85-.07-1.63-.07-3.23,0-4.85l.75,1.15,.47-1,.68,.75,1.28-5.25,.95,.2,.32,1.4c.32-.95,.8-1.82,1.35-2.7,0-.2,1.28,.2,1.88,.32l1.4-2.35,.68,.55c.8-.75,1.63-2.07,2.5-2.15,2.15,0,4.18,.12,6.25,.47,1.07-.13,2.22-.13,3.3,0,4.45,1.4,8.8,2.75,13.25,4.57,1.75,1.15,3.43,2.5,5.05,3.82,1.55,.68,3.15,1.27,4.85,1.68,.47,.13,.75,.8,1.47,1,1.35,1.75,3.3,3.3,3.7,5.25,.32,1.88-1.68,3.5-2.95,5.93-3.3-7.48-8.8-2.63-13.25-3.57-1.47-.13-2.95-.07-4.3,.13l.68-2.23h-.32l-1.68,4.85-4.18-4.85,.75-.68,1.4,.6,1.4-1.63-2.7-.55v-.68c1.07-.07,2.22,.07,3.3,.32,.28,0,0,1.63,0,1.55l6.13-.68v.95c.6-.27,1.15-.95,1.63-.88,.95,.32,1.82,.8,2.7,1.4-.13-.8,0-2.5-.8-3.3-1.82-1.4-3.97-2.35-6.18-2.75l-.75-1.55c-2.15-.32-3.57-.55-5.1-.88-4.1-.95-8.07-2.35-12.25-2.95-3.78-.6-7.4,1.48-8.95,4.9-1.82,3.23-1.55,7.2,.68,10.15,2.7,3.7,6.05,7,9,10.43l6.25,7.32,1.88,1.48-1.15,1.95v.27l2.07-.88,.6,2.75,.88-1.88,5.78,7.32-3.5,1.4v1.88c-2.95-1.15-5.93-2.27-8.88-3.3-3.97-1.63-8-3.3-11.9-4.9-.47-.27-.88-.6-1.35-.95l-.68,.68c-.13-.55-.2-1-.28-1.63,.07-.48,.07-.95,0-1.4l-.95,2.5-7.88-1.63c7.68,5.3,16.67,6.85,21.13,14.73l-.88,.27v.2l1.63-.68,7,9.88-.95,.55,8.07,10.95-.47,.27,2.35,8.88c4.57,12.5-2.28,23.07-7.32,33.95-2.7-1.82-2.63-2.63,0-6.13,1.15-1.63,1.95-3.5,2.35-5.52,1.28-5.3,2.15-10.63,2.7-16.07-.07-3.3-.55-6.65-1.35-9.88v.8h-.32l-3.3-10.23c-.47-.2-.95-.27-1.15-.68-3.22-5.25-6.93-10.23-10.9-14.93-3.57-3.3-7.72-6.13-12.1-8.27-3.57-1.95-7.53-3.3-11.38-4.85-.32-.27-.68-.68-.75-1.15,0-.2,.47-.68,.75-.8,1-.27,2.07-.55,3.5-.88l-4.18-.68-1.35,2.35-1.4-1.07,1.07,.95c0,.75,0,1.4,.28,3.02l-.75,1.27,1.82-1.27,.6,.48c-.6,.75-1.4,2.23-1.75,2.15-1.4-.32-3.42-.95-3.78-1.95-.47-2.15-.6-4.45-.33-6.6,0-.48,.67-.8,1-1.27l-1.27-.77h0Z"/><path class="cls-2" d="M381.3,113.9l5.73-1.75,12.57-3.57h.95c0,.88,0,1.63,0,1.47l3.83-4.65-.27-.95-5.25-2.07-9.88-.68,.48-3.3-1.67,4.22-.95-2.22v2.9l-1.27-1.75-3.3,1.07v-1.63c-.67,.6-1.4,1-2.27,1.4-2.27,.47-4.65,.68-7.13,.95h0l-18.9,3.3c-8,2.22-13.85,3.9-19.77,5.45-.6,0-1.35-.6-2.27-.95l-.67,.55-1-.75c2.15-3.78,4.58-7.25,7.2-10.63,.88-.95,2.55-5.05,5.92-.8-1.75-3.5-2.08-5.78,1.27-5.45l3.58-4.9c0,1.75,.2,2.43,.27,3.3h-1.08v.32l1.4,.47-1.08,2.43-.95-.13-1.35,2.55,.33,2.28-1.55-2.28v4.13l3.3-.32,.27,1.15,1.55-2.9,4.85-2.15,.95,1.35,.2-1.68,2.15,1.82c0-.2,0-.68,.2-.68,1.4-.68,2.9-1.15,4.45-1.55,.88,0,1.83,.95,2.7,1.47l.2-1.75,3.02,.8c0-.47,.27-1.28,.48-1.28,1.75-.2,3.5,.07,5.1,.88l3.3-2.7,.8,2.55,.8-3.78,.88,1.28,2.75-.88,.75,2.55v-1.63h6.05l-.13,.8h.27l.33-1.4h4.1l.27,2.15,1.88-2.63,1.15,5.53,1.55-.68-1.83-3.15,.6-.2c.67,.55,1.15,1.35,1.88,1.47,.67,.07,.95-.95,1-1h5.1c.8-.07,1.63,.13,2.27,.68,.75,.75,1.15,1.68,1.35,2.75-.2,1.88-.55,3.82-.95,5.72,0,0,.6,.32,.33,.28-1,1.82-2.15,3.5-3.3,5.25-.95,1-2.08,1.88-3.3,2.63-.2,0-.75,0-.33,0l-4.58,2.55-.33-.55,.95-.68c-.55-.07-1-.07-1.63,0-.27,0-.33,.68-.67,1.35l-1.15-1.55-.95,1.82-.67-2.35-2.23,3.3-.95-1.28c-.27,.6-.6,1.75-.8,1.68-1.88,0-3.83-.28-5.65-.55v-1l-.8,.8-.8-3.3v-.13l.35,.75Z"/><path class="cls-2" d="M84.35,200.3l-5.78-.95c.2-.6,0-.2,0,.13l-.55-.75c-2.55-.95-5.25-1.68-7.88-2.35-2.22-.27-4.45-.32-6.6-.27-3.1-.2-6.13-.13-9.15,.13-6.13,1-12.1,2.43-18.1,3.9-3.3,.8-2.7,3.3-1.55,5.52,3.7,5.73,9.08,10.15,15.48,12.5,6.45,2.7,13.05,4.98,19.78,6.93,5.78,1.68,11.82,2.9,17.67,4.18,1,.07,2.07,.07,3.03,0l-2.07-3.98,.6-.55,1.95,1.55v-2.35l2.43,4.5,.32-.2-.55-.88c.55-.13,1.28-.68,1.4-.48,2.5,2.15,4.85,4.45,7,6.85,.32,.48-1.35,2.95-2.5,3.98-.6,.48-2.28-.55-3.7-.88l-.28,.95-13.85-5.73h0l-5.57-.68-.68-1.35-.95,1.82-24.83-8.07,.33-1.07-1.08,1.15v-2.63h-.55l-.28,1.4-14.13-9.15,.28-.48c-.55-.27-1-.68-1.47-1.07-1.95-2.63-3.1-5.93-2.95-9.35,0-3.3,5.78-7.25,8.95-7.73,2.55-.27,5.85,1.15,7.88-2.23,.28-.48,2.35,0,3.3,0l12.77-.68,.8-1-.6,3.82,1.48-2.63,7.4,.48,.28,.75,11.22,3.77-.2,.8,2.28-.48-1.47,2.43h.68v.6l.02-.2Z"/><path class="cls-2" d="M150.17,126.53l-.2,.28-11.23-4.78-.2-1.35-1.35,1.15-1.15-1.88-1.15,1.35v-.68l-7.88-2.22c-2.9-.8-5.72-1.55-8.68-2.28-.32-.07-.8,0-1.07,.2-.13,.32-.13,.8,0,1.15,1.28,1.82,2.55,3.57,4.03,5.25,3.5,3.5,7.13,6.93,10.63,10.43,2.23,2.23,4.23,4.5,6.4,6.6,.27,.55,.55,1,.6,1.63h-2.23l.27,.95-4.02,1.88-.2-.88-1.35,1.15q-.2-.8,3.98-3.3l-4.23-5.52-.48,.55-4.9-3.3c-.68-.27-1.35-.68-1.95-1.07-2.95-2.63-5.65-5.53-8.07-8.68-1.75-3.15-3.22-6.45-4.3-9.88,8.68-2.43,15.32,1.35,22.88,3.5l-10.45-7.53v1.35l-1.4-1.63-5.1-3.3v.88l-6.6-4.65,.32,1.55-3.9-2.9-.28,.32c-1.15-1.47-2.15-3.1-3.03-4.78-.55-1.28-.55-2.63,0-3.9,.88-1.07,1.95-1.88,3.3-2.35,1.47-.68,3.03-1.15,4.57-1.55,1.47-.28,3.03-.55,4.57-.68l9.68-1.07c0,.28,0,.75,0,.47l5.25,.32,1.15-1,.8,1.4,1.82-1.4,18.5,3.7-.2,.95,1-.47c2.63-1.88,19.38,8.35,20.05,11.97l.88-2.28c.32,1.28,.95,2.35,.75,2.55-1.88,1.82-.68,2.7,.75,3.9,.55,.47,.6,1.47,.8,2.28l-1.35,1.28c0-.68-.13-1.4-.32-1.95-.88-2.43-2.23-4.65-3.9-6.6-3.15-2.9-6.73-5.1-10.63-6.72-6.45-2.28-13.25-3.97-19.98-4.9-6.52-.75-13.25-.8-19.78-.28-4.65,.47-9.15,1.35-13.65,2.55-1.07,.28-1.95,1.4-2.95,2.22,.68,1.15,1.55,2.22,2.5,3.1,3.03,2.28,6.18,4.3,9.47,6.18,4.22,2.28,9,3.82,13.25,6.25,7.8,4.5,15.32,9.47,23.07,14.32,.8,.68,1.15,1.68,1.07,2.7-.2,.68-1.63,1.35-2.5,1.35-.95,0-1.15-1.07-1.75-1.68l.03-.25Z"/><path class="cls-2" d="M169.08,66.43c1-.68,10.55,13.25,14.6,21.25,3.7,7.32,8.07,14.25,11.77,20.7-.2,.68,0,.28,0-.32,1.4,3.57,2.75,7,3.9,10.35,.2,.6-.6,1.55-.88,2.28-.6-.47-1.35-.8-1.63-1.4-2.15-4.65-4.02-9.43-6.4-13.85-3.02-5.85-6.25-11.7-9.63-17.43-2.27-3.82-4.77-7.47-7.32-11.1-3.3-4.57-6.6-9-9.88-13.53l-2.5-3.3,4.9,1.47,3.05,4.87h0Z"/></g><path class="cls-2" d="M111.25,267.8c0,.55,0,.23,0,0,2.5,3.83-1.95,10.5-7.25,13.25s-11.38,3.42-17.15,1.88l14.05-2.35v-1l-3.9-.8v-.8l5.85,.48c-.28,0,.32-.33,1.15-.67,3.03-.95,5.25-3.42,5.72-6.6,0-.67-1.47-2.5-1.95-2.42-3.57,.67-7.13,1.63-10.7,2.55-.6,.2-1.07,.55-1.63,.8-.88,.67-1.82,1.27-2.75,1.83-1,.55-2.15,.88-3.3,1.15-.32,0-1-.8-1.28-1.35-.2-.55,.6-.88,1-1.15,1.95-1.15,4.03-2.35,6.13-3.3,1.47-.67,3.1-1.08,4.65-1.63,.6-.27,1.15-.6,1.68-.95l.28,.55c1.68-.55,3.35-.8,5.1-.95,1.47,.33,2.95,.88,4.22,1.67l.07-.17Z"/><path class="cls-2" d="M393.27,147.58v-3.63h.27l1.75-3.1,.27,1.88,3.1,1.63v-.6l3.3,1.07,2.7-.2-.88-.27c.67-.13,1.83-.68,1.88-.48,.33,.8,.67,1.63,.8,2.5l2.5-1.68,.55,.75,1.63-1,.67,4.98-.88-1.48-3.58,4.85-.27-2.35h-1.63l.88,1.75h-2.08l1.67-4.5c-.67,.55-1.83,.95-2.27,1.75-.48,.8,0,1.75-.8,2.55l.48-1.07-1.15,.2v-1.75h-.6l-.2,1.95-3.7-1.4-.75,1.35-.2-3.02-2.23-1.48-1.35,.88,.1-.07Z"/><path class="cls-2" d="M384.8,142.13l-4.9,8.07v-1.88c-2.55,.27-4.98,.68-7.4,.8-.95-.13-1.88-.32-2.9-.8l1.15-1.35-2.55-.88c1.75-2.27,11.02-4.23,11.98-3.1l4.7-1-.08,.13Z"/><path class="cls-2" d="M412.83,337.2c5.77-4.58,11.7-9.27,17.63-13.65,.55-.33,1.88,.33,2.9,.67-.27,.75-.33,1.83-.95,2.27-5.77,3.9-11.7,7.73-17.55,11.42-.33,.27-1,0-1.63,0l-.4-.72h0Z"/><path class="cls-2" d="M359.45,79.68l2.35-.2v.28c.2,5.25-4.23,6.6-7.33,9-1.35,1-2.5,2.15-3.7,3.15l1.08,1.95-1.63-1.55-.8,1.55c.08-1.68,.48-3.35,1.27-4.9,2.42-3.15,4.98-6.18,7.8-9,.2-.28,.75-.28,1.15-.47l-.2,.2Z"/><path class="cls-2" d="M97.13,257.05l8.07-3.5v3.5l-18.1,5.73-.88-1.75c1-1,2.15-1.88,3.3-2.75,.6-.33,1.55,0,2.63-.2,.2-.13,.75-.95,1.47-1.08,1.28-.08,2.5-.08,3.78,.13h-.28v-.07Z"/><path class="cls-2" d="M84.35,200.3v-.6c1,0,2.5-.32,2.95,.13,2.15,2.23,4.1,4.65,5.93,7.13,.8,1.07,1.4,2.43,1.68,3.82,.07,1.07-.07,2.23-.47,3.3-.95-.6-2.28-.95-2.7-1.82-.95-1.82-1.15-3.98-2.07-5.77-.68-1.27-2.07-2.15-3.1-3.3-.85-1.2-1.48-1.88-2.2-2.88h0Z"/><path class="cls-2" d="M393.27,147.58l-.48,.48,1.63,.27-.2,.88-4.85-.95-.6,1.4-.67-1.68-.48,1.35-5.05-.8,2.27-4.98,1.55-.32,5.73,.6-1,1.63,1.75,.32,.4,1.8h0Z"/><path class="cls-2" d="M225.08,405.73l1.27-2.35,3.77,1.27-.95,.6,6.73,7.2c-5.1-.6-7.65-4.1-10.82-6.73h0Z"/><path class="cls-2" d="M412.02,149.6l-.67-4.98,2.55,1.35c.33,.13,.75,.27,1.88,.75l.95,1.63c0,1.88,.2,3.1,.27,4.23l-3.02-.48,.27-.6-2.23-1.9h0Z"/><path class="cls-2" d="M383.37,381.6l-.75-3.77,.48-.33,1.35,2.7c1.15,.75,2.27,1.63,3.3,2.55,.6,.75,.88,1.67,.88,2.55,0,.6-.75,1.15-1.15,1.75-.67-.8-1.4-1.63-2.08-2.42-.67-.75-1.27-1.82-2.02-3.02h0Z"/></g></g><path class="cls-2" d="M398.45,141.2l.95-.6,.48,.48-.88,.75-.55-.63h0Z"/></g><g><path class="cls-1" d="M319.58,327.23c.02-.52,.05-.92,.08-1.42,.3-.02,.63-.17,.85-.08,.7,.27,1.5,.48,2.02,.98,2.85,2.6,5.63,5.27,8.58,8.08,1.85,.33,4.05,1.27,6.3,2.83,3.05,.5,5.88,.95,8.83,1.42,1.15-1.33,2.27-2.58,3.35-3.85,.63-.73,2.2-4.35,2.27-5.17,.15-1.77-.02-3.48-1.17-4.98-.4-.5-.6-1.17-.88-1.77-1.08-2.23-2.45-2.67-5.05-2.38-1.65,.2-3.17,.6-5.08,1.17-.13-.33-.3-.83-.45-1.25,5.08-3.15,5.8-3.77,10.17-3.27,3.23,1,4.8,2.75,5.92,5.4-.13,2.23-.15,4.88-.48,7.5-.48,3.85-1.92,7.3-5.08,9.75-.95,.75-2.17,1.15-3.2,1.7-1.3,.23-2.63-.58-3.83,.42-.23,.2-.8,.02-1.2-.05-3.3-.65-6.65-1.13-9.73-2.58-1.02-.48-2.17-1.05-2.8-1.9-1.48-2.1-4.02-3.05-5.2-5.58-.85-1.88-2.72-3.25-4.25-4.98Z"/><path class="cls-1" d="M302.43,333.25l-1.88-.1c-.7,.6-1.45,1.23-2.2,1.88-.45-.33-.75-.55-.98-.7-.73,.35-1.42,.65-2.1,.98-2.95-.17-5.9-.42-8.85-.48-.48,0-.9-.05-1.33-.15-1.4-.35-2.48-1.2-3.4-2.6,.98-1.2,1.92-2.4,2.95-3.7-.27-.17-.5-.33-.67-.42-.13,.2-.27,.35-.42,.5-.05-.08-.13-.13-.17-.2,.17-.13,.35-.27,.52-.4,.02,.05,.08,.08,.08,.1,.27-1.13,.6-2.25,.88-3.25-.88-1-1.92-1.7-2.33-2.7-1.38-3.35-4.38-4.98-7.2-6.55-3.02-1.7-6.25-3.1-9.33-4.75-.25-.13-.5-.42-.75-.4-1.83,.08-2.92-1.33-5.02-2.17-1.08,.13-2.8,.33-4.52,.52,1.13,3.17,2.85,6.02,4.4,8.88,1.75,3.23,3.55,6.52,6.23,9.25,1.98,2.05,4.05,3.92,6.38,5.65-3.27,2.38-6.73,3.77-10.63,4.33-1.75,.25-3.45,.23-5.05-.05-2.6-.48-5.07-1.52-7.4-2.83-.13-.05-.18-.25-.18-.3,.23-.38,.45-.7,.73-1.15-.88-.6-1.63-1.2-2.43-1.67-2.88-1.67-5.52-3.63-7.7-6.2-.57-.7-.82-1.33-.32-2.17,1.15,0,2.3,.02,3.48,.02,.13-1.38-.82-1.58-1.6-2.02-.45-.27-.88-.6-1.3-.95-3.1,.88-6.27,.83-9.48,.35,1.15,.8,2.02,1.9,2.55,3.5,.85,2.6,2.43,4.7,4.75,6.42,1.77,1.3,3.35,3.15,4.6,5.48-3.25,.02-5.9,1.58-8.88,1.73-.25,.02-.52,.33-.77,.33-1.27,0-2.48-.05-3.77,.3-.88,.25-2.23,.48-3.1-.58-.05-.08-.15-.13-.25-.13-2.35-.35-4.68-.7-7.32-1.1-1.13-1.42-2.4-3.05-3.68-4.67,.77-.4,1.38-.7,2.02-1.02-1.48-1.17-2.85-2.3-4.43-3.55,.95-1.1,1.75-2.02,2.73-3.2l3.18,.17c-1.63-1.25-2.82-2.15-4.18-3.17,2.35-2.63,5.35-5.05,3.9-9.5-.82-1.35-1.77-2.6-3.82-2.85-2.55,.55-4.93,1.05-7.27,1.55,.02,.48,.02,.67,.05,1.08l3.5,.2c-2.02,1.38-3,3.02-4.88,3.63-.35,.13-.6,.52-.93,.8-2.8,2.3-5.5,4.7-8.4,6.85-6.15,4.6-12.43,8.95-19.2,12.67-4.88,2.67-9.73,5.38-14.3,8-2.55,.35-4.82,.67-7.23,1-.85,3.05-3.18,4.17-5.98,4.65-2.25,.4-4.2,1.65-6.45,2.15-2.43,.55-4.85,1-7.3,1.38-.35,.05-.68,.33-1.25,.63,.38-1.83,.73-3.52,1.02-5.05-1.68-2.42-3.2-.35-4.9-.35-.02-.05-.23-.27-.55-.63,.15-.3,.43-.63,.5-1.02,.13-.5,.07-1.02,.1-1.52,.7-.25,1.43-.45,2.13-.77,3-1.42,5.88-3.1,8.9-4.52,3.52-1.65,6.9-3.6,10.48-5.2,1.65-.75,3.18-1.75,4.85-2.4,.35-.13,.7-.27,1.05-.42l-.13-.27,.13-2.15c.73-.63,1.5-1.45,2.4-2.1,2.43-1.77,4.02-4.2,5.38-6.83,.7-1.38,1.13-2.85,1.43-4.33,.3-1.5,1.1-2.67,2.3-3.27,3.77-1.92,7.57-3.9,11.7-5.02,1.63-.45,3.13-1.27,4.77-1.75,1.93-.55,3.75-.92,5.73-.7,1,.1,2,.13,3.2,.2-.23,1.3-.4,2.38-.6,3.52,.15,.08,.5,.2,.85,.35-.93,1.88-1.7,2.83-3.6,4.48q.02-1.05,1.13-2.13c-.32-.1-.7-.35-.82-.25-.6,.42-1.23,.5-1.95,.52-.5,.02-1,.48-1.52,.75,.45,.33,.98,.7,1.65,1.17l-.13,2.17c.4,.1,.65,.25,.77,.17,1.93-1.1,3.88-2.13,5.7-3.35,1.32-.9,2.57-2,3.68-3.15,.48-.5,.65-1.38,.75-2.1,.18-1.1,.15-2.23,.25-3.7-.23-.25-.6-.67-1-1.13,.25-.05,.48-.08,.7-.08-1.32-.65-2.75-.95-4.25-1.08-3.7-.3-7.8,.6-11.43,1.02,.13,.1,.27,.2,.45,.27-2.45,.75-4.63,1.38-6.77,2.08-2.05,.67-4.13,1.35-6.1,2.25-2.07,.95-4.02,2.17-6.35,3.45-.5-.58-1.07-1.2-1.63-1.83l-.18,2.88c-1.25,1.85-2.4,3.45-4.4,4.1-.35,.1-.68,.5-.82,.83-1.4,3.05-3.65,5.55-5.4,8.38-2.73,4.42-6.32,7.83-11.2,9.8-2.52,1.02-5.02,2.2-7.55,3.23-1.23,.5-2.52,.8-3.95,1.23-.43-1.77,.15-3.08,1.43-4.17,1.07-.92,2.1-1.88,3.32-2.95-.57-.7-1.05-1.3-1.52-1.85-1.75-.92-3.05,.92-4.65,.8,1.75-2.27,3.35-4.55,5.18-6.63,1.25-1.42,2.77-2.65,4.3-3.8,1.38-1.08,2.93-1.9,4.38-2.88,2.18-1.48,4.3-3.08,6.52-4.48,2.93-1.83,5.88-3.65,8.95-5.2,2.43-1.23,4.95-2.27,7.57-3.15,4.23-1.4,8.23-2.23,12.2-4.17,.35-.17,1.77-1.13,3.23-2.05-.25-.1-.5-.2-.73-.35-.07-.05-.18-.13-.25-.17-.65,.13-1.3,.15-1.98,.15-.45,.02-.88-.13-1.27-.35-5.23,1.2-11.9,2.55-14,3.23-1.63,.52-3.32,.55-4.9,1.42-1.5,.83-3,1.67-4.5,2.5-2.35,1.3-4.38,2.98-6.5,4.58-2.85,2.15-5.82,4.1-8.5,6.5-2.57,2.33-5.27,4.52-7.73,6.95-1.8,1.77-3.45,3.75-5.22,5.6-1.43,1.5-2.1,3.48-3.82,4.8,.9,.6,1.7,1.1,2.45,1.6,.43-.23,.72-.38,1.13-.6l-.28,4.8c-1.28,.83-2.47,1.3-3.95,1.1-1.82-.23-3.68-.4-5.5-.3-1.85,.1-3.43-.85-5.2-.98-3.6-.23-6.75-1.42-9.32-3.8-4.1-3.48-4.55-4.88-7.05-5.9,.8,1.2,2.07,5.27,3.05,6.4,1.6,1.85,2.13,3.98,3.75,5.8,1.13,1.25,2.28,2.35,4.03,2.73,.7,.15,1.28,.8,2.03,1.33,2.18-.15,4.25,.63,6.07,1.8l-.03,.35h.05c.43,0,.8,.13,1.18,.33,.15,.05,.3,.15,.45,.25,.07,0,.28-.02,.4-.02,.1,0,.35-.02,.43-.02h0c.55,.02,1.05,.2,1.53,.5,.13,.13,.28,.23,.4,.35,.5-.05,.97-.05,1.47-.05,.1,0,.22,.02,.32,.02,0-.1,.03-.2,.03-.33,1.65,1.48,2.97-.08,4.75-.08q1.55,.92,1.82,2.45s-.03,.02-.03,.05c.03,.05,.03,.08,.05,.13,0,.02,.03,.05,.03,.08,.05,.13,.1,.23,.13,.35,.15,.17,.22,.4,.3,.63,.07,.1,.15,.2,.2,.33,.1,.1,.18,.23,.25,.35l.13,.1c.05,.05,.1,.1,.13,.17,.1,.1,.2,.23,.27,.35,.2,.13,.38,.3,.55,.48,.07,.05,.13,.13,.18,.2,.25,.15,.45,.35,.63,.55,.2,.17,.38,.33,.57,.5,.02,.02,.05,.05,.05,.08,.13,.08,.23,.17,.32,.27,.15,.08,.3,.17,.45,.27,.05,.02,.1,.02,.15,.05,.18,.02,.35,.08,.52,.13h0c1.35,.08,2.77,.05,4.18,.25,3.98,.63,7.73-.45,11.48-1.45,1.65-.45,3.2-1.15,4.75-1.85,2.75-1.2,5.73-1.9,8.43-3.27,1.1-.58,2.2-1.15,3.32-1.65,1.65-.7,3.35-1.25,5-1.98,5.73-2.52,11.35-5.23,17-7.9,2.82-1.33,5.85-2.35,8.5-3.92,3.55-2.1,7.6-3.05,10.9-5.42,3.98,3.8,7.8,7.48,11.77,11.27-.65,.65-1.35,1.33-2.43,2.4,.85-.23,1.4-.2,1.63-.45,.63-.67,1.3-.9,2.23-.65,.1,.33,.2,.67,.32,1.13l4.15,.25c.75,.48,1.48,.95,2.23,1.45,.43-.48,1.05-.83,1.65-.95,.8-.17,1.48,.02,2.15,.35,.2-.08,.4-.15,.57-.2,.23-.05,.48-.05,.7-.05-.57-.4-1.15-.8-1.7-1.2,2.05-.17,4-.5,5.95-.45,1.15,.02,2.13-.27,3.07-.7,2.35-1,4.68-2.08,6.93-3.3,.93-.5,1.7-.38,2.5-.02,1.3,.58,2.55,1.2,3.82,1.83,2.43,1.2,4.85,2.42,7.67,2.3,.7-.02,1.42,.08,2.13,.13,3.4,.23,6.38-.98,9.3-2.5,2.02-1.05,4.02-2.17,6.13-3.08,1.67-.73,3.38-1.13,5,.42,.63,.6,1.65,.75,2.27,1.02,.65-.77,1.08-1.3,1.55-1.85,.35,1.02,.63,1.83,.88,2.58,3.5,.08,6.65-1.05,9.9-.73,.58-.5,1.23-.55,1.9-.52,1,.05,2.02,.33,2.88-.42,1.42,.5,1.85-1.45,2.77-1.35-.22-.4-.62-1.1-.9-1.6Zm-185.43,9.6c-.45-.05-.93,.23-1.4,.25-.75,.02-1.53,.05-2.28-.05-.45-.05-.9-.5-1.3-.48-2.35,.27-4.25-1.15-6.38-1.73-1.03-.27-1.8-1.35-2.45-2.48,.43,.23,.85,.48,1.32,.65,.8,.3,1.63,.73,2.43,.73,.88,.02,1.85,.9,2.07,.7,.95-.77,1.53,.27,2.3,.23,3.43-.3,6.65,1.25,10.05,1.2,.15,0,.3,.2,.47,.33-1.57,.5-3.15,.9-4.85,.65Zm93.95-26.52c-.02,.25-.18,.4-.32,.58l-.18-.2c.17-.13,.35-.27,.5-.38,.05,.02,.1,.05,.13,.1,.73-2.08,1.6-4.05,2.57-6.27,.45,.65,.82,1.23,1.3,1.88-1.23,1.48-2.48,3-3.75,4.5-.08-.08-.18-.13-.25-.2Zm69.13,10.17c-1.05,1.92-2.13,3.63-4.77,4.02-2.42-1.58-5.08-3.17-7.13-5.67,.02-.6,.02-1.02,.08-1.42,.38-2.3-.27-4.2-1.92-5.92-.95-1.02-1.52-2.42-2.17-3.7-.23-.45-.15-1.08-.23-1.73,5.83,2.35,10.45,6.13,15.33,9.77,.25,1.4,1.87,2.68,.82,4.65Z"/><path class="cls-1" d="M389.5,337.55c-.1,.2-.23,.4-.38,.65h0s-.02,.02-.02,.05c-.02,.05-.05,.08-.08,.1h-.05c.02-.1,.02-.15,.02-.23l-.15,.25s-.25,.08-.1-.08l-.33,.27-.05-.02c-.13,.05-.38,.52-.45,.3-.2,.27-.33,.33-.6,.58,.15-.25-.35,.13-.13-.1-.17,.08-.15,.2-.25,.3-.15,.05-.15-.08-.05-.2l-.13,.15v-.02l-.08,.15c-.17,.05-.1-.08-.23,.02l.02,.1-.13,.02s0,.08-.1,.17v-.02l-.1,.08c.05-.1-.13,.08-.13-.02q-.1,.08-.27,.23l.08,.02c-.2,.23-.08-.08-.25,.08l.05,.05c-.35,.1-.42,.42-.67,.5,.1-.08,.05-.15,.02-.13-.15,.15-.48,.35-.58,.58-.15-.05-.17-.05-.4,.05-.13,.1-.15,.13-.15,.23-.15,.08-.38,.3-.42,.25,0,.08-.13,.08-.17,.17l-.02-.02,.05,.05c-.35,.05-.33,.38-.67,.45l.02-.05-.08,.1s0-.05-.02-.1l-.48,.35,.13-.02c-.1,.08-.1,.2-.25,.23,.13-.23-.15,.13-.23,.05l.08-.1q-.13,.1-.08,.17c-.15,.15-.2-.02-.33,.15l.13-.08s.02,.13-.05,.17c-.02,0-.08,.02-.08,0-.13,.13-.33,.25-.38,.3-.1,.05-.1-.02-.08-.08-.25,.27-.15,.1-.4,.38l-.02-.05-.08,.13-.2,.05h.08c-.1,.08-.13,.15-.27,.23v-.1c-.25,.23-.38,.15-.6,.42-.02,0,0-.02,0-.02-.17,.23-.25,.02-.4,.3,0-.02-.05-.02-.05-.05l-.08,.13-.05-.08v.17l-.13-.02-.02,.08c-.23-.05-.3,.17-.55,.2l.1,.08c-.27,.5-1,.6-1.45,1.08l-.05-.08-.13,.25c-.15,.02,.02-.1-.05-.13-.2,.2-.02,.17-.25,.38-.17,.05,0-.08,.05-.15-.2,.23-.52,.52-.73,.6t.02,.02c-.15,.15-.38,.27-.55,.4-.02-.02,.02-.08,.05-.1-.08,.05-.17,.08-.2,.15l.02-.1c-.15,.08-.35,.33-.45,.27,.02,.02,.08,.08-.05,.15-.08-.02-.17,.08-.27,.17,0,0,0-.02-.02-.02-.02,.02-.02,.05-.02,.08-.05,.05-.1,.1-.17,.13,0-.02,.08-.1,.1-.13-.13,.05-.15,.15-.23,.25v-.05l-.4,.38c-.15-.05-.4,.33-.42,.23-.02,0-.02,.02-.05,.05,.02,0,.15-.05,.02,.08-.08,0-.15,.15-.2,.08l.02-.02-.13,.1,.02-.13c-.1,.1-.15,.23-.1,.3-.15,.05-.27,.2-.38,.17l.02-.05c-.3,.25-.65,.17-.83,.48t-.02-.02l-.17,.13v-.08l-.27,.33-.02-.05c-.23,.15-.58,.4-.83,.63l.02-.05c-.27,.27-.33,.17-.52,.4t.02-.02l-.2,.15,.02-.08c-.08,.15-.35,.2-.38,.2h.02c-.05,.1-.17,.25-.15,.3-.05,.02-.08,.05-.1,.05h-.02s-.02-.05-.13,0c-.05,.05-.1,.08-.13,.13-1.4,.63-2.75,1.48-4.17,2.1-3.23,1.38-6.48,2.75-9.77,3.95-.08,0-.15,.02-.23,0-.38,.1-.85,.25-1.3,.27l.05-.02-.45,.02,.33,.02c-.1,.05-.17,.08-.27,.1-.5,0-1.17,0-1.77,.17-.38,.23-.27-.13-.65,.05l.08-.08c-.4,.13-.6,.17-1,.33,.02-.17-.25,.02-.23-.05l-.02,.08c-.1-.02-.3-.02-.3-.08l-.17,.13-.02-.08c-.23,.02-.75,.15-.88,0-.3,.1-.65,.13-1.02,.15-.38,.05-.77,.02-1.13,0-.1,.05-.3,.08-.45,.08l-.17-.1c-.15,.02-.35,.13-.48,.05,0,0,0-.02,.02-.02-.17,0-.33-.05-.48,0-.17-.02-.35-.1-.27-.2-.05,.15-.38-.08-.38-.08,0,0-.55-.13-1.4-.4s-1.95-.75-3.15-1.38c-1.17-.63-2.45-1.35-3.63-1.9-.05-.02-.13-.05-.17-.08-.67-.65-1.38-1.25-2.08-1.85l-.02-.02c-.7-.6-1.4-1.17-2.1-1.75-3.52-3-6.9-6.2-10.2-9.45-3.08-3.05-6-6.25-8.98-9.38-.2-.23-.38-.48-.67-.85l.15-2.73c-.88,1.13-1.8,.65-2.73,.65-1.35-1.27-2.6-2.7-4.08-3.88-3.52-2.8-7.35-5.33-10.7-8.33-4.05-3.6-8.55-6.58-13-9.58-4.55-3.05-9.38-5.77-13.95-8.8-1.85-1.23-3.88-2.2-4-4.65,.02-.17-5.27,2.2-5.9,3.6v.02c-.05,.1-.1,.17-.13,.27,0,.05-.02,.1-.02,.15-.02,.15-.05,.27-.13,.4,.05-.2,0-.15,0-.15-.02,.13-.1,.3-.17,.45,.2,.02,.42-.1,.63-.23v-.2s.13-.1,.17-.13c3.25-2.25,7.17,5.98,9.17,8.5,.52-.1,1-.2,1.48-.3,.02,0,.02-.17,.08-.6-2.4-2.52-4.55-5.55-7.38-8.02,1.02,.13,1.98,.35,2.7,.88,3.27,2.45,6.88,4.4,10.35,6.55,.58,.35,1.15,.67,1.7,1.05,2.35,1.65,4.63,3.38,7.02,4.92,4.23,2.73,8,6,11.9,9.15,1.95,1.58,3.92,3.15,5.85,4.77,2.02,1.7,3.98,3.48,5.95,5.23,.1,.1,.13,.27,.23,.48-.63,.55-1.23,1.08-1.85,1.6,.08,.08,.13,.15,.25,.27l4.9,.27c.85,.98,1.73,1.95,2.6,2.92,5.02,5.63,9.83,11.48,15.7,16.27,.95,.77,1.92,1.5,2.92,2.2,1.65,1.17,3.35,2.3,5.05,3.42,.2,.13,.5,.08,.88,0,.1,.1,.23,.23,.38,.3l.05-.05c.5,.52,1.3,.8,1.98,1.23l-.08-.08c.1-.02,.2,.02,.3,.05l.08,.08s-.05,.08,.1,.13c-.02-.02-.08-.08-.08-.1,.63,.52,1.33,.98,2.13,1.42,.58-.02,1.17-.02,1.77-.05,1.3,.23,2.67,.33,3.92,.2-.15,0-.08-.15,.08-.13,.5,.25,.8-.13,1.27,0,.73-.15,1.4-.08,2.05-.25,2,.02,4,.3,6.02-.23,1.88-.48,3.8-.67,5.23-1.98l-.02,.05c.08-.05,.1-.1,.17-.15,.02,.02,.08,.05,.1,.08-.05,.02-.1,.05-.13,.1,.05-.02,.1-.05,.17-.08,.33,.23,.6,.4,.77,.5,2.13-1.6,4.13-3.08,6.1-4.55,.27,.3,.42,.45,.45,.48,2.73-1.95,5.4-3.9,8.13-5.83-.35-.4-.6-.7-.88-.98-.02-.02-.08-.05-.1-.05,0,0,.02,0,.02-.02,.38-.27,.33-.45,.45-.7,.08,0,.13,0,.1,.05-.13,.02-.08,.05-.1,.1,.13-.1,.35-.1,.33,0,.17-.17-.1,0-.02-.13l.13-.08c.15,.45,.27,.85,.4,1.27,1.77-1.23,3.1-2.4,4.65-3.1,2.08-.95,2.52-2.83,3.48-4.48-.05-.05-.08-.08-.13-.1,.02-.05,0-.05,.13-.17,.05,.1,.13,.08,.33,0l-.17,.02v-.05s-.08,.02-.13,0c.05-.02,.15-.25,.2-.25-.27,0,.27-.38,.08-.35,0-.05,.15-.15,.17-.13-.13,.2,.2,0,.23,.1,.05-.08-.17,.02-.13-.08,.1-.08,.2-.08,.27-.1l-.02,.05,.17-.08s-.2,.05-.08-.1c.05,0,.17-.13,.2-.1-.02,.1,.1,.15-.02,.25,.1-.08,.4-.33,.2-.33l.13-.08c-.1,.02-.35,.1-.13-.08v.02l.13-.2h.1s0-.05,.05-.1c.02,.02,.1-.02,.13,.02,.17-.13,.13-.17,.13-.23,.1-.08,.15-.1,.13,0,.15-.1,.38-.27,.5-.3,.05-.05,.05-.08,.05-.08,.15-.05,.27-.13,.42-.15h.02c.42-.17,.8-.33,1.17-.45-.25-.4-.55-.67-.77-1.02Zm-3.45,3.73c-.1-.08-.2-.17-.27-.25,.08-.05,.15-.05,.25-.1-.08,.08-.05,.33,.17,.15-.08,.08-.13,.13-.15,.2Z"/><path class="cls-1" d="M257.05,298.78s0-.02,.02-.05h.02s-.02,.02-.05,.05Z"/><path class="cls-1" d="M332.23,354.73s.02,.02,.05,.02v.02l-.05-.05Z"/><path class="cls-1" d="M332.27,354.28h.1s.13,.02,.17,.05l-.27-.05Z"/><path class="cls-1" d="M371.1,352.9s-.05-.02-.08-.02c.05-.03,.13-.05,.08,.02Z"/><path class="cls-1" d="M163.92,327.3c.15,.65,.3,1.35,.55,2.42-2.4-.58-4.3,.17-6.18,.92l-.13-.27c1.1-1.25,1.88-2.13,2.52-2.85,1.35,.93,2.05-.27,3.23-.22Z"/></g></svg>