<svg width="1916" height="1009" viewBox="0 0 1916 1009" fill="none" xmlns="http://www.w3.org/2000/svg">
<g clip-path="url(#clip0_1158_4823)">
<path d="M885.589 91.8145V78.6186C885.589 68.3361 878.135 60.71 867.081 60.71C865.625 60.71 865.11 60.71 864.168 60.7956V73.9915C865.11 73.9915 865.625 73.9915 867.081 73.9058C878.135 73.9058 885.589 81.6177 885.589 91.8145Z" fill="black" stroke="white" stroke-width="0.0214047"/>
<path d="M1068.78 92.3293V79.0478C1068.78 68.3369 1060.47 60.9677 1049.16 60.7107C1048.21 60.7107 1047.7 60.7107 1046.76 60.625V73.9065C1047.7 73.9065 1048.21 73.9065 1049.16 73.9922C1060.47 74.2493 1068.78 81.6184 1068.78 92.3293Z" fill="black" stroke="white" stroke-width="0.0214047"/>
<path d="M929.88 72.8772C930.394 72.8772 930.994 72.8772 931.593 72.9629C932.536 72.9629 933.05 72.9629 933.993 72.9629V59.6814C933.05 59.6814 932.536 59.6814 931.593 59.6814C930.994 59.5957 930.48 59.5957 929.88 59.5957C918.141 59.5957 912.572 69.7925 912.657 79.9893V93.2708C912.657 83.074 918.227 72.8772 929.88 72.8772Z" fill="black" stroke="white" stroke-width="0.0214047"/>
<path d="M1111.62 75.7913C1112.48 75.7913 1113.34 75.877 1114.28 75.9627C1116.42 76.0484 1117.45 76.0484 1119.59 76.1341C1130.9 76.6482 1142.13 78.0192 1153.27 79.9043C1162.35 82.3892 1171.18 84.9599 1179.23 89.6727C1187.28 94.6425 1193.71 101.24 1199.28 108.181C1206.22 116.75 1210.16 127.289 1214.02 137.658C1216.76 146.226 1219.5 154.795 1222.24 163.45C1224.39 162.935 1225.41 162.678 1227.56 162.164V148.883C1225.41 149.397 1224.39 149.654 1222.24 150.168C1219.5 141.599 1216.76 133.03 1214.02 124.376C1210.16 114.008 1206.13 103.383 1199.28 94.8996C1193.71 87.9589 1187.28 81.2753 1179.23 76.3911C1171.09 71.6783 1162.26 69.1077 1153.27 66.6228C1142.13 64.8233 1130.9 63.3666 1119.59 62.8525C1117.45 62.7668 1116.42 62.7668 1114.28 62.6811C1113.34 62.5955 1112.48 62.5098 1111.62 62.5098C1100.83 62.5098 1095.26 71.8497 1095.34 81.6181V94.8996C1095.26 85.1312 1100.83 75.7913 1111.62 75.7913Z" fill="black" stroke="white" stroke-width="0.0214047"/>
<path d="M685.679 82.2173C696.047 82.2173 703.073 89.4151 703.073 99.2691V86.0733C703.073 76.2192 696.047 69.0215 685.679 69.0215C685.165 69.0215 684.651 69.0215 684.051 69.1072C683.109 69.1929 682.595 69.1929 681.652 69.2785V82.5601C682.595 82.4744 683.109 82.4744 684.051 82.3887C684.651 82.303 685.165 82.2173 685.679 82.2173Z" fill="black" stroke="white" stroke-width="0.0214047"/>
<path d="M749.089 78.3614C750.032 78.2757 750.546 78.2757 751.489 78.2757V64.9941C750.546 65.0798 750.032 65.0798 749.089 65.0798C735.98 65.0798 730.153 75.7051 730.153 86.3303V99.6118C730.068 88.9866 735.98 78.3614 749.089 78.3614Z" fill="black" stroke="white" stroke-width="0.0214047"/>
<path d="M568.902 112.894C567.274 104.754 566.417 100.726 564.789 92.5859V105.867C566.417 114.008 567.274 118.035 568.902 126.175V112.894Z" fill="black" stroke="white" stroke-width="0.0214047"/>
<path d="M1177.43 173.046C1177.43 173.389 1177.43 173.646 1177.43 173.989V160.707C1177.43 160.364 1177.43 160.107 1177.43 159.765V173.046Z" fill="black" stroke="white" stroke-width="0.0214047"/>
<path d="M1163.89 220.517C1172.89 226.601 1177.51 236.712 1177.51 247.08V233.798C1177.51 223.43 1172.89 213.319 1163.89 207.235C1153.52 200.209 1141.96 198.409 1129.62 197.21C1118.22 196.696 1106.74 196.267 1095.34 195.839V209.12C1106.74 209.549 1118.22 209.977 1129.62 210.491C1141.96 211.691 1153.52 213.49 1163.89 220.517Z" fill="black" stroke="white" stroke-width="0.0214047"/>
<path d="M488.958 257.449C490.157 257.277 490.757 257.277 491.871 257.106V243.824C490.671 243.996 490.072 243.996 488.958 244.167C481.932 245.024 476.619 247.337 474.22 250.422C471.907 254.107 470.707 258.734 470.707 264.903V278.185C470.707 272.015 471.907 267.388 474.22 263.704C476.619 260.619 481.932 258.305 488.958 257.449Z" fill="black" stroke="white" stroke-width="0.0214047"/>
<path d="M1177.43 263.874C1179.83 263.96 1180.94 264.046 1183.34 264.217V250.936C1180.94 250.764 1179.83 250.764 1177.43 250.593V263.874V263.874Z" fill="black" stroke="white" stroke-width="0.0214047"/>
<path d="M424.946 252.307C413.978 253.763 403.011 255.306 392.129 256.848V270.13C403.096 268.587 414.064 267.045 424.946 265.588C426.66 265.331 428.288 265.245 429.744 265.245C434.2 265.245 437.456 266.274 439.598 268.159C441.911 271.244 443.711 275.442 443.711 281.612V268.33C443.711 262.161 441.911 257.876 439.598 254.877C437.37 253.078 434.2 251.964 429.744 251.964C428.288 251.964 426.66 252.135 424.946 252.307Z" fill="black" stroke="white" stroke-width="0.0214047"/>
<path d="M353.401 149.825C358.542 138.771 364.112 126.261 374.48 118.635C382.106 113.065 389.132 109.209 394.958 108.352C396.158 108.181 397.357 108.095 398.643 108.095C403.527 108.095 408.753 109.295 414.323 111.265C421.435 114.093 428.804 119.92 433.688 125.49C440.114 132.773 444.912 141.256 449.539 149.739C454.595 160.707 456.822 172.103 458.365 183.928C459.307 192.326 459.736 196.524 460.678 204.922C462.992 204.579 464.191 204.493 466.59 204.151V190.869C464.277 191.126 463.077 191.297 460.678 191.64C459.736 183.243 459.307 179.044 458.365 170.647C456.822 158.822 454.68 147.426 449.539 136.458C444.912 127.974 440.028 119.491 433.688 112.208C428.804 106.724 421.435 100.897 414.323 97.9839C408.753 96.0988 403.441 94.8135 398.643 94.8135C397.443 94.8135 396.158 94.8992 394.958 95.0705C389.132 95.9274 382.02 99.7833 374.48 105.353C364.112 112.979 358.542 125.49 353.401 136.543C345.004 156.337 340.891 177.587 337.036 198.495C331.209 231.913 330.609 266.188 330.609 299.863V313.059C330.609 279.384 331.209 245.109 337.036 211.691C340.891 190.783 345.004 169.619 353.401 149.825Z" fill="black" stroke="white" stroke-width="0.0214047"/>
<path d="M1068.69 251.449V264.731C1068.69 321.627 1068.69 378.524 1068.69 435.334C1068.78 436.02 1068.78 436.62 1068.78 437.219V423.938C1068.78 423.338 1068.78 422.653 1068.69 422.053C1068.69 365.242 1068.69 308.346 1068.69 251.449Z" fill="black" stroke="white" stroke-width="0.0214047"/>
<path d="M885.582 436.277V422.996C885.582 422.396 885.582 421.796 885.496 421.196V434.478C885.582 435.078 885.582 435.677 885.582 436.277Z" fill="black" stroke="white" stroke-width="0.0214047"/>
<path d="M703.078 443.731V430.45C703.078 429.85 703.078 429.25 702.992 428.65V441.932C703.078 442.532 703.078 443.132 703.078 443.731Z" fill="black" stroke="white" stroke-width="0.0214047"/>
<path d="M636.671 459.07V445.789C636.671 444.332 636.5 442.704 636.071 440.819C628.017 402.088 619.963 363.357 611.909 324.627C611.737 324.627 611.48 324.627 611.309 324.712V319.057C598.113 255.648 585.004 192.24 571.808 128.831C557.499 194.896 543.104 261.047 528.795 327.112V332.681C528.195 332.767 527.595 332.767 526.995 332.853C518.941 370.212 510.887 407.486 502.832 444.846C501.976 447.759 501.633 450.244 501.633 452.472V465.754C501.633 463.526 502.061 460.955 502.832 458.128C510.887 420.768 518.941 383.494 526.995 346.134C555.271 343.135 583.547 340.308 611.823 337.823C619.877 376.553 627.931 415.284 635.986 454.015C636.414 455.985 636.671 457.614 636.671 459.07ZM571.808 142.027C584.49 202.951 597.085 263.874 609.766 324.798C583.376 327.112 556.899 329.768 530.508 332.51C544.304 269.101 558.013 205.521 571.808 142.027Z" fill="black" stroke="white" stroke-width="0.0214047"/>
<path d="M1046.93 355.389C1035.88 389.149 1024.83 422.996 1013.86 456.757C1012.66 455.043 1011.46 453.329 1009.75 451.701C1007.95 450.587 1005.63 449.988 1003.23 448.788C1000.32 447.674 996.722 447.074 992.009 446.474C981.727 446.389 971.445 446.389 961.163 446.389C928.86 446.389 896.557 446.731 864.254 447.417V460.698C896.557 460.013 928.86 459.67 961.163 459.67C971.445 459.67 981.727 459.67 992.009 459.756C996.722 460.356 1000.32 460.956 1003.23 462.069C1005.63 463.183 1007.95 463.783 1009.75 464.983C1011.55 466.697 1012.66 468.41 1013.86 470.038C1024.91 436.278 1035.88 402.431 1046.93 368.67V355.389Z" fill="black" stroke="white" stroke-width="0.0214047"/>
<path d="M864.336 355.56C853.283 389.835 842.23 424.195 831.262 458.47C830.062 456.842 828.863 455.214 827.149 453.586C825.35 452.558 823.036 452.044 820.637 451.015C817.724 449.987 814.125 449.559 809.412 449.216C767.856 450.844 726.384 452.986 684.999 455.814C684.827 455.814 684.57 455.814 684.399 455.814V450.158C684.142 450.158 683.971 450.158 683.714 450.244V455.814C683.371 455.814 683.028 455.899 682.771 455.899V450.33C681.829 452.643 681.829 453.757 681.829 455.985C660.664 457.442 639.586 459.07 618.508 460.869V474.151C640.7 472.266 662.807 470.552 684.999 469.01C726.47 466.182 767.941 464.04 809.412 462.412C814.125 462.84 817.724 463.269 820.637 464.211C823.036 465.239 825.35 465.754 827.149 466.782C828.948 468.41 830.062 470.038 831.262 471.666C842.315 437.391 853.283 403.03 864.336 368.755V355.56V355.56Z" fill="black" stroke="white" stroke-width="0.0214047"/>
<path d="M1192.25 458.212C1190.45 457.013 1188.14 456.327 1185.74 455.042C1182.82 453.757 1179.23 452.985 1174.51 452.214C1132.01 449.986 1089.43 448.358 1046.84 447.33V460.612C1089.43 461.64 1132.01 463.268 1174.51 465.496C1179.23 466.353 1182.74 467.038 1185.74 468.324C1188.14 469.609 1190.45 470.294 1192.25 471.494C1194.05 473.293 1195.16 475.007 1196.36 476.807C1207.59 443.56 1218.81 410.227 1230.04 376.981V363.699C1218.81 396.946 1207.59 430.278 1196.36 463.525C1195.16 461.811 1193.96 460.012 1192.25 458.212Z" fill="black" stroke="white" stroke-width="0.0214047"/>
<path d="M470.795 470.553C468.91 470.81 467.196 470.981 464.711 471.324V476.894C457.685 477.75 450.745 478.693 443.719 479.55V492.831C450.745 491.889 457.685 491.032 464.711 490.175C487.846 487.347 510.981 484.605 534.116 482.12V468.839C512.952 471.152 491.873 473.552 470.795 476.122V470.553V470.553Z" fill="black" stroke="white" stroke-width="0.0214047"/>
<path d="M443.712 446.559C437.714 457.613 431.202 467.981 421.948 476.893C414.665 483.919 405.326 489.232 394.958 490.774C392.13 491.203 389.303 491.374 386.475 491.374C377.564 491.374 368.738 489.317 360.941 485.119C347.66 478.692 339.434 466.182 332.237 454.271C321.869 435.848 316.557 415.626 312.358 395.318C306.532 365.242 305.332 334.309 305.332 303.976V317.257C305.332 347.59 306.532 378.524 312.358 408.6C316.557 428.993 321.869 449.216 332.237 467.553C339.434 479.463 347.574 491.974 360.941 498.4C368.738 502.599 377.564 504.655 386.475 504.655C389.303 504.655 392.13 504.484 394.958 504.056C405.326 502.513 414.665 497.286 421.948 490.174C431.202 481.263 437.714 470.895 443.712 459.841V446.559Z" fill="black" stroke="white" stroke-width="0.0214047"/>
<path d="M1253.34 88.3009C1255.74 91.8141 1257.46 96.4412 1258.06 102.696V89.4149C1257.46 83.2454 1255.66 78.6182 1253.34 75.0194C1250.94 72.0203 1245.63 69.9638 1238.61 69.4497C1237.66 69.364 1237.15 69.364 1236.21 69.2783V82.5599C1237.15 82.6456 1237.58 82.6456 1238.61 82.7312C1245.72 83.2454 1251.03 85.3019 1253.34 88.3009Z" fill="black" stroke="white" stroke-width="0.0214047"/>
<path d="M1435.86 106.638C1437.06 110.152 1439.37 114.95 1441.77 120.777C1459.85 182.129 1477.84 243.481 1495.83 304.833V291.638C1477.84 230.285 1459.85 168.933 1441.77 107.581C1439.45 101.669 1437.06 96.9558 1435.86 93.4426C1434.06 89.8438 1429.34 87.6159 1422.32 86.759C1421.37 86.6733 1420.95 86.5876 1420 86.502V99.6978C1420.95 99.7835 1421.37 99.8692 1422.32 99.9549C1429.34 100.812 1434.06 103.04 1435.86 106.638Z" fill="black" stroke="white" stroke-width="0.0214047"/>
<path d="M1288.56 86.6731C1288.82 86.6731 1289.07 86.6731 1289.33 86.6731C1300.13 87.6157 1310.92 88.5583 1321.72 89.5008C1327.63 90.015 1334.66 91.8144 1343.48 94.385C1353.16 97.127 1360.7 103.125 1368.25 109.209C1377.24 117.692 1384.01 128.317 1388.81 139.371C1395.58 155.651 1397.03 173.817 1397.03 190.698V177.416C1397.03 160.536 1395.58 142.284 1388.81 126.089C1384.01 114.95 1377.16 104.41 1368.25 95.9274C1360.7 89.8436 1353.25 83.8455 1343.48 81.1035C1334.66 78.5328 1327.54 76.8191 1321.72 76.2193C1310.92 75.191 1300.13 74.2485 1289.33 73.3916C1289.07 73.3916 1288.82 73.3916 1288.56 73.3916C1285.65 73.3916 1284.62 74.934 1284.62 77.5046V90.7861C1284.62 88.2155 1285.65 86.6731 1288.56 86.6731Z" fill="black" stroke="white" stroke-width="0.0214047"/>
<path d="M1470.47 110.409C1473.04 108.695 1476.98 107.752 1481.6 107.752C1483.23 107.752 1485.03 107.838 1486.92 108.095C1487.86 108.181 1488.29 108.266 1489.23 108.438V95.1562C1488.29 94.9848 1487.86 94.9848 1486.92 94.8135C1485.03 94.5564 1483.32 94.4707 1481.6 94.4707C1476.89 94.4707 1473.04 95.4133 1470.47 97.127C1468.15 99.0121 1466.87 101.497 1466.87 104.753V118.035C1466.95 114.779 1468.24 112.294 1470.47 110.409Z" fill="black" stroke="white" stroke-width="0.0214047"/>
<path d="M1602.42 112.035C1601.22 111.864 1600.02 111.778 1598.82 111.778C1594.45 111.778 1590.51 113.235 1587.77 115.891C1583.65 119.147 1580.74 123.175 1578.94 127.373C1560.01 182.213 1540.98 237.139 1522.13 291.979V305.26C1541.07 250.42 1560.01 195.495 1578.94 140.655C1580.74 136.456 1583.65 132.429 1587.77 129.173C1590.51 126.517 1594.45 125.06 1598.82 125.06C1599.93 125.06 1601.13 125.146 1602.42 125.317C1605.67 125.831 1607.3 126.088 1610.64 126.688V113.406C1607.3 112.892 1605.67 112.55 1602.42 112.035Z" fill="black" stroke="white" stroke-width="0.0214047"/>
<path d="M1569 126.174C1571.92 129.088 1573.29 132.429 1573.29 136.2V122.918C1573.29 119.148 1572 115.806 1569 112.893C1564.29 108.266 1559.67 105.266 1554.35 104.495C1550.84 103.981 1549.04 103.724 1545.53 103.21V116.492C1549.04 117.006 1550.84 117.263 1554.35 117.777C1559.67 118.548 1564.38 121.461 1569 126.174Z" fill="black" stroke="white" stroke-width="0.0214047"/>
<path d="M1394.81 253.421C1378.01 269.702 1355.65 275.1 1332.6 275.1C1329.6 275.1 1326.52 275.014 1323.52 274.843V288.124C1326.52 288.296 1329.6 288.381 1332.6 288.381C1355.57 288.381 1377.93 283.069 1394.81 266.703C1415.37 247.08 1422.48 220.431 1422.48 194.468V181.187C1422.48 207.15 1415.37 233.799 1394.81 253.421Z" fill="black" stroke="white" stroke-width="0.0214047"/>
<path d="M1495.75 470.21C1495.84 470.896 1495.84 471.581 1495.84 472.181V458.9C1495.84 458.214 1495.84 457.614 1495.75 456.929V470.21Z" fill="black" stroke="white" stroke-width="0.0214047"/>
<path d="M1236.21 469.268C1258.66 470.896 1281.02 472.61 1303.47 474.581V461.299C1281.11 459.414 1258.66 457.614 1236.21 455.986V469.268Z" fill="black" stroke="white" stroke-width="0.0214047"/>
<path d="M1400.12 461.383C1398.49 458.298 1397.63 456.756 1396.01 453.671C1394.81 451.272 1393.09 448.273 1391.29 445.274C1355.99 383.065 1320.43 321.027 1284.62 259.075V272.357C1320.43 334.309 1355.91 396.346 1391.29 458.555C1393.09 461.554 1394.81 464.554 1396.01 466.953C1397.63 470.038 1398.49 471.58 1400.12 474.665C1403.03 481.691 1408.35 485.119 1416.57 486.061C1427.54 487.346 1438.51 488.632 1449.47 490.003V476.721C1438.51 475.35 1427.54 474.065 1416.57 472.78C1408.35 471.837 1403.03 468.409 1400.12 461.383Z" fill="black" stroke="white" stroke-width="0.0214047"/>
<path d="M1473.98 493.087C1497.12 496.172 1520.16 499.342 1543.21 502.77V489.488C1520.16 486.061 1497.12 482.89 1473.98 479.806V493.087Z" fill="black" stroke="white" stroke-width="0.0214047"/>
<path d="M934.028 54.1123C934.028 56.3402 934.028 57.4541 934.028 59.682C933.085 59.682 932.571 59.682 931.629 59.682C931.029 59.5963 930.515 59.5963 929.915 59.5963C918.176 59.5963 912.607 69.7931 912.693 79.9899C912.693 193.526 912.693 307.147 912.693 420.683C912.607 430.794 918.176 440.819 929.572 440.819C930.258 440.819 930.858 440.819 931.543 440.734C933.685 440.734 934.714 440.734 936.856 440.734C948.08 440.734 959.476 440.22 970.53 438.42C979.184 437.649 989.209 434.564 996.578 430.194C1004.97 426.253 1010.8 419.826 1016.71 413.057C1023.74 404.317 1027.68 394.377 1031.54 384.18C1034.88 373.983 1038.22 363.786 1041.56 353.59C1043.7 354.275 1044.73 354.704 1046.87 355.389C1035.82 389.15 1024.77 422.996 1013.8 456.757C1012.6 455.044 1011.4 453.33 1009.69 451.702C1007.89 450.588 1005.57 449.988 1003.18 448.788C1000.26 447.674 996.663 447.075 991.951 446.475C981.669 446.389 971.386 446.389 961.104 446.389C928.801 446.389 896.498 446.732 864.195 447.417C864.195 445.19 864.195 444.076 864.195 441.848C865.138 441.848 865.652 441.848 866.595 441.762C878.59 441.419 886.473 432.593 885.531 421.197C885.531 307.661 885.531 194.04 885.531 80.504C886.473 69.279 878.762 60.7102 867.109 60.7102C865.652 60.7102 865.138 60.7102 864.195 60.7959C864.195 58.568 864.195 57.4541 864.195 55.2262C887.501 54.6264 910.722 54.2837 934.028 54.1123Z" fill="black" stroke="white" stroke-width="0.107023"/>
<path d="M751.419 59.4268C751.419 61.6546 751.419 62.7686 751.419 64.9964C750.476 65.0821 749.962 65.0821 749.019 65.0821C735.91 65.0821 730.083 75.7074 730.083 86.3326C730.083 199.868 730.083 313.49 730.083 427.026C729.998 436.794 735.224 446.391 746.021 446.391C746.963 446.391 747.906 446.305 748.934 446.134C751.076 446.048 752.104 445.963 754.246 445.877C765.557 445.363 776.867 444.335 787.92 442.021C796.66 440.821 806.599 437.308 813.882 432.595C822.28 428.225 828.106 421.542 834.018 414.515C840.959 405.518 844.986 395.407 848.842 384.953C852.183 374.585 855.525 364.217 858.867 353.849C861.009 354.448 862.037 354.791 864.179 355.391C853.126 389.666 842.073 424.027 831.105 458.302C829.905 456.673 828.706 455.045 826.992 453.417C825.193 452.389 822.879 451.875 820.48 450.847C817.567 449.818 813.968 449.39 809.256 449.047C767.699 450.675 726.227 452.818 684.842 455.645C683.814 455.731 682.7 455.817 681.672 455.817C681.672 453.589 681.672 452.475 681.672 450.247C696.067 449.133 703.864 440.05 702.921 428.654C702.921 315.118 702.921 201.496 702.921 87.9607C703.864 77.164 696.666 69.0237 685.613 69.0237C685.099 69.0237 684.585 69.0237 683.985 69.1094C683.043 69.1951 682.528 69.1951 681.586 69.2808C681.586 67.0529 681.586 65.939 681.586 63.7111C704.978 62.0831 728.198 60.6264 751.419 59.4268Z" fill="black" stroke="white" stroke-width="0.107023"/>
<path d="M1196.38 51.1143C1206.83 83.7611 1217.29 116.322 1227.65 148.969C1225.51 149.483 1224.48 149.74 1222.34 150.255C1219.6 141.686 1216.86 133.117 1214.12 124.463C1210.26 114.094 1206.23 103.469 1199.38 94.9862C1193.81 88.0455 1187.38 81.3619 1179.33 76.4777C1171.19 71.7649 1162.36 69.1943 1153.36 66.7094C1142.23 64.9099 1131 63.4532 1119.69 62.9391C1117.55 62.8534 1116.52 62.8534 1114.38 62.7677C1113.44 62.6821 1112.58 62.5964 1111.72 62.5964C1100.93 62.5964 1095.36 71.9363 1095.44 81.7047C1095.44 118.122 1095.44 154.539 1095.44 190.956C1106.84 191.384 1118.32 191.813 1129.72 192.241C1141.8 192.156 1153.28 191.556 1163.99 185.472C1173.5 180.074 1177.87 170.134 1177.61 159.852C1177.61 153.339 1177.61 150.083 1177.61 143.571C1180.01 143.742 1181.13 143.742 1183.53 143.914C1183.53 179.56 1183.53 215.291 1183.53 250.937C1181.13 250.766 1180.01 250.766 1177.61 250.594C1177.61 244.082 1177.61 240.826 1177.61 234.314C1177.79 223.774 1173.16 213.492 1163.99 207.237C1153.62 200.21 1142.05 198.411 1129.72 197.211C1118.32 196.697 1106.84 196.269 1095.44 195.84C1095.44 271.502 1095.44 347.164 1095.44 422.826C1095.36 433.366 1101.18 443.734 1113.35 443.734C1116.44 443.82 1117.55 443.82 1119.69 443.905C1124.15 444.077 1128.52 444.248 1132.97 444.248C1139.74 444.248 1146.6 443.991 1153.36 443.22C1161.85 442.877 1171.96 440.306 1179.33 436.193C1186.95 432.937 1194.66 426.425 1199.38 419.998C1206.32 411.687 1210.77 401.747 1214.12 391.807C1217.46 381.782 1220.8 371.671 1224.14 361.645C1226.54 362.502 1227.65 362.931 1230.05 363.702C1218.83 396.949 1207.6 430.281 1196.38 463.528C1195.18 461.814 1193.98 460.014 1192.27 458.215C1190.47 457.015 1188.15 456.33 1185.75 455.045C1182.84 453.759 1179.24 452.988 1174.53 452.217C1132.03 449.989 1089.44 448.361 1046.86 447.333C1046.86 445.105 1046.86 443.991 1046.86 441.763C1047.8 441.763 1048.32 441.763 1049.26 441.849C1061.6 441.849 1069.82 433.708 1068.79 422.141C1068.79 308.348 1068.79 194.641 1068.79 80.8478C1069.74 69.28 1061.08 61.054 1049.26 60.7112C1048.32 60.7112 1047.8 60.7112 1046.86 60.6256C1046.86 58.3977 1046.86 57.2837 1046.86 55.0559C1089.87 56.0841 1132.8 57.7122 1175.73 60.0257C1176.16 60.0257 1176.59 60.0257 1177.01 60.0257C1180.61 60.0257 1183.7 59.1689 1185.75 58.312C1188.15 57.3694 1190.47 56.3412 1192.27 55.3129C1193.98 54.2847 1195.18 53.2564 1196.38 51.1143Z" fill="black" stroke="white" stroke-width="0.107023"/>
<path d="M628.379 454.358C635.491 453.758 637.804 449.646 636.005 440.82C627.951 402.089 619.896 363.358 611.842 324.628C583.566 327.113 555.29 329.855 527.015 332.939C518.96 370.299 510.906 407.573 502.852 444.933C500.538 453.073 501.652 458.557 505.165 461.47C507.993 463.784 511.849 464.984 516.818 464.984C518.103 464.984 519.56 464.898 521.017 464.726C526.158 464.127 528.814 463.87 533.955 463.355C533.955 465.583 533.955 466.697 533.955 468.925C510.82 471.41 487.686 474.152 464.551 476.98C464.551 474.752 464.551 473.638 464.551 471.41C467.036 471.067 468.749 470.896 470.634 470.639C471.834 470.468 473.034 470.382 474.576 470.125C482.202 469.182 487.514 466.355 490.427 461.47C493.341 456.672 495.74 451.873 496.939 447.246C520.931 335.767 544.923 224.288 568.914 112.894C567.286 104.754 566.429 100.726 564.801 92.5862C568.914 92.1578 571.828 90.1869 574.227 86.5881C576.626 83.589 578.34 79.9901 579.539 75.9628C580.739 71.9355 581.338 67.3941 581.853 61.7387C583.995 61.5674 585.023 61.396 587.165 61.2246C613.727 187.699 640.289 314.174 666.766 440.734C667.88 447.418 671.05 450.588 677.134 450.588C677.562 450.588 678.076 450.588 678.504 450.502C680.132 450.417 681.418 450.331 682.617 450.245C681.675 452.559 681.675 453.673 681.675 455.901C682.703 455.815 683.817 455.729 684.845 455.729C662.653 457.272 640.461 458.985 618.354 460.871C618.354 458.643 618.354 457.529 618.354 455.301C622.381 454.872 624.438 454.701 628.379 454.358ZM528.814 327.113C556.319 324.199 583.738 321.457 611.328 319.058C598.133 255.649 585.023 192.241 571.828 128.832C557.518 194.897 543.123 261.048 528.814 327.113Z" fill="black" stroke="white" stroke-width="0.107023"/>
<path d="M454.949 75.79C458.89 114.178 462.746 152.48 466.688 190.868C464.374 191.125 463.174 191.297 460.775 191.639C459.833 183.242 459.404 179.043 458.462 170.646C456.92 158.821 454.777 147.425 449.636 136.457C445.009 127.974 440.125 119.491 433.785 112.207C428.901 106.723 421.532 100.896 414.42 97.9831C408.851 96.0979 403.538 94.8126 398.74 94.8126C397.54 94.8126 396.255 94.8983 395.055 95.0697C389.229 95.9266 382.117 99.7825 374.577 105.352C364.123 112.978 358.554 125.489 353.413 136.542C345.016 156.336 340.903 177.587 337.047 198.494C331.221 231.912 330.621 266.187 330.621 299.863C330.621 333.024 330.964 366.87 337.047 399.688C340.817 418.882 344.759 438.676 353.413 456.585C358.725 466.096 363.952 476.293 374.491 481.434C380.66 484.176 386.487 485.376 391.542 485.376C392.742 485.376 393.942 485.29 395.055 485.204C402.424 484.262 411.25 479.121 415.62 473.379C422.389 465.925 427.358 457.013 430.871 447.759C435.241 436.363 438.155 424.538 440.297 412.884C442.61 400.117 443.553 387.007 443.81 373.725C443.81 338.593 443.81 303.461 443.81 268.415C443.81 262.246 442.01 257.961 439.697 254.962C437.469 253.163 434.299 252.049 429.843 252.049C428.387 252.049 426.759 252.135 425.045 252.392C414.077 253.848 403.11 255.391 392.228 256.933C392.228 254.705 392.228 253.591 392.228 251.363C425.473 246.651 458.719 242.281 492.05 238.339C492.05 240.567 492.05 241.681 492.05 243.909C490.851 244.08 490.251 244.08 489.137 244.251C482.111 245.108 476.798 247.422 474.399 250.507C472.086 254.191 470.886 258.818 470.886 264.988C470.886 333.538 470.886 402.088 470.886 470.637C469.001 470.895 467.287 471.066 464.802 471.409C464.802 473.637 464.802 474.75 464.802 476.978C457.776 477.835 450.836 478.778 443.81 479.635C443.81 468.581 443.81 457.613 443.81 446.559C437.812 457.613 431.3 467.981 422.046 476.893C414.763 483.919 405.423 489.232 395.055 490.774C392.228 491.202 389.4 491.374 386.573 491.374C377.662 491.374 368.836 489.317 361.039 485.119C347.758 478.692 339.532 466.182 332.335 454.271C321.967 435.848 316.654 415.626 312.456 395.318C306.629 365.242 305.43 334.309 305.43 303.976C305.43 272.528 306.715 240.31 313.056 209.12C317.425 186.927 323.081 164.905 332.934 144.254C339.618 129.944 348.7 115.635 361.039 105.095C371.492 97.726 381.946 91.3851 395.055 89.4143C398.654 88.9002 401.996 88.6431 405.166 88.6431C409.108 88.6431 412.706 89.0716 415.62 89.9285C420.932 91.4708 425.045 93.0989 428.558 94.8983C431.814 97.1262 434.813 98.0688 437.641 98.0688C438.326 98.0688 439.011 97.9831 439.697 97.8974C449.122 96.355 453.578 83.9303 454.949 75.79Z" fill="black" stroke="white" stroke-width="0.107023"/>
<path d="M1446.57 470.725C1447.77 470.896 1448.37 470.896 1449.48 471.068C1449.48 473.296 1449.48 474.41 1449.48 476.637C1438.52 475.266 1427.55 473.981 1416.58 472.696C1408.35 471.753 1403.04 468.326 1400.13 461.299C1398.5 458.215 1397.64 456.672 1396.02 453.588C1394.82 451.188 1393.1 448.189 1391.3 445.19C1356 382.981 1320.44 320.943 1284.63 258.991C1284.63 317.259 1284.63 375.526 1284.63 433.879C1284.63 440.563 1285.83 445.704 1288.14 449.303C1290.54 452.902 1295.85 454.959 1303.48 455.644C1303.48 457.872 1303.48 458.986 1303.48 461.214C1281.11 459.329 1258.66 457.529 1236.21 455.901C1236.21 453.673 1236.21 452.559 1236.21 450.331C1237.16 450.417 1237.59 450.417 1238.61 450.503C1239.9 450.588 1241.18 450.674 1242.38 450.674C1247.61 450.674 1251.47 449.732 1253.35 447.161C1255.75 443.991 1257.46 439.62 1258.06 432.937C1258.06 318.459 1258.06 203.895 1258.06 89.4162C1257.46 83.2467 1255.67 78.6196 1253.35 75.0207C1250.95 72.0216 1245.64 69.9651 1238.61 69.451C1237.67 69.3653 1237.16 69.3653 1236.21 69.2796C1236.21 67.0518 1236.21 65.9378 1236.21 63.71C1264.75 65.7665 1293.28 68.08 1321.73 70.6506C1333.98 71.8503 1345.89 75.2778 1357.12 80.2476C1369.28 86.1601 1379.91 92.8437 1389.5 101.584C1399.36 110.581 1407.58 122.663 1413.07 135.002C1419.49 149.654 1422.41 165.078 1422.49 180.33C1422.66 206.551 1415.64 233.628 1394.82 253.422C1378.02 269.702 1355.66 275.101 1332.61 275.101C1329.61 275.101 1326.53 275.015 1323.53 274.844C1350.17 323.086 1376.65 371.328 1403.04 419.741C1410.07 431.223 1417.18 442.534 1424.81 453.588C1429.43 461.385 1436.63 469.354 1446.57 470.725ZM1296.45 262.847C1303.82 267.646 1313.42 268.674 1321.81 269.531C1323.44 269.702 1325.16 269.788 1326.95 269.788C1331.67 269.788 1337.24 269.188 1343.58 268.246C1353.09 266.789 1360.63 261.819 1368.34 256.678C1378.28 249.395 1383.59 239.112 1388.9 228.572C1395.93 212.463 1397.13 194.126 1397.13 177.331C1397.13 160.451 1395.67 142.2 1388.9 126.005C1384.11 114.865 1377.25 104.326 1368.34 95.8427C1360.8 89.7589 1353.35 83.7608 1343.58 81.0188C1334.75 78.4482 1327.64 76.7344 1321.81 76.1346C1311.02 75.1064 1300.22 74.1638 1289.42 73.3069C1289.17 73.3069 1288.91 73.3069 1288.65 73.3069C1285.74 73.3069 1284.71 74.8493 1284.71 77.4199C1284.71 135.687 1284.71 193.955 1284.71 252.222C1287.03 255.907 1290.54 258.991 1296.45 262.847Z" fill="black" stroke="white" stroke-width="0.107023"/>
<path d="M1419.94 80.8486C1443.07 83.5906 1466.21 86.504 1489.26 89.5887C1489.26 91.8166 1489.26 92.9306 1489.26 95.1584C1488.31 94.9871 1487.88 94.9871 1486.94 94.8157C1485.06 94.5586 1483.34 94.4729 1481.63 94.4729C1476.92 94.4729 1473.06 95.4155 1470.49 97.1292C1466.98 100.043 1465.78 104.327 1468.18 110.839C1485.06 168.421 1501.85 226.003 1518.65 283.585C1536.38 232.43 1554.2 181.274 1571.94 130.119C1574.25 123.178 1573.74 117.523 1569.03 112.896C1564.31 108.269 1559.69 105.27 1554.38 104.498C1550.86 103.984 1549.06 103.727 1545.55 103.213C1545.55 100.985 1545.55 99.8712 1545.55 97.6434C1567.23 100.899 1588.91 104.327 1610.5 107.84C1610.5 110.068 1610.5 111.182 1610.5 113.41C1607.24 112.896 1605.61 112.553 1602.27 112.039C1601.07 111.867 1599.87 111.782 1598.67 111.782C1594.3 111.782 1590.36 113.238 1587.62 115.895C1583.51 119.151 1580.6 123.178 1578.8 127.377C1559.86 182.217 1540.84 237.142 1521.99 291.982C1521.99 348.193 1521.99 404.404 1521.99 460.701C1521.99 471.754 1527.9 482.637 1540.75 483.579C1541.69 483.751 1542.12 483.751 1543.07 483.922C1543.07 486.15 1543.07 487.264 1543.07 489.492C1520.02 486.064 1496.97 482.894 1473.83 479.809C1473.83 477.581 1473.83 476.467 1473.83 474.239C1475.03 474.411 1475.63 474.496 1476.75 474.668C1477.77 474.839 1478.72 474.839 1479.74 474.839C1489.86 474.839 1496.54 467.299 1495.6 456.931C1495.6 401.834 1495.6 346.737 1495.6 291.64C1477.6 230.287 1459.61 168.935 1441.53 107.583C1439.22 101.671 1436.82 96.9579 1435.62 93.4447C1433.82 89.8458 1429.11 87.6179 1422.08 86.7611C1421.14 86.6754 1420.71 86.5897 1419.77 86.504C1419.94 84.2761 1419.94 83.1622 1419.94 80.8486Z" fill="black" stroke="white" stroke-width="0.107023"/>
<path d="M962.745 498.25C1471.87 498.25 1930.09 586.792 2249.23 728.038V1001.29C2204.11 969.425 2138.59 932.815 2048.64 896.262C1790.59 791.405 1406.86 717.526 962.745 717.526C518.63 717.526 134.903 791.405 -123.146 896.262C-185.47 921.586 -236.059 946.937 -276.266 970.718V707.833C40.0348 578.4 478.35 498.25 962.745 498.25ZM2249.23 727.491C1930.02 586.262 1471.81 497.75 962.745 497.75C478.398 497.75 40.0942 577.875 -276.266 707.293V664.031C39.9502 534.481 478.297 454.25 962.754 454.25C1471.94 454.25 1930.19 542.882 2249.23 684.252V727.491ZM2048.45 896.725C2138.57 933.345 2204.13 970.015 2249.23 1001.9V1133.52C2204.11 1101.57 2138.47 1064.83 2048.23 1028.15C1790.28 923.292 1406.7 849.413 962.754 849.413C518.809 849.413 135.229 923.292 -122.721 1028.15C-185.271 1053.58 -235.997 1079.03 -276.266 1102.89V971.299C-236.042 947.489 -185.393 922.095 -122.958 896.725C135.018 791.898 518.679 718.026 962.745 718.026C1406.81 718.026 1790.47 791.898 2048.45 896.725Z" fill="black" stroke="white" stroke-width="0.5"/>
</g>
<defs>
<clipPath id="clip0_1158_4823">
<rect width="1916" height="1009" fill="white"/>
</clipPath>
</defs>
</svg>
