<svg width="926" height="321" viewBox="0 0 926 321" fill="none" xmlns="http://www.w3.org/2000/svg">
<path fill-rule="evenodd" clip-rule="evenodd" d="M622.916 115.794C730.591 176.833 831.975 258.093 899.671 316.829C905.928 322.258 915.402 321.587 920.831 315.329C926.26 309.072 925.588 299.598 919.331 294.169C851.027 234.906 747.911 152.166 637.71 89.6961C528.357 27.7057 408.301 -16.5092 307.609 6.84879C222.264 26.6468 177.574 49.9229 144.493 67.1525C140.073 69.4549 135.859 71.6493 131.784 73.713C114.853 82.2867 101.263 88.0846 84.9931 90.6559C68.6814 93.2337 48.5901 92.7211 18.8976 86.873C10.7695 85.2722 2.88255 90.5635 1.28166 98.6917C-0.31917 106.82 4.97221 114.707 13.1003 116.308C44.9078 122.572 68.7538 123.595 89.6761 120.288C110.64 116.975 127.581 109.469 145.337 100.477C149.517 98.3605 153.793 96.1338 158.243 93.8166C190.846 76.8391 232.775 55.0051 314.389 36.0728C403.199 15.4709 514.394 54.2754 622.916 115.794Z" fill="black"/>
<path d="M899.671 316.829L899.343 317.207L899.343 317.207L899.671 316.829ZM622.916 115.794L622.669 116.229L622.669 116.229L622.916 115.794ZM920.831 315.329L920.453 315.002L920.453 315.002L920.831 315.329ZM919.331 294.169L919.003 294.547L919.003 294.547L919.331 294.169ZM637.71 89.6961L637.957 89.2611L637.957 89.2611L637.71 89.6961ZM307.609 6.84879L307.496 6.36172L307.496 6.36172L307.609 6.84879ZM144.493 67.1525L144.724 67.596L144.724 67.596L144.493 67.1525ZM131.784 73.713L132.01 74.1591L132.01 74.1591L131.784 73.713ZM84.9931 90.6559L84.915 90.162L84.915 90.162L84.9931 90.6559ZM18.8976 86.873L18.9942 86.3824L18.9942 86.3824L18.8976 86.873ZM1.28166 98.6917L0.791085 98.595L0.791084 98.595L1.28166 98.6917ZM13.1003 116.308L13.0037 116.798L13.0037 116.798L13.1003 116.308ZM89.6761 120.288L89.7542 120.782L89.7542 120.782L89.6761 120.288ZM145.337 100.477L145.563 100.923L145.563 100.923L145.337 100.477ZM158.243 93.8166L158.012 93.3732L158.012 93.3732L158.243 93.8166ZM314.389 36.0728L314.502 36.5598L314.502 36.5598L314.389 36.0728ZM899.998 316.451C832.292 257.707 730.88 176.422 623.162 115.359L622.669 116.229C730.302 177.244 831.657 258.48 899.343 317.207L899.998 316.451ZM920.453 315.002C915.205 321.05 906.047 321.699 899.998 316.451L899.343 317.207C905.809 322.817 915.598 322.123 921.208 315.657L920.453 315.002ZM919.003 294.547C925.052 299.795 925.701 308.953 920.453 315.002L921.208 315.657C926.819 309.191 926.125 299.402 919.659 293.792L919.003 294.547ZM637.464 90.131C747.622 152.578 850.71 235.292 919.003 294.547L919.659 293.792C851.345 234.519 748.199 151.755 637.957 89.2611L637.464 90.131ZM307.722 7.33586C408.216 -15.9762 528.124 28.1486 637.464 90.131L637.957 89.2611C528.59 27.2629 408.386 -17.0422 307.496 6.36172L307.722 7.33586ZM144.724 67.596C177.786 50.3761 222.435 27.1205 307.722 7.33586L307.496 6.36172C222.094 26.1731 177.362 49.4698 144.262 66.709L144.724 67.596ZM132.01 74.1591C136.088 72.0938 140.304 69.8981 144.724 67.596L144.262 66.709C139.841 69.0117 135.63 71.2048 131.558 73.2669L132.01 74.1591ZM85.0711 91.1497C101.42 88.5661 115.066 82.7397 132.01 74.1591L131.558 73.2669C114.641 81.8338 101.107 87.6031 84.915 90.162L85.0711 91.1497ZM18.8009 87.3636C48.5287 93.2186 68.6826 93.7398 85.0711 91.1497L84.915 90.162C68.6802 92.7277 48.6515 92.2236 18.9942 86.3824L18.8009 87.3636ZM1.77224 98.7883C3.31976 90.9311 10.9438 85.8161 18.8009 87.3636L18.9942 86.3824C10.5951 84.7282 2.44534 90.196 0.791085 98.595L1.77224 98.7883ZM13.1969 115.817C5.33977 114.269 0.224767 106.645 1.77224 98.7883L0.791084 98.595C-0.863107 106.994 4.60465 115.144 13.0037 116.798L13.1969 115.817ZM89.5981 119.794C68.7526 123.089 44.9691 122.075 13.1969 115.817L13.0037 116.798C44.8464 123.07 68.755 124.101 89.7542 120.782L89.5981 119.794ZM145.111 100.031C127.369 109.016 110.484 116.493 89.5981 119.794L89.7542 120.782C110.796 117.456 127.793 109.922 145.563 100.923L145.111 100.031ZM158.012 93.3732C153.561 95.6906 149.288 97.9159 145.111 100.031L145.563 100.923C149.746 98.805 154.024 96.577 158.474 94.2601L158.012 93.3732ZM314.276 35.5857C232.605 54.5313 190.634 76.3858 158.012 93.3732L158.474 94.2601C191.058 77.2924 232.946 55.4789 314.502 36.5598L314.276 35.5857ZM623.162 115.359C514.627 53.8326 403.284 14.9378 314.276 35.5857L314.502 36.5598C403.114 16.0039 514.161 54.7182 622.669 116.229L623.162 115.359Z" fill="white"/>
</svg>
