<svg width="581" height="601" viewBox="0 0 581 601" fill="none" xmlns="http://www.w3.org/2000/svg">
<circle cx="451.757" cy="240.975" r="22.2846" transform="rotate(38.9776 451.757 240.975)" fill="black" stroke="white" stroke-width="1.33745"/>
<circle cx="413.644" cy="269.994" r="22.2846" transform="rotate(38.9776 413.644 269.994)" fill="black" stroke="white" stroke-width="1.33745"/>
<circle cx="360.539" cy="292.65" r="22.2846" transform="rotate(38.9776 360.539 292.65)" fill="black" stroke="white" stroke-width="1.33745"/>
<circle cx="301.218" cy="309.917" r="22.2846" transform="rotate(38.9776 301.218 309.917)" fill="black" stroke="white" stroke-width="1.33745"/>
<circle cx="297.378" cy="306.822" r="22.2846" transform="rotate(38.9776 297.378 306.822)" fill="black" stroke="white" stroke-width="1.33745"/>
<circle r="22.2846" transform="matrix(-0.779676 -0.626183 -0.626183 0.779676 515.602 36.1123)" fill="black" stroke="white" stroke-width="1.33745"/>
<circle r="22.2846" transform="matrix(-0.779676 -0.626183 -0.626183 0.779676 519.446 39.2095)" fill="black" stroke="white" stroke-width="1.33745"/>
<rect x="298.56" y="231.738" width="81.6792" height="16.626" rx="8.31301" transform="rotate(38.9776 298.56 231.738)" fill="black" stroke="white" stroke-width="1.33745"/>
<circle cx="297.367" cy="241.349" r="22.2846" transform="rotate(38.9776 297.367 241.349)" fill="black" stroke="white" stroke-width="1.33745"/>
<rect x="341.908" y="141.402" width="138.378" height="16.626" rx="8.31301" transform="rotate(38.9776 341.908 141.402)" fill="black" stroke="white" stroke-width="1.33745"/>
<circle cx="327.628" cy="140.536" r="22.2846" transform="rotate(38.9776 327.628 140.536)" fill="black" stroke="white" stroke-width="1.33745"/>
<rect x="312.677" y="177.582" width="138.378" height="16.626" rx="8.31301" transform="rotate(38.9776 312.677 177.582)" fill="black" stroke="white" stroke-width="1.33745"/>
<circle cx="306.953" cy="183.613" r="22.2846" transform="rotate(38.9776 306.953 183.613)" fill="black" stroke="white" stroke-width="1.33745"/>
<circle cx="359.528" cy="100.965" r="22.2846" transform="rotate(-141.022 359.528 100.965)" fill="black" stroke="white" stroke-width="1.33745"/>
<circle cx="397.641" cy="71.9439" r="22.2846" transform="rotate(-141.022 397.641 71.9439)" fill="black" stroke="white" stroke-width="1.33745"/>
<circle cx="450.747" cy="49.2908" r="22.2846" transform="rotate(-141.022 450.747 49.2908)" fill="black" stroke="white" stroke-width="1.33745"/>
<rect x="512.721" y="110.202" width="81.6792" height="16.626" rx="8.31301" transform="rotate(-141.022 512.721 110.202)" fill="black" stroke="white" stroke-width="1.33745"/>
<circle cx="513.919" cy="100.592" r="22.2846" transform="rotate(-141.022 513.919 100.592)" fill="black" stroke="white" stroke-width="1.33745"/>
<rect x="469.373" y="200.538" width="138.378" height="16.626" rx="8.31301" transform="rotate(-141.022 469.373 200.538)" fill="black" stroke="white" stroke-width="1.33745"/>
<circle cx="483.657" cy="201.404" r="22.2846" transform="rotate(-141.022 483.657 201.404)" fill="black" stroke="white" stroke-width="1.33745"/>
<rect x="498.608" y="164.358" width="138.378" height="16.626" rx="8.31301" transform="rotate(-141.022 498.608 164.358)" fill="black" stroke="white" stroke-width="1.33745"/>
<circle cx="504.333" cy="158.326" r="22.2846" transform="rotate(-141.022 504.333 158.326)" fill="black" stroke="white" stroke-width="1.33745"/>
<circle r="22.2846" transform="matrix(-0.779676 -0.626183 -0.626183 0.779676 112.012 408.005)" fill="black" stroke="white" stroke-width="1.33745"/>
<circle r="22.2846" transform="matrix(-0.779676 -0.626183 -0.626183 0.779676 91.7426 451.41)" fill="black" stroke="white" stroke-width="1.33745"/>
<circle r="22.2846" transform="matrix(-0.779676 -0.626183 -0.626183 0.779676 80.8754 508.112)" fill="black" stroke="white" stroke-width="1.33745"/>
<rect x="-0.940133" y="0.102645" width="81.6792" height="16.626" rx="8.31301" transform="matrix(-0.779676 -0.626183 -0.626183 0.779676 152.883 555.083)" fill="black" stroke="white" stroke-width="1.33745"/>
<circle r="22.2846" transform="matrix(-0.779676 -0.626183 -0.626183 0.779676 144.414 558.96)" fill="black" stroke="white" stroke-width="1.33745"/>
<rect x="-0.940133" y="0.102645" width="138.378" height="16.626" rx="8.31301" transform="matrix(-0.779676 -0.626183 -0.626183 0.779676 231.961 493.549)" fill="black" stroke="white" stroke-width="1.33745"/>
<circle r="22.2846" transform="matrix(-0.779676 -0.626183 -0.626183 0.779676 236.508 507.992)" fill="black" stroke="white" stroke-width="1.33745"/>
<rect x="-0.940133" y="0.102645" width="138.378" height="16.626" rx="8.31301" transform="matrix(-0.779676 -0.626183 -0.626183 0.779676 202.809 529.793)" fill="black" stroke="white" stroke-width="1.33745"/>
<circle r="22.2846" transform="matrix(-0.779676 -0.626183 -0.626183 0.779676 198.801 537.338)" fill="black" stroke="white" stroke-width="1.33745"/>
<circle r="22.2846" transform="matrix(0.779676 0.626183 0.626183 -0.779676 268.191 468.686)" fill="black" stroke="white" stroke-width="1.33745"/>
<circle r="22.2846" transform="matrix(0.779676 0.626183 0.626183 -0.779676 288.464 425.282)" fill="black" stroke="white" stroke-width="1.33745"/>
<circle r="22.2846" transform="matrix(0.779676 0.626183 0.626183 -0.779676 299.328 368.579)" fill="black" stroke="white" stroke-width="1.33745"/>
<rect x="0.940133" y="-0.102645" width="81.6792" height="16.626" rx="8.31301" transform="matrix(0.779676 0.626183 0.626183 -0.779676 225.982 320.272)" fill="black" stroke="white" stroke-width="1.33745"/>
<circle r="22.2846" transform="matrix(0.779676 0.626183 0.626183 -0.779676 235.793 317.73)" fill="black" stroke="white" stroke-width="1.33745"/>
<rect x="0.940133" y="-0.102645" width="138.378" height="16.626" rx="8.31301" transform="matrix(0.779676 0.626183 0.626183 -0.779676 146.904 381.804)" fill="black" stroke="white" stroke-width="1.33745"/>
<circle r="22.2846" transform="matrix(0.779676 0.626183 0.626183 -0.779676 143.699 368.701)" fill="black" stroke="white" stroke-width="1.33745"/>
<rect x="0.940133" y="-0.102645" width="138.378" height="16.626" rx="8.31301" transform="matrix(0.779676 0.626183 0.626183 -0.779676 176.057 345.562)" fill="black" stroke="white" stroke-width="1.33745"/>
<circle r="22.2846" transform="matrix(0.779676 0.626183 0.626183 -0.779676 181.406 339.352)" fill="black" stroke="white" stroke-width="1.33745"/>
</svg>
