<svg width="670" height="538" viewBox="0 0 670 538" fill="none" xmlns="http://www.w3.org/2000/svg">
<path fill-rule="evenodd" clip-rule="evenodd" d="M668.991 1C636.393 17.6699 585.861 40.1897 529.479 59.0154C466.573 80.0195 397.634 95.9966 338.647 94.8475C333.164 94.7407 327.72 94.6291 322.318 94.5184L322.31 94.5183C252.762 93.0926 190.217 91.8106 140.639 102.694C113.55 108.64 89.3025 118.391 69.3577 134.439C49.2516 150.617 34.3857 172.499 25.0842 201.224C11.1063 244.391 17.2064 275.925 26.7582 301.73C29.0754 307.991 31.5788 313.877 33.9243 319.304C34.2721 320.109 34.615 320.9 34.9529 321.68L34.9941 321.775L34.9948 321.777C36.9661 326.327 38.7676 330.485 40.3876 334.597C44.1923 344.255 46.3547 352.149 46.3547 359.845C46.3547 381.972 38.5017 398.573 29.0026 413.743C26.5948 417.588 24.1191 421.284 21.5952 425.038L21.2137 425.605L21.2098 425.611C18.8527 429.116 16.4205 432.733 14.1816 436.3C9.53448 443.703 4.89288 452.138 2.73889 461.472C-0.955872 477.482 0.422668 500.842 14.9171 517.924C30.6209 536.432 57.2304 542.702 93.5044 532.259C101.465 529.968 106.061 521.656 103.769 513.695C101.478 505.734 93.166 501.138 85.2051 503.43C55.4791 511.988 43.0886 504.757 37.7924 498.515C31.2868 490.848 29.6653 478.207 31.9706 468.218C32.9647 463.91 35.397 458.929 39.5902 452.25C41.5706 449.095 43.7607 445.837 46.2001 442.209L46.2031 442.205L46.4916 441.776C49.0011 438.043 51.7303 433.974 54.4289 429.664C65.3558 412.215 76.3547 389.957 76.3547 359.845C76.3547 346.541 72.5907 334.494 68.2999 323.601C66.4797 318.981 64.4492 314.296 62.4863 309.767L62.4824 309.758C62.1399 308.967 61.7995 308.182 61.4626 307.403C59.1455 302.041 56.9136 296.776 54.8926 291.317C47.0916 270.241 42.1917 245.775 53.6252 210.466C61.3237 186.691 73.0829 169.947 88.1643 157.813C103.407 145.548 122.909 137.3 147.071 131.996C192.989 121.916 251.99 123.107 323.225 124.546C328.113 124.645 333.059 124.744 338.063 124.842C402.075 126.089 474.804 108.899 538.98 87.4711C589.531 70.5926 635.552 50.8185 668.991 34.5238V1Z" fill="black"/>
<path d="M668.991 1H669.491V0.182735L668.764 0.554829L668.991 1ZM529.479 59.0154L529.321 58.5411L529.321 58.5411L529.479 59.0154ZM338.647 94.8475L338.657 94.3476L338.657 94.3476L338.647 94.8475ZM322.318 94.5184L322.329 94.0185L322.328 94.0185L322.318 94.5184ZM322.31 94.5183L322.3 95.0182L322.3 95.0182L322.31 94.5183ZM140.639 102.694L140.531 102.205L140.531 102.205L140.639 102.694ZM69.3577 134.439L69.0442 134.05L69.0442 134.05L69.3577 134.439ZM25.0842 201.224L24.6085 201.07L24.6085 201.07L25.0842 201.224ZM26.7582 301.73L27.2271 301.557L27.2271 301.557L26.7582 301.73ZM33.9243 319.304L34.3833 319.105L34.3833 319.105L33.9243 319.304ZM34.9529 321.68L35.4117 321.481L35.4117 321.481L34.9529 321.68ZM34.9941 321.775L34.5353 321.974L34.5372 321.978L34.9941 321.775ZM34.9948 321.777L35.4536 321.578L35.4517 321.574L34.9948 321.777ZM40.3876 334.597L39.9224 334.78L39.9224 334.78L40.3876 334.597ZM29.0026 413.743L28.5789 413.477L28.5789 413.477L29.0026 413.743ZM21.5952 425.038L22.0101 425.317L22.0102 425.317L21.5952 425.038ZM21.2137 425.605L21.6278 425.885L21.6286 425.884L21.2137 425.605ZM21.2098 425.611L20.7957 425.33L20.7949 425.332L21.2098 425.611ZM14.1816 436.3L14.6051 436.566L14.6051 436.566L14.1816 436.3ZM2.73889 461.472L3.22609 461.584L3.22609 461.584L2.73889 461.472ZM14.9171 517.924L15.2984 517.601L15.2984 517.601L14.9171 517.924ZM93.5044 532.259L93.6427 532.74L93.6427 532.74L93.5044 532.259ZM103.769 513.695L104.25 513.557L104.25 513.557L103.769 513.695ZM85.2051 503.43L85.3434 503.911L85.3434 503.911L85.2051 503.43ZM37.7924 498.515L37.4111 498.839L37.4111 498.839L37.7924 498.515ZM31.9706 468.218L31.4834 468.105L31.4834 468.105L31.9706 468.218ZM39.5902 452.25L39.1667 451.984L39.1667 451.984L39.5902 452.25ZM46.2001 442.209L45.7861 441.929L45.7852 441.93L46.2001 442.209ZM46.2031 442.205L46.6171 442.485L46.618 442.484L46.2031 442.205ZM46.4916 441.776L46.9066 442.055L46.9066 442.055L46.4916 441.776ZM54.4289 429.664L54.0051 429.399L54.0051 429.399L54.4289 429.664ZM68.2999 323.601L67.8347 323.785L67.8347 323.785L68.2999 323.601ZM62.4863 309.767L62.945 309.568L62.9448 309.567L62.4863 309.767ZM62.4824 309.758L62.0236 309.956L62.0239 309.957L62.4824 309.758ZM61.4626 307.403L61.0037 307.601L61.0037 307.601L61.4626 307.403ZM54.8926 291.317L54.4237 291.49L54.4237 291.49L54.8926 291.317ZM53.6252 210.466L54.1009 210.62L54.1009 210.62L53.6252 210.466ZM88.1643 157.813L88.4777 158.202L88.4778 158.202L88.1643 157.813ZM147.071 131.996L147.178 132.484L147.178 132.484L147.071 131.996ZM323.225 124.546L323.235 124.046L323.235 124.046L323.225 124.546ZM338.063 124.842L338.072 124.342L338.072 124.342L338.063 124.842ZM538.98 87.4711L538.822 86.9968L538.822 86.9968L538.98 87.4711ZM668.991 34.5238L669.21 34.9733L669.491 34.8364V34.5238H668.991ZM668.764 0.554829C636.185 17.2143 585.677 39.7241 529.321 58.5411L529.637 59.4896C586.045 40.6554 636.6 18.1254 669.219 1.44517L668.764 0.554829ZM529.321 58.5411C466.435 79.5382 397.56 95.4951 338.657 94.3476L338.637 95.3474C397.708 96.4982 466.71 80.5009 529.637 59.4896L529.321 58.5411ZM338.657 94.3476C333.174 94.2408 327.73 94.1292 322.329 94.0185L322.308 95.0183C327.71 95.129 333.154 95.2406 338.637 95.3474L338.657 94.3476ZM322.328 94.0185L322.32 94.0184L322.3 95.0182L322.308 95.0183L322.328 94.0185ZM322.321 94.0184C252.793 92.5932 190.18 91.3067 140.531 102.205L140.746 103.182C190.253 92.3145 252.731 93.5921 322.3 95.0182L322.321 94.0184ZM140.531 102.205C113.395 108.162 89.0674 117.939 69.0442 134.05L69.6711 134.829C89.5376 118.844 113.706 109.117 140.746 103.182L140.531 102.205ZM69.0442 134.05C48.8544 150.295 33.9368 172.262 24.6085 201.07L25.5599 201.378C34.8347 172.735 49.6488 150.939 69.6711 134.829L69.0442 134.05ZM24.6085 201.07C10.5881 244.368 16.7083 276.02 26.2893 301.904L27.2271 301.557C17.7044 275.83 11.6244 244.414 25.5599 201.378L24.6085 201.07ZM26.2893 301.904C28.6115 308.178 31.1193 314.074 33.4653 319.502L34.3833 319.105C32.0383 313.679 29.5394 307.804 27.2271 301.557L26.2893 301.904ZM33.4653 319.502C33.8132 320.307 34.1562 321.099 34.4941 321.879L35.4117 321.481C35.0738 320.701 34.731 319.91 34.3833 319.105L33.4653 319.502ZM34.4941 321.879L34.5353 321.974L35.4529 321.576L35.4117 321.481L34.4941 321.879ZM34.5372 321.978L34.5379 321.98L35.4517 321.574L35.451 321.572L34.5372 321.978ZM34.536 321.975C36.508 326.527 38.306 330.677 39.9224 334.78L40.8528 334.414C39.2292 330.292 37.4242 326.126 35.4536 321.578L34.536 321.975ZM39.9224 334.78C43.7191 344.418 45.8547 352.242 45.8547 359.845H46.8547C46.8547 352.055 44.6655 344.092 40.8528 334.414L39.9224 334.78ZM45.8547 359.845C45.8547 381.839 38.0541 398.346 28.5789 413.477L29.4264 414.008C38.9493 398.8 46.8547 382.105 46.8547 359.845H45.8547ZM28.5789 413.477C26.1759 417.315 23.7044 421.004 21.1803 424.759L22.0102 425.317C24.5338 421.563 27.0137 417.861 29.4264 414.008L28.5789 413.477ZM21.1803 424.759L20.7988 425.326L21.6286 425.884L22.0101 425.317L21.1803 424.759ZM20.7995 425.325L20.7957 425.33L21.624 425.891L21.6278 425.885L20.7995 425.325ZM20.7949 425.332C18.4386 428.836 16.0019 432.459 13.7581 436.034L14.6051 436.566C16.8391 433.007 19.2668 429.396 21.6248 425.89L20.7949 425.332ZM13.7581 436.034C9.10326 443.449 4.42498 451.942 2.2517 461.359L3.22609 461.584C5.36079 452.334 9.96571 443.956 14.6051 436.566L13.7581 436.034ZM2.2517 461.359C-1.466 477.469 -0.0922255 501.008 14.5359 518.248L15.2984 517.601C0.937562 500.676 -0.445744 477.495 3.22609 461.584L2.2517 461.359ZM14.5359 518.248C30.4142 536.962 57.2618 543.213 93.6427 532.74L93.3661 531.779C57.199 542.191 30.8276 535.903 15.2984 517.601L14.5359 518.248ZM93.6427 532.74C101.869 530.372 106.618 521.783 104.25 513.557L103.289 513.833C105.504 521.529 101.062 529.563 93.3661 531.779L93.6427 532.74ZM104.25 513.557C101.882 505.33 93.2931 500.581 85.0668 502.95L85.3434 503.911C93.039 501.695 101.073 506.138 103.289 513.833L104.25 513.557ZM85.0668 502.95C70.2535 507.214 59.8096 507.53 52.4371 506.032C45.076 504.537 40.7521 501.23 38.1736 498.192L37.4111 498.839C40.1288 502.042 44.6483 505.471 52.238 507.012C59.8163 508.551 70.4306 508.204 85.3434 503.911L85.0668 502.95ZM38.1736 498.192C31.8003 490.68 30.1761 478.217 32.4578 468.33L31.4834 468.105C29.1546 478.197 30.7733 491.015 37.4111 498.839L38.1736 498.192ZM32.4578 468.33C33.4325 464.107 35.8278 459.184 40.0137 452.515L39.1667 451.984C34.9663 458.675 32.4969 463.714 31.4834 468.105L32.4578 468.33ZM40.0137 452.515C41.9891 449.369 44.1746 446.118 46.615 442.488L45.7852 441.93C43.3468 445.557 41.1521 448.821 39.1667 451.984L40.0137 452.515ZM46.6141 442.49L46.6171 442.485L45.789 441.925L45.7861 441.929L46.6141 442.49ZM46.618 442.484L46.9066 442.055L46.0767 441.497L45.7881 441.926L46.618 442.484ZM46.9066 442.055C49.4158 438.322 52.1492 434.247 54.8527 429.93L54.0051 429.399C51.3114 433.701 48.5864 437.764 46.0767 441.497L46.9066 442.055ZM54.8527 429.93C65.8033 412.442 76.8547 390.09 76.8547 359.845H75.8547C75.8547 389.824 64.9082 411.987 54.0051 429.399L54.8527 429.93ZM76.8547 359.845C76.8547 346.447 73.0641 334.331 68.7651 323.418L67.8347 323.785C72.1173 334.656 75.8547 346.634 75.8547 359.845H76.8547ZM68.7651 323.418C66.9413 318.788 64.9073 314.095 62.945 309.568L62.0275 309.965C63.991 314.496 66.0181 319.173 67.8347 323.785L68.7651 323.418ZM62.9448 309.567L62.9409 309.558L62.0239 309.957L62.0278 309.966L62.9448 309.567ZM62.9411 309.559C62.5986 308.769 62.2583 307.983 61.9216 307.204L61.0037 307.601C61.3406 308.381 61.6811 309.166 62.0236 309.956L62.9411 309.559ZM61.9216 307.204C59.6049 301.844 57.3775 296.589 55.3615 291.143L54.4237 291.49C56.4496 296.963 58.6861 302.238 61.0037 307.601L61.9216 307.204ZM55.3615 291.143C47.5897 270.146 42.7097 245.798 54.1009 210.62L53.1496 210.312C41.6736 245.752 46.5934 270.336 54.4237 291.49L55.3615 291.143ZM54.1009 210.62C61.7727 186.927 73.48 170.27 88.4777 158.202L87.8509 157.423C72.6857 169.625 60.8748 186.454 53.1496 210.312L54.1009 210.62ZM88.4778 158.202C103.642 146.001 123.065 137.777 147.178 132.484L146.964 131.507C122.753 136.822 103.172 145.095 87.8509 157.423L88.4778 158.202ZM147.178 132.484C193.025 122.42 251.957 123.607 323.215 125.046L323.235 124.046C252.023 122.608 192.953 121.412 146.964 131.507L147.178 132.484ZM323.215 125.046C328.103 125.144 333.049 125.244 338.053 125.342L338.072 124.342C333.069 124.244 328.123 124.145 323.235 124.046L323.215 125.046ZM338.053 125.342C402.149 126.59 474.941 109.381 539.139 87.9454L538.822 86.9968C474.666 108.418 402.001 125.587 338.072 124.342L338.053 125.342ZM539.139 87.9454C589.712 71.0591 635.753 51.2763 669.21 34.9733L668.772 34.0744C635.35 50.3606 589.349 70.1261 538.822 86.9968L539.139 87.9454ZM669.491 34.5238V1H668.491V34.5238H669.491Z" fill="white"/>
</svg>
