<svg width="676" height="542" viewBox="0 0 676 542" fill="none" xmlns="http://www.w3.org/2000/svg">
<circle cx="592" cy="521" r="19.5" fill="black" stroke="white"/>
<path fill-rule="evenodd" clip-rule="evenodd" d="M1 34.6886C34.8356 51.5323 83.5359 72.7932 137.374 90.7696C201.551 112.198 274.279 129.387 338.292 128.14C343.296 128.043 348.242 127.943 353.13 127.844C424.365 126.406 483.365 125.215 529.284 135.294C553.446 140.598 572.948 148.847 588.19 161.111C603.272 173.246 615.031 189.989 622.729 213.764C634.163 249.074 629.263 273.539 621.462 294.615C619.441 300.075 617.209 305.339 614.892 310.701C614.727 311.083 614.561 311.467 614.394 311.851C614.221 312.251 614.047 312.653 613.872 313.056L613.869 313.065C611.906 317.594 609.875 322.279 608.055 326.9C603.764 337.792 600 349.839 600 363.143C600 393.256 610.999 415.513 621.926 432.963C624.624 437.273 627.354 441.342 629.863 445.074L630.152 445.503L630.155 445.508C632.594 449.136 634.784 452.393 636.765 455.548C640.958 462.228 643.39 467.209 644.384 471.516C646.689 481.506 645.068 494.146 638.562 501.814C633.266 508.055 620.876 515.286 591.15 506.729C583.189 504.437 574.877 509.033 572.585 516.994C570.294 524.954 574.889 533.266 582.85 535.558C619.124 546 645.734 539.731 661.438 521.223C675.932 504.14 677.311 480.781 673.616 464.77C671.462 455.436 666.82 447.001 662.173 439.598C659.933 436.03 657.499 432.411 655.141 428.903L654.76 428.336C652.236 424.582 649.76 420.886 647.352 417.041C637.853 401.872 630 385.27 630 363.143C630 355.447 632.162 347.554 635.967 337.896C637.587 333.783 639.389 329.625 641.36 325.075L641.361 325.074C641.712 324.263 642.068 323.44 642.43 322.602C644.776 317.175 647.279 311.289 649.597 305.029C659.148 279.224 665.248 247.689 651.271 204.522C641.969 175.797 627.103 153.916 606.997 137.738C587.052 121.69 562.804 111.938 535.716 105.992C486.138 95.1091 423.593 96.3911 354.044 97.8167L354.036 97.8169C348.635 97.9276 343.191 98.0392 337.708 98.146C278.721 99.2951 209.782 83.318 146.876 62.3139C86.6809 42.2152 33.1548 17.9059 1 1V34.6886Z" fill="black"/>
<path d="M137.374 90.7696L137.216 91.2438L137.216 91.2438L137.374 90.7696ZM1 34.6886H0.5V34.9983L0.777178 35.1362L1 34.6886ZM338.292 128.14L338.282 127.64L338.282 127.64L338.292 128.14ZM353.13 127.844L353.12 127.344L353.12 127.344L353.13 127.844ZM529.284 135.294L529.177 135.783L529.177 135.783L529.284 135.294ZM588.19 161.111L587.877 161.501L587.877 161.501L588.19 161.111ZM622.729 213.764L622.254 213.918L622.254 213.918L622.729 213.764ZM621.462 294.615L621.931 294.789L621.931 294.789L621.462 294.615ZM614.892 310.701L615.351 310.899L615.351 310.899L614.892 310.701ZM614.394 311.851L613.936 311.652L613.936 311.653L614.394 311.851ZM613.872 313.056L613.414 312.857L613.413 312.859L613.872 313.056ZM613.869 313.065L614.327 313.264L614.328 313.262L613.869 313.065ZM608.055 326.9L608.52 327.083L608.52 327.083L608.055 326.9ZM621.926 432.963L622.35 432.698L622.35 432.698L621.926 432.963ZM629.863 445.074L629.448 445.353L629.448 445.353L629.863 445.074ZM630.152 445.503L630.568 445.226L630.567 445.224L630.152 445.503ZM630.155 445.508L629.739 445.785L629.74 445.787L630.155 445.508ZM636.765 455.548L637.188 455.282L637.188 455.282L636.765 455.548ZM644.384 471.516L644.871 471.404L644.871 471.404L644.384 471.516ZM638.562 501.814L638.944 502.137L638.944 502.137L638.562 501.814ZM591.15 506.729L591.011 507.209L591.011 507.209L591.15 506.729ZM572.585 516.994L572.105 516.855L572.105 516.855L572.585 516.994ZM582.85 535.558L582.712 536.038L582.712 536.038L582.85 535.558ZM661.438 521.223L661.056 520.899L661.056 520.899L661.438 521.223ZM673.616 464.77L673.129 464.883L673.129 464.883L673.616 464.77ZM662.173 439.598L661.75 439.864L661.75 439.864L662.173 439.598ZM655.141 428.903L654.726 429.182L654.726 429.182L655.141 428.903ZM654.76 428.336L654.345 428.615L654.345 428.615L654.76 428.336ZM647.352 417.041L647.776 416.776L647.776 416.776L647.352 417.041ZM635.967 337.896L636.432 338.079L636.432 338.079L635.967 337.896ZM641.36 325.075L640.903 324.872L640.901 324.876L641.36 325.075ZM641.361 325.074L641.818 325.277L641.819 325.272L641.361 325.074ZM642.43 322.602L641.971 322.404L641.971 322.404L642.43 322.602ZM649.597 305.029L649.128 304.855L649.128 304.855L649.597 305.029ZM651.271 204.522L651.746 204.368L651.746 204.368L651.271 204.522ZM606.997 137.738L607.311 137.348L607.311 137.348L606.997 137.738ZM535.716 105.992L535.823 105.504L535.823 105.504L535.716 105.992ZM354.044 97.8167L354.054 98.3166L354.055 98.3166L354.044 97.8167ZM354.036 97.8169L354.026 97.317L354.026 97.317L354.036 97.8169ZM337.708 98.146L337.698 97.6461L337.698 97.6461L337.708 98.146ZM146.876 62.3139L146.717 62.7881L146.876 62.3139ZM1 1L1.23268 0.55744L0.5 0.172223V1H1ZM137.533 90.2953C83.7187 72.3271 35.0399 51.0755 1.22282 34.241L0.777178 35.1362C34.6313 51.9891 83.3531 73.2593 137.216 91.2438L137.533 90.2953ZM338.282 127.64C274.353 128.886 201.688 111.716 137.533 90.2953L137.216 91.2438C201.414 112.679 274.205 129.889 338.302 128.64L338.282 127.64ZM353.12 127.344C348.231 127.443 343.286 127.543 338.282 127.64L338.302 128.64C343.305 128.543 348.252 128.443 353.14 128.344L353.12 127.344ZM529.391 134.806C483.401 124.711 424.332 125.907 353.12 127.344L353.14 128.344C424.398 126.905 483.329 125.719 529.177 135.783L529.391 134.806ZM588.504 160.722C573.183 148.394 553.602 140.12 529.391 134.806L529.177 135.783C553.29 141.076 572.713 149.299 587.877 161.501L588.504 160.722ZM623.205 213.61C615.48 189.753 603.669 172.924 588.504 160.722L587.877 161.501C602.875 173.568 614.582 190.226 622.254 213.918L623.205 213.61ZM621.931 294.789C629.761 273.634 634.681 249.051 623.205 213.61L622.254 213.918C633.645 249.097 628.765 273.445 620.993 294.441L621.931 294.789ZM615.351 310.899C617.669 305.537 619.905 300.262 621.931 294.789L620.993 294.441C618.977 299.888 616.75 305.142 614.433 310.503L615.351 310.899ZM614.853 312.05C615.02 311.665 615.186 311.282 615.351 310.899L614.433 310.503C614.268 310.885 614.102 311.268 613.936 311.652L614.853 312.05ZM614.331 313.255C614.506 312.852 614.68 312.45 614.853 312.05L613.936 311.653C613.762 312.053 613.588 312.454 613.414 312.857L614.331 313.255ZM614.328 313.262L614.332 313.253L613.413 312.859L613.409 312.868L614.328 313.262ZM608.52 327.083C610.337 322.472 612.364 317.794 614.327 313.264L613.41 312.866C611.447 317.394 609.413 322.087 607.59 326.717L608.52 327.083ZM600.5 363.143C600.5 349.933 604.237 337.955 608.52 327.083L607.59 326.717C603.291 337.63 599.5 349.746 599.5 363.143H600.5ZM622.35 432.698C611.447 415.286 600.5 393.123 600.5 363.143H599.5C599.5 393.389 610.551 415.741 621.502 433.228L622.35 432.698ZM630.278 444.795C627.768 441.062 625.043 436.999 622.35 432.698L621.502 433.228C624.206 437.546 626.939 441.621 629.448 445.353L630.278 444.795ZM630.567 445.224L630.278 444.795L629.448 445.353L629.737 445.782L630.567 445.224ZM630.571 445.23L630.568 445.226L629.736 445.781L629.739 445.785L630.571 445.23ZM637.188 455.282C635.203 452.12 633.008 448.855 630.57 445.229L629.74 445.787C632.18 449.416 634.366 452.667 636.341 455.814L637.188 455.282ZM644.871 471.404C643.858 467.012 641.388 461.974 637.188 455.282L636.341 455.814C640.527 462.482 642.922 467.405 643.897 471.628L644.871 471.404ZM638.944 502.137C645.581 494.314 647.2 481.495 644.871 471.404L643.897 471.628C646.179 481.516 644.554 493.979 638.181 501.49L638.944 502.137ZM591.011 507.209C605.924 511.502 616.538 511.85 624.117 510.311C631.706 508.769 636.226 505.34 638.944 502.137L638.181 501.49C635.603 504.529 631.279 507.836 623.918 509.331C616.545 510.828 606.101 510.513 591.288 506.248L591.011 507.209ZM573.066 517.132C575.281 509.436 583.316 504.994 591.011 507.209L591.288 506.248C583.062 503.88 574.473 508.629 572.105 516.855L573.066 517.132ZM582.989 535.077C575.293 532.862 570.851 524.827 573.066 517.132L572.105 516.855C569.737 525.081 574.486 533.67 582.712 536.038L582.989 535.077ZM661.056 520.899C645.527 539.202 619.156 545.489 582.989 535.077L582.712 536.038C619.093 546.512 645.941 540.26 661.819 521.546L661.056 520.899ZM673.129 464.883C676.8 480.794 675.417 503.974 661.056 520.899L661.819 521.546C676.447 504.306 677.821 480.768 674.103 464.658L673.129 464.883ZM661.75 439.864C666.389 447.255 670.994 455.632 673.129 464.883L674.103 464.658C671.93 455.24 667.251 446.748 662.597 439.332L661.75 439.864ZM654.726 429.182C657.085 432.691 659.514 436.303 661.75 439.864L662.597 439.332C660.352 435.756 657.914 432.13 655.556 428.624L654.726 429.182ZM654.345 428.615L654.726 429.182L655.556 428.624L655.174 428.057L654.345 428.615ZM646.928 417.306C649.341 421.159 651.821 424.861 654.345 428.615L655.174 428.057C652.65 424.303 650.179 420.613 647.776 416.776L646.928 417.306ZM629.5 363.143C629.5 385.403 637.405 402.099 646.928 417.306L647.776 416.776C638.301 401.644 630.5 385.137 630.5 363.143H629.5ZM635.502 337.712C631.689 347.391 629.5 355.354 629.5 363.143H630.5C630.5 355.541 632.636 347.717 636.432 338.079L635.502 337.712ZM640.901 324.876C638.93 329.425 637.126 333.591 635.502 337.712L636.432 338.079C638.049 333.976 639.847 329.826 641.819 325.274L640.901 324.876ZM640.904 324.87L640.903 324.872L641.817 325.278L641.818 325.277L640.904 324.87ZM641.971 322.404C641.61 323.241 641.253 324.064 640.902 324.875L641.819 325.272C642.171 324.462 642.527 323.638 642.889 322.801L641.971 322.404ZM649.128 304.855C646.815 311.103 644.316 316.978 641.971 322.404L642.889 322.801C645.235 317.372 647.743 311.476 650.065 305.203L649.128 304.855ZM650.795 204.676C664.73 247.712 658.65 279.129 649.128 304.855L650.065 305.203C659.646 279.319 665.767 247.666 651.746 204.368L650.795 204.676ZM606.684 138.127C626.706 154.238 641.52 176.034 650.795 204.676L651.746 204.368C642.418 175.561 627.5 153.593 607.311 137.348L606.684 138.127ZM535.609 106.48C562.648 112.416 586.817 122.142 606.684 138.127L607.311 137.348C587.287 121.237 562.96 111.461 535.823 105.504L535.609 106.48ZM354.055 98.3166C423.624 96.8906 486.102 95.613 535.609 106.48L535.823 105.504C486.175 94.6051 423.562 95.8917 354.034 97.3168L354.055 98.3166ZM354.046 98.3168L354.054 98.3166L354.034 97.3168L354.026 97.317L354.046 98.3168ZM337.718 98.6459C343.201 98.5391 348.645 98.4275 354.047 98.3168L354.026 97.317C348.625 97.4277 343.181 97.5393 337.698 97.6461L337.718 98.6459ZM146.717 62.7881C209.645 83.7993 278.647 99.7967 337.718 98.6459L337.698 97.6461C278.795 98.7936 209.919 82.8367 147.034 61.8396L146.717 62.7881ZM0.767318 1.44256C32.9446 18.3602 86.4955 42.6804 146.717 62.7881L147.034 61.8396C86.8664 41.75 33.3651 17.4515 1.23268 0.55744L0.767318 1.44256ZM0.5 1V34.6886H1.5V1H0.5Z" fill="white"/>
</svg>
