<svg width="346" height="369" viewBox="0 0 346 369" fill="none" xmlns="http://www.w3.org/2000/svg">
<mask id="path-1-inside-1_1158_4716" fill="white">
<path fill-rule="evenodd" clip-rule="evenodd" d="M190.03 268.024C206.849 264.076 221.634 255.592 232.509 242.489C243.384 229.386 248.999 213.291 249.781 196.034C245.298 176.576 233.159 156.757 214.452 141.231C177.208 110.319 128.034 108.131 104.618 136.344C81.203 164.556 92.4136 212.485 129.658 243.397C148.364 258.923 170.08 267.202 190.03 268.024Z"/>
</mask>
<path fill-rule="evenodd" clip-rule="evenodd" d="M190.03 268.024C206.849 264.076 221.634 255.592 232.509 242.489C243.384 229.386 248.999 213.291 249.781 196.034C245.298 176.576 233.159 156.757 214.452 141.231C177.208 110.319 128.034 108.131 104.618 136.344C81.203 164.556 92.4136 212.485 129.658 243.397C148.364 258.923 170.08 267.202 190.03 268.024Z" fill="black"/>
<path d="M190.03 268.024L189.989 269.023L190.126 269.028L190.259 268.997L190.03 268.024ZM249.781 196.034L250.78 196.079L250.786 195.942L250.755 195.809L249.781 196.034ZM231.74 241.85C221.02 254.767 206.434 263.147 189.802 267.05L190.259 268.997C207.264 265.006 222.249 256.417 233.279 243.128L231.74 241.85ZM248.782 195.988C248.009 213.055 242.46 228.934 231.74 241.85L233.279 243.128C244.309 229.838 249.99 213.528 250.78 196.079L248.782 195.988ZM213.814 142.001C232.368 157.4 244.377 177.033 248.806 196.258L250.755 195.809C246.219 176.119 233.95 156.114 215.091 140.462L213.814 142.001ZM105.388 136.982C116.852 123.169 134.667 116.741 154.305 117.615C173.944 118.489 195.344 126.671 213.814 142.001L215.091 140.462C196.317 124.879 174.507 116.512 154.394 115.617C134.28 114.722 115.8 121.305 103.849 135.705L105.388 136.982ZM130.297 242.627C111.827 227.298 99.8417 207.772 95.3645 188.63C90.8875 169.489 93.9236 150.795 105.388 136.982L103.849 135.705C91.8978 150.104 88.8315 169.481 93.417 189.086C98.0024 208.69 110.245 228.584 129.019 244.166L130.297 242.627ZM190.072 267.025C170.36 266.213 148.85 258.026 130.297 242.627L129.019 244.166C147.878 259.819 169.8 268.192 189.989 269.023L190.072 267.025Z" fill="white" mask="url(#path-1-inside-1_1158_4716)"/>
<path d="M113.065 139.629C140.038 112.364 207.09 128.416 230.426 178.072" stroke="white" stroke-dasharray="200 30 50 20"/>
<path d="M188.403 256.746C186.925 255.519 186.117 253.539 185.995 250.912C185.873 248.284 186.442 245.064 187.657 241.455C190.086 234.24 195.063 225.575 202.025 217.187C208.987 208.799 216.587 202.311 223.23 198.594C226.553 196.735 229.613 195.583 232.219 195.219C234.824 194.854 236.919 195.283 238.397 196.51C239.876 197.737 240.683 199.718 240.805 202.345C240.927 204.973 240.358 208.193 239.143 211.802C236.714 219.016 231.737 227.681 224.775 236.07C217.814 244.458 210.214 250.946 203.57 254.662C200.247 256.522 197.187 257.674 194.582 258.038C191.977 258.402 189.882 257.973 188.403 256.746Z" fill="black" stroke="white"/>
<path d="M187.278 150.419C189.521 153.567 195.558 159.865 201.773 159.876" stroke="white"/>
<path fill-rule="evenodd" clip-rule="evenodd" d="M189.34 152.947L262.921 46.7978C265.129 43.612 269.592 43.0014 272.575 45.4771C275.246 47.6942 275.748 51.5999 273.723 54.4196L198.268 159.48C194.961 157.775 191.883 155.355 189.34 152.947ZM127.76 241.786L74.0379 319.286C72.9027 320.924 73.2083 323.158 74.7416 324.43C76.4553 325.853 79.0154 325.524 80.3146 323.715L134.999 247.574C133.196 246.246 131.416 244.854 129.662 243.399C129.02 242.866 128.386 242.328 127.76 241.786Z" fill="black"/>
<path d="M262.921 46.7978L262.51 46.513L262.921 46.7978ZM189.34 152.947L188.929 152.663L188.685 153.015L188.997 153.31L189.34 152.947ZM273.723 54.4196L273.316 54.1279L273.723 54.4196ZM198.268 159.48L198.039 159.925L198.422 160.122L198.674 159.772L198.268 159.48ZM127.76 241.786L128.087 241.408L127.666 241.043L127.349 241.501L127.76 241.786ZM74.0379 319.286L73.627 319.002L74.0379 319.286ZM80.3146 323.715L80.7207 324.007L80.3146 323.715ZM134.999 247.574L135.405 247.866L135.693 247.465L135.296 247.172L134.999 247.574ZM262.51 46.513L188.929 152.663L189.751 153.232L263.332 47.0826L262.51 46.513ZM272.894 45.0923C269.686 42.4294 264.885 43.0862 262.51 46.513L263.332 47.0826C265.373 44.1378 269.499 43.5734 272.256 45.8618L272.894 45.0923ZM274.129 54.7112C276.307 51.6783 275.768 47.4771 272.894 45.0923L272.256 45.8618C274.725 47.9112 275.188 51.5215 273.316 54.1279L274.129 54.7112ZM198.674 159.772L274.129 54.7112L273.316 54.1279L197.862 159.189L198.674 159.772ZM198.497 159.036C195.244 157.359 192.205 154.972 189.684 152.584L188.997 153.31C191.561 155.739 194.677 158.191 198.039 159.925L198.497 159.036ZM127.349 241.501L73.627 319.002L74.4488 319.571L128.171 242.07L127.349 241.501ZM73.627 319.002C72.3441 320.852 72.6894 323.377 74.4223 324.815L75.0609 324.046C73.7272 322.939 73.4614 320.996 74.4488 319.571L73.627 319.002ZM74.4223 324.815C76.359 326.423 79.2524 326.051 80.7207 324.007L79.9084 323.424C78.7784 324.997 76.5515 325.283 75.0609 324.046L74.4223 324.815ZM80.7207 324.007L135.405 247.866L134.593 247.283L79.9084 323.424L80.7207 324.007ZM129.343 243.783C131.104 245.245 132.892 246.643 134.702 247.977L135.296 247.172C133.5 245.849 131.728 244.463 129.981 243.014L129.343 243.783ZM127.432 242.163C128.061 242.708 128.698 243.248 129.343 243.783L129.981 243.014C129.342 242.483 128.711 241.948 128.087 241.408L127.432 242.163Z" fill="white"/>
</svg>
