<svg width="219" height="288" viewBox="0 0 219 288" fill="none" xmlns="http://www.w3.org/2000/svg">
<path d="M95.2977 214.064L118.871 227.109L106.845 248.842L94.8176 242.187L91.0378 249.017L103.065 255.672L90.6946 278.026L67.121 264.981L70.8889 258.172L58.9194 251.548L79.5365 214.292L91.506 220.916L95.2977 214.064Z" fill="#ECE3CE"/>
<path d="M95.2977 214.064L118.871 227.109L106.845 248.842L94.8176 242.187L91.0378 249.017L103.065 255.672L90.6946 278.026L67.121 264.981L70.8889 258.172L58.9194 251.548L79.5365 214.292L91.506 220.916L95.2977 214.064Z" stroke="black"/>
<path d="M95.2977 214.064L118.871 227.109L106.845 248.842L94.8176 242.187L91.0378 249.017L103.065 255.672L90.6946 278.026L67.121 264.981L70.8889 258.172L58.9194 251.548L79.5365 214.292L91.506 220.916L95.2977 214.064Z" stroke="black" stroke-opacity="0.2"/>
<path fill-rule="evenodd" clip-rule="evenodd" d="M137.853 108.91C158.627 115.259 181.715 106.471 192.654 86.7038C205.218 63.9992 196.998 35.4081 174.294 22.8437C151.589 10.2792 122.998 18.4994 110.434 41.2039C99.4946 60.9715 104.311 85.2012 120.724 99.431L37.287 250.205C34.6694 254.935 36.3819 260.892 41.112 263.51C45.8421 266.127 51.7986 264.415 54.4162 259.684L137.853 108.91ZM175.525 77.2246C168.196 90.4689 151.517 95.264 138.273 87.9348C125.029 80.6055 120.234 63.9274 127.563 50.6831C134.892 37.4388 151.57 32.6437 164.815 39.9729C178.059 47.3022 182.854 63.9803 175.525 77.2246Z" fill="black" stroke="white"/>
</svg>
