<svg width="687" height="452" viewBox="0 0 687 452" fill="none" xmlns="http://www.w3.org/2000/svg">
<circle cx="97" cy="432" r="19.5" fill="black" stroke="white"/>
<path fill-rule="evenodd" clip-rule="evenodd" d="M686 31.4304C667.941 37.5596 646.648 48.3563 624.257 60.2786C616.574 64.3697 608.663 68.6509 600.548 73.043L600.54 73.0475C576.975 85.8009 551.686 99.4879 525.228 112.163C489.736 129.166 453.116 143.851 417.649 151.357C382.195 158.861 348.846 158.991 319.231 147.971C301.525 141.383 286.844 127.772 272.612 109.849C265.538 100.941 258.842 91.3209 252 81.35C251.257 80.266 250.51 79.1765 249.761 78.0831C243.718 69.2626 237.502 60.1887 231.081 51.703C216.834 32.8735 199.826 14.456 177.008 5.91331C153.239 -2.98482 126.277 -0.13111 94.6658 16.7726C61.9736 34.2543 37.6821 66.7073 31.4527 105.627C25.1665 144.902 37.4655 189.218 74.9383 230.132C91.1129 247.791 91.2157 256.808 90.0317 261.093C88.3712 267.101 82.0596 273.72 68.7209 283.018C65.6317 285.172 62.1392 287.478 58.4335 289.926C48.2387 296.66 36.4304 304.459 26.9665 313.062C13.3475 325.441 1.39061 342.047 1.39063 365.059C1.39063 381.349 6.48449 401.699 22.5584 418.242C38.7636 434.921 64.2811 445.84 101.389 446.706C109.671 446.899 116.542 440.342 116.735 432.06C116.928 423.778 110.371 416.907 102.089 416.714C70.5352 415.978 53.3785 406.912 44.0749 397.337C34.6401 387.626 31.3906 375.451 31.3906 365.059C31.3906 353.796 36.836 344.632 47.1452 335.261C54.7879 328.314 63.4724 322.582 72.9175 316.347L72.918 316.347C77.0967 313.589 81.4242 310.732 85.8764 307.629C98.6411 298.731 114.082 286.689 118.948 269.084C124.29 249.756 115.691 230.209 97.0613 209.869C64.9249 174.782 56.4244 139.429 61.0756 110.369C65.7836 80.9538 84.1663 56.4069 108.812 43.2278C135.201 29.1168 153.021 28.9669 166.489 34.009C180.907 39.4065 193.59 51.8732 207.158 69.8047C213.123 77.688 218.92 86.1483 225.021 95.0522L225.022 95.0531C225.764 96.1367 226.511 97.2269 227.264 98.3234C234.101 108.288 241.324 118.689 249.118 128.505C264.623 148.03 283.474 166.676 308.769 176.088C345.469 189.744 385.017 188.929 423.861 180.707C462.692 172.489 501.768 156.666 538.189 139.219C565.378 126.193 591.631 111.984 615.343 99.1504L615.344 99.1497C623.323 94.8311 631.015 90.6683 638.357 86.7587C657.012 76.8255 672.935 68.8113 686 63.4547V31.4304Z" fill="black"/>
<path d="M686 31.4304H686.5V30.7327L685.839 30.957L686 31.4304ZM624.257 60.2786L624.022 59.8373L624.022 59.8373L624.257 60.2786ZM600.548 73.043L600.785 73.4833L600.786 73.4827L600.548 73.043ZM600.54 73.0475L600.303 72.6072L600.302 72.6078L600.54 73.0475ZM525.228 112.163L525.012 111.712L525.012 111.712L525.228 112.163ZM417.649 151.357L417.545 150.868L417.545 150.868L417.649 151.357ZM319.231 147.971L319.056 148.44L319.056 148.44L319.231 147.971ZM272.612 109.849L273.004 109.538L272.612 109.849ZM252 81.35L251.588 81.6329L251.588 81.6329L252 81.35ZM249.761 78.0831L250.174 77.8006L250.174 77.8006L249.761 78.0831ZM231.081 51.703L230.682 52.0047L230.682 52.0047L231.081 51.703ZM177.008 5.91331L177.183 5.44505L177.183 5.44505L177.008 5.91331ZM94.6658 16.7726L94.9015 17.2135L94.9015 17.2135L94.6658 16.7726ZM31.4527 105.627L31.9464 105.706L31.9464 105.706L31.4527 105.627ZM74.9383 230.132L74.5696 230.469L74.5696 230.469L74.9383 230.132ZM90.0317 261.093L90.5136 261.226L90.5136 261.226L90.0317 261.093ZM68.7209 283.018L69.0068 283.428L69.0068 283.428L68.7209 283.018ZM58.4335 289.926L58.1579 289.509L58.1579 289.509L58.4335 289.926ZM26.9665 313.062L27.3028 313.432L27.3028 313.432L26.9665 313.062ZM1.39063 365.059L0.890625 365.059L0.890625 365.059L1.39063 365.059ZM22.5584 418.242L22.1998 418.591L22.1998 418.591L22.5584 418.242ZM101.389 446.706L101.377 447.206L101.377 447.206L101.389 446.706ZM116.735 432.06L116.235 432.048L116.235 432.048L116.735 432.06ZM102.089 416.714L102.101 416.214L102.101 416.214L102.089 416.714ZM44.0749 397.337L44.4335 396.989L44.4335 396.989L44.0749 397.337ZM31.3906 365.059L30.8906 365.059L30.8906 365.059L31.3906 365.059ZM47.1452 335.261L47.4815 335.631L47.4815 335.631L47.1452 335.261ZM72.9175 316.347L72.6479 315.926L72.642 315.93L72.9175 316.347ZM72.918 316.347L73.1876 316.768L73.1935 316.764L72.918 316.347ZM85.8764 307.629L85.5904 307.219L85.5904 307.219L85.8764 307.629ZM118.948 269.084L119.43 269.217L119.43 269.217L118.948 269.084ZM97.0613 209.869L97.43 209.531L97.43 209.531L97.0613 209.869ZM61.0756 110.369L61.5694 110.448L61.5694 110.448L61.0756 110.369ZM108.812 43.2278L108.577 42.7868L108.577 42.7868L108.812 43.2278ZM166.489 34.009L166.665 33.5407L166.665 33.5407L166.489 34.009ZM207.158 69.8047L206.759 70.1064L206.759 70.1064L207.158 69.8047ZM225.021 95.0522L224.609 95.3349L224.612 95.3397L225.021 95.0522ZM225.022 95.0531L225.434 94.7704L225.431 94.7656L225.022 95.0531ZM227.264 98.3234L226.851 98.6063L226.851 98.6063L227.264 98.3234ZM249.118 128.505L248.727 128.816L248.727 128.816L249.118 128.505ZM308.769 176.088L308.594 176.556L308.594 176.556L308.769 176.088ZM423.861 180.707L423.757 180.218L423.757 180.218L423.861 180.707ZM538.189 139.219L538.405 139.67L538.405 139.67L538.189 139.219ZM615.343 99.1504L615.581 99.5903L615.591 99.5845L615.343 99.1504ZM615.344 99.1497L615.106 98.7098L615.096 98.7156L615.344 99.1497ZM638.357 86.7587L638.592 87.2001L638.592 87.2001L638.357 86.7587ZM686 63.4547L686.189 63.9173L686.5 63.7901V63.4547H686ZM685.839 30.957C667.737 37.101 646.41 47.9166 624.022 59.8373L624.492 60.7199C646.886 48.796 668.146 38.0182 686.16 31.9039L685.839 30.957ZM624.022 59.8373C616.337 63.9293 608.425 68.2114 600.31 72.6032L600.786 73.4827C608.902 69.0905 616.811 64.8101 624.492 60.7199L624.022 59.8373ZM600.311 72.6027L600.303 72.6072L600.777 73.4878L600.785 73.4833L600.311 72.6027ZM600.302 72.6078C576.736 85.362 551.457 99.0431 525.012 111.712L525.444 112.614C551.915 99.9327 577.215 86.2399 600.778 73.4872L600.302 72.6078ZM525.012 111.712C489.536 128.707 452.956 143.373 417.545 150.868L417.752 151.847C453.275 144.328 489.937 129.624 525.444 112.614L525.012 111.712ZM417.545 150.868C382.148 158.36 348.902 158.478 319.405 147.503L319.056 148.44C348.789 159.503 382.242 159.363 417.752 151.847L417.545 150.868ZM319.405 147.503C301.826 140.962 287.214 127.434 273.004 109.538L272.221 110.16C286.474 128.109 301.225 141.805 319.056 148.44L319.405 147.503ZM273.004 109.538C265.942 100.645 259.254 91.0382 252.413 81.0671L251.588 81.6329C258.43 91.6037 265.135 101.237 272.221 110.16L273.004 109.538ZM252.413 81.0671C251.669 79.9833 250.923 78.894 250.174 77.8006L249.349 78.3657C250.098 79.4591 250.844 80.5488 251.588 81.6329L252.413 81.0671ZM250.174 77.8006C244.132 68.9818 237.909 59.898 231.48 51.4013L230.682 52.0047C237.095 60.4794 243.305 69.5434 249.349 78.3657L250.174 77.8006ZM231.48 51.4013C217.221 32.5566 200.142 14.0401 177.183 5.44505L176.832 6.38157C199.511 14.8719 216.446 33.1904 230.682 52.0047L231.48 51.4013ZM177.183 5.44505C153.243 -3.51747 126.128 -0.618362 94.43 16.3317L94.9015 17.2135C126.426 0.356143 153.236 -2.45217 176.832 6.38157L177.183 5.44505ZM94.43 16.3317C61.6038 33.885 37.2137 66.4698 30.959 105.548L31.9464 105.706C38.1504 66.9448 62.3435 34.6235 94.9015 17.2135L94.43 16.3317ZM30.959 105.548C24.6455 144.993 37.008 189.459 74.5696 230.469L75.307 229.794C37.923 188.978 25.6875 144.811 31.9464 105.706L30.959 105.548ZM74.5696 230.469C90.7007 248.081 90.6651 256.924 89.5498 260.959L90.5136 261.226C91.7663 256.693 91.525 247.501 75.307 229.794L74.5696 230.469ZM89.5498 260.959C88.7503 263.852 86.8179 266.938 83.3963 270.474C79.9757 274.009 75.0927 277.967 68.435 282.608L69.0068 283.428C75.6878 278.771 80.63 274.771 84.1149 271.169C87.599 267.569 89.6527 264.341 90.5136 261.226L89.5498 260.959ZM68.435 282.608C65.3519 284.757 61.865 287.06 58.1579 289.509L58.709 290.343C62.4134 287.897 65.9114 285.586 69.0068 283.428L68.435 282.608ZM58.1579 289.509C47.9699 296.238 36.1277 304.059 26.6302 312.692L27.3028 313.432C36.733 304.86 48.5075 297.082 58.709 290.343L58.1579 289.509ZM26.6302 312.692C12.9566 325.121 0.890614 341.851 0.890625 365.059L1.89063 365.059C1.89061 342.243 13.7385 325.761 27.3028 313.432L26.6302 312.692ZM0.890625 365.059C0.890635 381.447 6.01503 401.933 22.1998 418.591L22.917 417.894C6.95394 401.464 1.89063 381.252 1.89063 365.059L0.890625 365.059ZM22.1998 418.591C38.5202 435.388 64.1772 446.338 101.377 447.206L101.401 446.206C64.3851 445.342 39.007 434.454 22.917 417.894L22.1998 418.591ZM101.377 447.206C109.936 447.406 117.035 440.63 117.235 432.072L116.235 432.048C116.048 440.054 109.407 446.393 101.401 446.206L101.377 447.206ZM117.235 432.072C117.435 423.514 110.659 416.414 102.101 416.214L102.077 417.214C110.083 417.401 116.422 424.042 116.235 432.048L117.235 432.072ZM102.101 416.214C70.6398 415.48 53.6223 406.446 44.4335 396.989L43.7163 397.685C53.1347 407.379 70.4306 416.476 102.077 417.214L102.101 416.214ZM44.4335 396.989C35.109 387.392 31.8906 375.352 31.8906 365.059L30.8906 365.059C30.8906 375.55 34.1711 387.861 43.7163 397.685L44.4335 396.989ZM31.8906 365.059C31.8906 353.99 37.2284 344.951 47.4815 335.631L46.8089 334.891C36.4436 344.313 30.8906 353.601 30.8906 365.059L31.8906 365.059ZM47.4815 335.631C55.0906 328.715 63.7415 323.003 73.1929 316.765L72.642 315.93C63.2033 322.16 54.4853 327.914 46.8089 334.891L47.4815 335.631ZM73.187 316.769L73.1876 316.768L72.6485 315.926L72.6479 315.926L73.187 316.769ZM73.1935 316.764C77.3715 314.007 81.7042 311.147 86.1623 308.039L85.5904 307.219C81.1443 310.318 76.8219 313.171 72.6426 315.93L73.1935 316.764ZM86.1623 308.039C98.9188 299.147 114.511 287.015 119.43 269.217L118.466 268.951C113.654 286.363 98.3634 298.315 85.5904 307.219L86.1623 308.039ZM119.43 269.217C124.841 249.637 116.1 229.915 97.43 209.531L96.6925 210.207C115.283 230.504 123.738 249.874 118.466 268.951L119.43 269.217ZM97.43 209.531C65.3827 174.542 56.9453 139.338 61.5694 110.448L60.5819 110.29C55.9035 139.52 64.4671 175.023 96.6925 210.207L97.43 209.531ZM61.5694 110.448C66.252 81.1912 84.5363 56.776 109.048 43.6687L108.577 42.7868C83.7964 56.0377 65.3153 80.7164 60.5819 110.29L61.5694 110.448ZM109.048 43.6687C135.349 29.6046 153.017 29.4992 166.314 34.4772L166.665 33.5407C153.025 28.4345 135.053 28.629 108.577 42.7868L109.048 43.6687ZM166.314 34.4772C180.592 39.8223 193.202 52.1896 206.759 70.1064L207.556 69.503C193.977 51.5568 181.223 38.9908 166.665 33.5407L166.314 34.4772ZM206.759 70.1064C212.715 77.9786 218.506 86.429 224.609 95.3349L225.434 94.7696C219.334 85.8677 213.53 77.3973 207.556 69.503L206.759 70.1064ZM224.612 95.3397L224.613 95.3406L225.431 94.7656L225.43 94.7648L224.612 95.3397ZM224.609 95.3357C225.352 96.4193 226.099 97.5096 226.851 98.6063L227.676 98.0405C226.924 96.9442 226.177 95.8541 225.434 94.7705L224.609 95.3357ZM226.851 98.6063C233.689 108.571 240.92 118.985 248.727 128.816L249.51 128.194C241.728 118.394 234.513 108.005 227.676 98.0405L226.851 98.6063ZM248.727 128.816C264.253 148.368 283.173 167.097 308.594 176.556L308.943 175.619C283.775 166.254 264.993 147.693 249.51 128.194L248.727 128.816ZM308.594 176.556C345.412 190.256 385.064 189.43 423.965 181.196L423.757 180.218C384.97 188.428 345.525 189.231 308.943 175.619L308.594 176.556ZM423.965 181.196C462.851 172.966 501.969 157.125 538.405 139.67L537.973 138.768C501.568 156.208 462.532 172.011 423.757 180.218L423.965 181.196ZM538.405 139.67C565.607 126.638 591.871 112.423 615.581 99.5901L615.105 98.7107C591.392 111.545 565.149 125.748 537.973 138.768L538.405 139.67ZM615.591 99.5845L615.592 99.5838L615.096 98.7156L615.095 98.7163L615.591 99.5845ZM615.582 99.5894C623.562 95.2707 631.252 91.1087 638.592 87.2001L638.122 86.3174C630.778 90.2279 623.085 94.3916 615.106 98.71L615.582 99.5894ZM638.592 87.2001C657.246 77.2677 673.149 69.2637 686.189 63.9173L685.81 62.9921C672.72 68.3588 656.779 76.3832 638.122 86.3174L638.592 87.2001ZM686.5 63.4547V31.4304H685.5V63.4547H686.5Z" fill="white"/>
</svg>
