<svg width="287" height="346" viewBox="0 0 287 346" fill="none" xmlns="http://www.w3.org/2000/svg">
<path d="M281.714 273.914C282.387 276.643 281.594 279.625 279.524 282.7C277.455 285.775 274.122 288.919 269.772 291.947C261.071 298.004 248.343 303.569 233.65 307.196C218.956 310.824 205.1 311.822 194.581 310.511C189.321 309.855 184.908 308.624 181.645 306.865C178.382 305.107 176.292 302.836 175.618 300.108C174.945 297.38 175.738 294.397 177.808 291.322C179.878 288.247 183.21 285.103 187.56 282.075C196.261 276.019 208.989 270.453 223.683 266.826C238.376 263.198 252.232 262.2 262.751 263.511C268.011 264.167 272.424 265.398 275.687 267.157C278.95 268.915 281.04 271.186 281.714 273.914Z" fill="black" stroke="white" stroke-width="0.5"/>
<path d="M252.598 262.637C256.858 262.607 260.753 262.881 264.157 263.447L264.116 263.694C268.038 264.347 271.286 265.386 273.68 266.784C276.072 268.182 277.59 269.924 278.097 271.981C278.605 274.037 278.073 276.286 276.606 278.636C275.138 280.987 272.746 283.419 269.579 285.822L269.73 286.022C267.619 287.623 265.172 289.206 262.436 290.74L262.314 290.522C261.489 290.985 260.638 291.443 259.762 291.896L259.876 292.118C256.662 293.779 253.112 295.368 249.291 296.843L249.201 296.61C244.11 298.575 238.536 300.337 232.632 301.794C226.728 303.252 220.974 304.287 215.554 304.917L215.583 305.165C212.579 305.514 209.677 305.739 206.908 305.844L206.898 305.594C205.919 305.631 204.957 305.653 204.013 305.659L204.014 305.909C199.754 305.94 195.859 305.666 192.456 305.099L192.497 304.853C188.575 304.2 185.326 303.161 182.933 301.763C180.54 300.365 179.023 298.623 178.515 296.566C178.007 294.51 178.539 292.261 180.007 289.911C181.474 287.56 183.866 285.127 187.034 282.725L186.883 282.525C188.993 280.924 191.44 279.341 194.176 277.807L194.298 278.025C195.123 277.562 195.974 277.104 196.851 276.651L196.736 276.429C199.951 274.768 203.501 273.179 207.322 271.704L207.412 271.937C212.503 269.972 218.077 268.21 223.981 266.753C229.884 265.295 235.638 264.26 241.058 263.63L241.03 263.382C244.033 263.033 246.935 262.807 249.705 262.703L249.714 262.953C250.693 262.916 251.656 262.894 252.6 262.887L252.598 262.637Z" fill="black" stroke="white" stroke-width="0.5" stroke-dasharray="365.94 121.98 30.49 91.48"/>
<mask id="path-3-inside-1_1211_1827" fill="white">
<path fill-rule="evenodd" clip-rule="evenodd" d="M205.714 13.4396C205.701 13.3386 205.682 13.2385 205.658 13.1396C204.245 7.41677 184.145 7.45718 160.763 13.2298C137.381 19.0025 119.572 28.3214 120.985 34.0442C121.009 34.1431 121.039 34.2404 121.075 34.3359L121.057 34.3402L139.905 110.682C148.061 143.719 164.618 174.003 187.757 198.205C194.841 205.615 199.91 214.887 202.408 225.002L215.925 279.752C216.33 281.392 217.663 282.639 219.326 282.934C224.668 283.88 230.161 282.524 234.449 279.2C235.784 278.165 236.384 276.441 235.979 274.801L222.462 220.051C219.965 209.936 220.136 199.37 222.958 189.515C232.173 157.324 232.734 122.814 224.578 89.7778L205.73 13.4356L205.714 13.4396Z"/>
</mask>
<path fill-rule="evenodd" clip-rule="evenodd" d="M205.714 13.4396C205.701 13.3386 205.682 13.2385 205.658 13.1396C204.245 7.41677 184.145 7.45718 160.763 13.2298C137.381 19.0025 119.572 28.3214 120.985 34.0442C121.009 34.1431 121.039 34.2404 121.075 34.3359L121.057 34.3402L139.905 110.682C148.061 143.719 164.618 174.003 187.757 198.205C194.841 205.615 199.91 214.887 202.408 225.002L215.925 279.752C216.33 281.392 217.663 282.639 219.326 282.934C224.668 283.88 230.161 282.524 234.449 279.2C235.784 278.165 236.384 276.441 235.979 274.801L222.462 220.051C219.965 209.936 220.136 199.37 222.958 189.515C232.173 157.324 232.734 122.814 224.578 89.7778L205.73 13.4356L205.714 13.4396Z" fill="black"/>
<path d="M205.714 13.4396L205.218 13.5035L205.289 14.0594L205.834 13.9251L205.714 13.4396ZM121.075 34.3359L121.195 34.8213L121.739 34.6869L121.543 34.1616L121.075 34.3359ZM121.057 34.3402L120.937 33.8548L120.452 33.9747L120.572 34.4601L121.057 34.3402ZM187.757 198.205L188.118 197.86L187.757 198.205ZM219.326 282.934L219.239 283.426L219.239 283.426L219.326 282.934ZM234.449 279.2L234.756 279.595L234.756 279.595L234.449 279.2ZM222.958 189.515L222.477 189.377L222.958 189.515ZM224.578 89.7778L225.063 89.658L224.578 89.7778ZM205.73 13.4356L206.215 13.3158L206.095 12.8304L205.61 12.9502L205.73 13.4356ZM205.172 13.2594C205.192 13.3398 205.207 13.4211 205.218 13.5035L206.21 13.3758C206.194 13.256 206.172 13.1373 206.143 13.0197L205.172 13.2594ZM160.883 13.7152C172.547 10.8356 183.376 9.39014 191.45 9.37391C195.49 9.36578 198.812 9.71596 201.195 10.4078C203.619 11.1114 204.889 12.1114 205.172 13.2594L206.143 13.0197C205.72 11.3064 203.947 10.1654 201.474 9.44742C198.96 8.71766 195.531 8.3657 191.448 8.37391C183.273 8.39034 172.361 9.85138 160.643 12.7444L160.883 13.7152ZM121.47 33.9243C121.187 32.7763 121.845 31.3002 123.663 29.5495C125.45 27.8281 128.227 25.9722 131.808 24.0987C138.961 20.3555 149.219 16.5949 160.883 13.7152L160.643 12.7444C148.925 15.6374 138.587 19.4226 131.344 23.2127C127.726 25.1059 124.854 27.0135 122.969 28.8293C121.114 30.6158 120.076 32.4507 120.499 34.164L121.47 33.9243ZM121.543 34.1616C121.514 34.0838 121.49 34.0047 121.47 33.9243L120.499 34.164C120.528 34.2816 120.564 34.397 120.606 34.5102L121.543 34.1616ZM120.955 33.8504L120.937 33.8548L121.177 34.8257L121.195 34.8213L120.955 33.8504ZM120.572 34.4601L139.42 110.802L140.39 110.563L121.543 34.2204L120.572 34.4601ZM139.42 110.802C147.596 143.922 164.196 174.284 187.396 198.551L188.118 197.86C165.041 173.721 148.526 143.516 140.39 110.563L139.42 110.802ZM187.396 198.551C194.418 205.897 199.446 215.09 201.922 225.122L202.893 224.882C200.375 214.684 195.264 205.334 188.118 197.86L187.396 198.551ZM201.922 225.122L215.439 279.872L216.41 279.633L202.893 224.882L201.922 225.122ZM215.439 279.872C215.892 281.704 217.381 283.097 219.239 283.426L219.413 282.441C217.945 282.181 216.768 281.08 216.41 279.633L215.439 279.872ZM219.239 283.426C224.72 284.397 230.356 283.005 234.756 279.595L234.143 278.805C229.967 282.042 224.616 283.363 219.413 282.441L219.239 283.426ZM234.756 279.595C236.247 278.439 236.917 276.513 236.464 274.682L235.494 274.921C235.851 276.369 235.322 277.891 234.143 278.805L234.756 279.595ZM236.464 274.682L222.947 219.931L221.976 220.171L235.494 274.921L236.464 274.682ZM222.947 219.931C220.471 209.9 220.641 199.423 223.438 189.652L222.477 189.377C219.631 199.318 219.459 209.973 221.976 220.171L222.947 219.931ZM223.438 189.652C232.679 157.376 233.24 122.778 225.063 89.658L224.092 89.8977C232.228 122.851 231.668 157.272 222.477 189.377L223.438 189.652ZM225.063 89.658L206.215 13.3158L205.244 13.5555L224.092 89.8977L225.063 89.658ZM205.61 12.9502L205.594 12.9542L205.834 13.9251L205.85 13.9211L205.61 12.9502Z" fill="white" mask="url(#path-3-inside-1_1211_1827)"/>
<path d="M202.294 10.2425C202.58 10.3483 202.849 10.4602 203.101 10.5782L202.996 10.8047C204.378 11.4514 205.182 12.2588 205.414 13.1996C205.646 14.1403 205.311 15.229 204.388 16.4449L204.587 16.5961C202.634 19.17 198.283 22.0722 192.275 24.9151L192.168 24.6891C191.91 24.8112 191.649 24.9332 191.385 25.055L191.49 25.282C189.371 26.2597 187.059 27.2283 184.585 28.1721L184.496 27.9385C180.197 29.578 175.405 31.1428 170.28 32.549L170.346 32.7901C170.067 32.8667 169.787 32.9429 169.506 33.0185L169.441 32.7771C168.25 33.0975 167.042 33.4093 165.819 33.7113C164.595 34.0133 163.381 34.2996 162.178 34.5702L162.233 34.8141C157.056 35.9784 152.087 36.8521 147.501 37.4348L147.469 37.1868C147.178 37.2238 146.889 37.2596 146.601 37.2942L146.631 37.5424C144.002 37.8587 141.505 38.0773 139.174 38.1981L139.161 37.9485C132.697 38.2835 127.554 37.8622 124.433 36.7069L124.347 36.9414C124.061 36.8356 123.792 36.7237 123.539 36.6057L123.645 36.3792C122.263 35.7325 121.459 34.9251 121.227 33.9843C120.994 33.0436 121.33 31.9549 122.253 30.739L122.054 30.5878C124.007 28.0139 128.358 25.1117 134.365 22.2688L134.472 22.4948C134.73 22.3727 134.991 22.2507 135.256 22.1289L135.151 21.9019C137.27 20.9242 139.582 19.9556 142.056 19.0118L142.145 19.2454C146.444 17.6059 151.235 16.0411 156.361 14.6348L156.295 14.3938C156.574 14.3171 156.854 14.241 157.135 14.1654L157.2 14.4068C158.391 14.0864 159.599 13.7746 160.822 13.4726C162.045 13.1706 163.26 12.8843 164.463 12.6137L164.408 12.3698C169.584 11.2055 174.554 10.3318 179.14 9.74906L179.172 9.99706C179.463 9.9601 179.752 9.92431 180.04 9.88969L180.01 9.64148C182.639 9.32518 185.136 9.10658 187.467 8.98577L187.48 9.23544C193.943 8.90034 199.087 9.32168 202.207 10.477L202.294 10.2425Z" stroke="white" stroke-width="0.5" stroke-dasharray="365.94 42.69 731.88 365.94 42.69 731.88"/>
<path fill-rule="evenodd" clip-rule="evenodd" d="M140.998 69.304C141.474 66.811 143.995 63.0078 147.668 64.5207C148.684 64.939 150.366 66.0054 152.613 67.4302C161.972 73.3634 181.133 85.5113 202.789 82.9507C205.58 82.6207 208.213 82.2559 210.689 81.8664L210.961 82.966C217.512 109.502 223.322 141.624 213.942 173.077C212.362 178.374 207.888 182.205 202.522 183.53C197.291 184.822 191.69 183.619 187.849 179.84C164.471 156.835 154.762 125.056 148.196 98.4617L140.998 69.304Z" fill="#ECE3CE"/>
<path d="M147.668 64.5207L147.764 64.2895L147.764 64.2895L147.668 64.5207ZM140.998 69.304L140.752 69.2571L140.742 69.3109L140.755 69.364L140.998 69.304ZM152.613 67.4302L152.747 67.219L152.613 67.4302ZM202.789 82.9507L202.76 82.7024L202.789 82.9507ZM210.689 81.8664L210.932 81.8065L210.877 81.5838L210.65 81.6195L210.689 81.8664ZM210.961 82.966L210.718 83.026L210.961 82.966ZM213.942 173.077L213.702 173.006L213.942 173.077ZM187.849 179.84L187.674 180.018L187.849 179.84ZM148.196 98.4617L148.439 98.4018L148.196 98.4617ZM147.764 64.2895C145.817 63.4878 144.167 64.103 142.963 65.2274C141.771 66.3412 140.999 67.9651 140.752 69.2571L141.243 69.351C141.473 68.15 142.199 66.6257 143.305 65.5928C144.399 64.5706 145.846 64.0407 147.573 64.7518L147.764 64.2895ZM152.747 67.219C150.512 65.8017 148.805 64.7185 147.764 64.2895L147.573 64.7518C148.563 65.1595 150.22 66.2091 152.479 67.6413L152.747 67.219ZM202.76 82.7024C181.203 85.2513 162.114 73.1574 152.747 67.219L152.479 67.6413C161.83 73.5694 181.062 85.7714 202.819 83.199L202.76 82.7024ZM210.65 81.6195C208.177 82.0084 205.547 82.3728 202.76 82.7024L202.819 83.199C205.612 82.8686 208.248 82.5034 210.728 82.1134L210.65 81.6195ZM211.203 82.9061L210.932 81.8065L210.446 81.9264L210.718 83.026L211.203 82.9061ZM214.181 173.149C223.582 141.627 217.756 109.447 211.203 82.9061L210.718 83.026C217.268 109.556 223.062 141.621 213.702 173.006L214.181 173.149ZM202.582 183.773C208.023 182.43 212.573 178.541 214.181 173.149L213.702 173.006C212.151 178.207 207.753 181.981 202.462 183.288L202.582 183.773ZM187.674 180.018C191.584 183.866 197.279 185.082 202.582 183.773L202.462 183.288C197.304 184.561 191.795 183.371 188.025 179.662L187.674 180.018ZM147.953 98.5217C154.52 125.119 164.242 156.96 187.674 180.018L188.025 179.662C164.701 156.71 155.004 124.994 148.439 98.4018L147.953 98.5217ZM140.755 69.364L147.953 98.5217L148.439 98.4018L141.24 69.2441L140.755 69.364Z" fill="white"/>
<circle cx="200.467" cy="168.96" r="4.32422" transform="rotate(-13.8682 200.467 168.96)" fill="black" stroke="white" stroke-width="0.5"/>
<circle cx="176.926" cy="146.044" r="2.79948" transform="rotate(-13.8682 176.926 146.044)" fill="black" stroke="white" stroke-width="0.5"/>
<circle cx="195.096" cy="134.479" r="4.32422" transform="rotate(-13.8682 195.096 134.479)" fill="black" stroke="white" stroke-width="0.5"/>
<circle cx="167.088" cy="104.249" r="6.76381" transform="rotate(-13.8682 167.088 104.249)" fill="black" stroke="white" stroke-width="0.5"/>
<circle cx="188.698" cy="119.605" r="3.12092" transform="rotate(-13.8682 188.698 119.605)" fill="black" stroke="white" stroke-width="0.5"/>
<path d="M180.804 89.3201C195.298 89.511 204.777 85.9143 210.706 81.9377C197.681 83.8969 188.066 84.3864 171.446 76.8677C154.826 69.3491 141.625 56.5889 140.565 65.0173C139.954 71.8689 147.016 88.8752 180.804 89.3201Z" fill="#ECE3CE" stroke="white" stroke-width="0.5"/>
<path d="M4.88245 306.33C4.39636 309.098 5.39079 312.019 7.66548 314.946C9.9402 317.873 13.4789 320.782 18.0259 323.507C27.1185 328.956 40.1962 333.641 55.1031 336.259C70.0101 338.877 83.9015 338.929 94.3067 336.904C99.5101 335.891 103.828 334.362 106.964 332.385C110.1 330.408 112.03 328 112.517 325.232C113.003 322.465 112.008 319.543 109.733 316.616C107.459 313.689 103.92 310.78 99.3731 308.055C90.2805 302.606 77.2028 297.921 62.2958 295.303C47.3889 292.685 33.4975 292.634 23.0923 294.659C17.8888 295.671 13.5707 297.201 10.4348 299.177C7.29892 301.154 5.36854 303.562 4.88245 306.33Z" fill="black" stroke="white" stroke-width="0.5"/>
<path d="M33.1667 293.095C28.9143 293.355 25.0473 293.894 21.6903 294.691L21.748 294.934C17.8796 295.852 14.7091 297.111 12.4166 298.669C10.1249 300.226 8.72972 302.068 8.36335 304.154C7.99697 306.24 8.68099 308.448 10.305 310.692C11.9295 312.938 14.4815 315.202 17.8055 317.383L17.6683 317.592C19.8832 319.046 22.4325 320.459 25.2665 321.803L25.3737 321.577C26.228 321.982 27.1085 322.381 28.0136 322.773L27.9143 323.003C31.2345 324.441 34.8847 325.785 38.7975 326.996L38.8714 326.757C44.0843 328.37 49.7655 329.748 55.7549 330.8C61.7443 331.852 67.5551 332.492 73.0058 332.751L72.9939 333.001C76.0146 333.145 78.9253 333.172 81.6953 333.087L81.6877 332.837C82.667 332.807 83.6286 332.764 84.5711 332.706L84.5864 332.956C88.8387 332.696 92.7057 332.157 96.0628 331.36L96.005 331.117C99.8734 330.198 103.044 328.94 105.336 327.382C107.628 325.825 109.023 323.983 109.39 321.896C109.756 319.81 109.072 317.603 107.448 315.358C105.824 313.112 103.272 310.849 99.9475 308.667L100.085 308.458C97.8698 307.005 95.3205 305.592 92.4865 304.248L92.3793 304.473C91.525 304.068 90.6446 303.669 89.7394 303.277L89.8388 303.048C86.5185 301.61 82.8684 300.266 78.9555 299.055L78.8816 299.294C73.6687 297.68 67.9876 296.302 61.9981 295.25C56.0087 294.199 50.198 293.558 44.7472 293.299L44.7591 293.049C41.7384 292.906 38.8278 292.879 36.0577 292.963L36.0654 293.213C35.086 293.243 34.1244 293.287 33.1819 293.345L33.1667 293.095Z" fill="black" stroke="white" stroke-width="0.5" stroke-dasharray="365.94 121.98 30.49 91.48"/>
<mask id="path-16-inside-2_1211_1827" fill="white">
<path fill-rule="evenodd" clip-rule="evenodd" d="M62.9592 41.2814C62.9653 41.1796 62.9771 41.0784 62.9947 40.978C64.0144 35.1722 84.0704 33.8428 107.791 38.0086C131.512 42.1744 149.915 50.258 148.895 56.0638C148.878 56.1643 148.854 56.2634 148.825 56.3612L148.843 56.3643L135.242 133.813C129.356 167.329 114.901 198.671 93.4653 224.394C86.9025 232.269 82.4769 241.865 80.6748 252.127L70.9201 307.671C70.628 309.334 69.3829 310.669 67.7439 311.077C62.4785 312.385 56.9056 311.406 52.4011 308.382C50.9988 307.441 50.2831 305.761 50.5752 304.098L60.3299 248.554C62.132 238.292 61.2408 227.763 57.7541 218.122C46.3662 186.635 43.4552 152.243 49.3411 118.728L62.9427 41.2785L62.9592 41.2814Z"/>
</mask>
<path fill-rule="evenodd" clip-rule="evenodd" d="M62.9592 41.2814C62.9653 41.1796 62.9771 41.0784 62.9947 40.978C64.0144 35.1722 84.0704 33.8428 107.791 38.0086C131.512 42.1744 149.915 50.258 148.895 56.0638C148.878 56.1643 148.854 56.2634 148.825 56.3612L148.843 56.3643L135.242 133.813C129.356 167.329 114.901 198.671 93.4653 224.394C86.9025 232.269 82.4769 241.865 80.6748 252.127L70.9201 307.671C70.628 309.334 69.3829 310.669 67.7439 311.077C62.4785 312.385 56.9056 311.406 52.4011 308.382C50.9988 307.441 50.2831 305.761 50.5752 304.098L60.3299 248.554C62.132 238.292 61.2408 227.763 57.7541 218.122C46.3662 186.635 43.4552 152.243 49.3411 118.728L62.9427 41.2785L62.9592 41.2814Z" fill="black"/>
<path d="M62.9592 41.2814L63.4583 41.3112L63.4248 41.8708L62.8727 41.7738L62.9592 41.2814ZM148.825 56.3612L148.739 56.8536L148.187 56.7567L148.346 56.2192L148.825 56.3612ZM148.843 56.3643L148.93 55.8719L149.422 55.9583L149.336 56.4508L148.843 56.3643ZM93.4653 224.394L93.8495 224.714L93.4653 224.394ZM80.6748 252.127L81.1673 252.213L80.6748 252.127ZM70.9201 307.671L70.4276 307.584L70.9201 307.671ZM67.7439 311.077L67.8644 311.562L67.8644 311.562L67.7439 311.077ZM52.4011 308.382L52.1224 308.797L52.1224 308.797L52.4011 308.382ZM57.7541 218.122L58.2243 217.952L57.7541 218.122ZM62.9427 41.2785L62.4503 41.192L62.5368 40.6995L63.0292 40.786L62.9427 41.2785ZM63.4872 41.0645C63.4729 41.1461 63.4632 41.2283 63.4583 41.3112L62.4601 41.2515C62.4673 41.1309 62.4813 41.0108 62.5023 40.8915L63.4872 41.0645ZM107.705 38.5011C95.8718 36.423 84.9692 35.7188 76.9131 36.2528C72.8811 36.5201 69.5908 37.0958 67.2604 37.9484C64.8904 38.8156 63.6918 39.8998 63.4872 41.0645L62.5023 40.8915C62.8075 39.1533 64.4983 37.8942 66.9168 37.0093C69.375 36.11 72.7724 35.5251 76.847 35.255C85.004 34.7143 95.9898 35.4284 107.878 37.5161L107.705 38.5011ZM148.403 55.9773C148.607 54.8126 147.85 53.3849 145.917 51.7621C144.017 50.1665 141.119 48.5041 137.42 46.879C130.028 43.632 119.538 40.5791 107.705 38.5011L107.878 37.5161C119.766 39.6039 130.337 42.6757 137.822 45.9634C141.561 47.6057 144.556 49.3131 146.56 50.9963C148.532 52.6522 149.693 54.4121 149.388 56.1503L148.403 55.9773ZM148.346 56.2192C148.37 56.1395 148.388 56.0589 148.403 55.9773L149.388 56.1503C149.367 56.2696 149.339 56.3873 149.305 56.5032L148.346 56.2192ZM148.912 55.8687L148.93 55.8719L148.757 56.8568L148.739 56.8536L148.912 55.8687ZM149.336 56.4508L135.734 133.9L134.749 133.727L148.351 56.2778L149.336 56.4508ZM135.734 133.9C129.833 167.5 115.342 198.922 93.8495 224.714L93.0812 224.074C114.46 198.419 128.878 167.158 134.749 133.727L135.734 133.9ZM93.8495 224.714C87.3435 232.521 82.9545 242.036 81.1673 252.213L80.1823 252.04C81.9993 241.694 86.4616 232.018 93.0812 224.074L93.8495 224.714ZM81.1673 252.213L71.4126 307.757L70.4276 307.584L80.1823 252.04L81.1673 252.213ZM71.4126 307.757C71.0862 309.616 69.6954 311.107 67.8644 311.562L67.6233 310.591C69.0704 310.232 70.1697 309.053 70.4276 307.584L71.4126 307.757ZM67.8644 311.562C62.4621 312.904 56.7441 311.9 52.1224 308.797L52.6797 307.967C57.0671 310.912 62.495 311.865 67.6233 310.591L67.8644 311.562ZM52.1224 308.797C50.556 307.746 49.7564 305.87 50.0828 304.012L51.0677 304.184C50.8098 305.653 51.4417 307.136 52.6797 307.967L52.1224 308.797ZM50.0828 304.012L59.8375 248.467L60.8224 248.64L51.0677 304.184L50.0828 304.012ZM59.8375 248.467C61.6247 238.29 60.7404 227.849 57.2839 218.292L58.2243 217.952C61.7412 227.676 62.6393 238.294 60.8224 248.64L59.8375 248.467ZM57.2839 218.292C45.8658 186.721 42.9479 152.241 48.8487 118.641L49.8336 118.814C43.9625 152.245 46.8665 186.548 58.2243 217.952L57.2839 218.292ZM48.8487 118.641L62.4503 41.192L63.4352 41.365L49.8336 118.814L48.8487 118.641ZM63.0292 40.786L63.0457 40.7889L62.8727 41.7738L62.8563 41.771L63.0292 40.786Z" fill="white" mask="url(#path-16-inside-2_1211_1827)"/>
<path d="M87.9343 35.7198C85.5943 35.6067 83.3654 35.5634 81.2717 35.5885L81.2747 35.8384C76.0052 35.9015 71.6103 36.3986 68.4663 37.2966C66.8937 37.7458 65.6477 38.2916 64.7633 38.9234C63.88 39.5545 63.3759 40.2573 63.2417 41.0214C63.1075 41.7855 63.342 42.6179 63.9575 43.5122C64.5736 44.4076 65.5591 45.3452 66.8845 46.3034C69.5344 48.219 73.4969 50.1837 78.4297 52.0385L78.3417 52.2725C80.3015 53.0095 82.4118 53.7282 84.6504 54.4192L84.7241 54.1803C90.472 55.9543 97.07 57.545 104.143 58.7871C111.216 60.0292 117.961 60.7819 123.969 61.0725L123.957 61.3222C126.297 61.4354 128.526 61.4787 130.62 61.4536L130.617 61.2036C135.886 61.1405 140.281 60.6435 143.425 59.7454C144.998 59.2962 146.244 58.7504 147.128 58.1186C148.012 57.4875 148.516 56.7848 148.65 56.0207C148.784 55.2566 148.55 54.4242 147.934 53.5298C147.318 52.6345 146.332 51.6968 145.007 50.7387C142.357 48.8231 138.395 46.8584 133.462 45.0035L133.55 44.7695C131.59 44.0326 129.48 43.3138 127.241 42.6229L127.167 42.8618C121.42 41.0878 114.822 39.4971 107.749 38.255C100.676 37.0128 93.9307 36.2602 87.9223 35.9696L87.9343 35.7198Z" stroke="white" stroke-width="0.5" stroke-dasharray="182.97 30.49"/>
<path fill-rule="evenodd" clip-rule="evenodd" d="M131.336 92.605C130.69 90.1502 127.916 86.5285 124.355 88.288C123.37 88.7745 121.765 89.9531 119.62 91.5277C110.687 98.0849 92.3989 111.51 70.6181 110.431C67.8114 110.292 65.1597 110.108 62.6623 109.888L62.4664 111.004C57.7387 137.924 54.1311 170.368 65.6329 201.108C67.5699 206.285 72.2947 209.803 77.7388 210.759C83.0452 211.691 88.5518 210.109 92.1255 206.077C113.882 181.533 121.403 149.166 126.141 122.186L131.336 92.605Z" fill="#ECE3CE"/>
<path d="M124.355 88.288L124.244 88.0639L124.244 88.0639L124.355 88.288ZM131.336 92.605L131.578 92.5414L131.592 92.5943L131.582 92.6482L131.336 92.605ZM119.62 91.5277L119.472 91.3262L119.62 91.5277ZM70.6181 110.431L70.6057 110.681L70.6181 110.431ZM62.6623 109.888L62.4161 109.845L62.4558 109.619L62.6843 109.639L62.6623 109.888ZM62.4664 111.004L62.2202 110.96L62.4664 111.004ZM65.6329 201.108L65.867 201.021L65.6329 201.108ZM92.1255 206.077L92.3126 206.243L92.1255 206.077ZM126.141 122.186L126.387 122.229L126.141 122.186ZM124.244 88.0639C126.131 87.1314 127.819 87.6326 129.097 88.6722C130.362 89.702 131.243 91.2692 131.578 92.5414L131.094 92.6685C130.783 91.486 129.954 90.0149 128.781 89.06C127.62 88.115 126.14 87.685 124.466 88.5121L124.244 88.0639ZM119.472 91.3262C121.606 89.7598 123.234 88.5628 124.244 88.0639L124.466 88.5121C123.506 88.9863 121.924 90.1464 119.768 91.7292L119.472 91.3262ZM70.6304 110.182C92.311 111.256 110.532 97.8891 119.472 91.3262L119.768 91.7292C110.843 98.2807 92.4867 111.765 70.6057 110.681L70.6304 110.182ZM62.6843 109.639C65.1784 109.859 67.8269 110.043 70.6304 110.182L70.6057 110.681C67.7959 110.542 65.141 110.357 62.6404 110.137L62.6843 109.639ZM62.2202 110.96L62.4161 109.845L62.9086 109.931L62.7127 111.047L62.2202 110.96ZM65.3987 201.196C53.8718 170.388 57.4915 137.886 62.2202 110.96L62.7127 111.047C57.9859 137.961 54.3904 170.347 65.867 201.021L65.3987 201.196ZM77.6956 211.005C72.1756 210.036 67.3706 206.466 65.3987 201.196L65.867 201.021C67.7691 206.104 72.4137 209.57 77.782 210.513L77.6956 211.005ZM92.3126 206.243C88.6737 210.348 83.0756 211.95 77.6956 211.005L77.782 210.513C83.0148 211.432 88.4299 209.869 91.9384 205.911L92.3126 206.243ZM126.387 122.229C121.649 149.212 114.119 181.642 92.3126 206.243L91.9384 205.911C113.644 181.424 121.157 149.12 125.895 122.143L126.387 122.229ZM131.582 92.6482L126.387 122.229L125.895 122.143L131.09 92.5617L131.582 92.6482Z" fill="white"/>
<circle r="4.32422" transform="matrix(-0.984927 -0.172972 -0.172972 0.984927 78.7934 196.083)" fill="black" stroke="white" stroke-width="0.5"/>
<circle r="2.18958" transform="matrix(-0.984927 -0.172972 -0.172972 0.984927 95.0307 179.429)" fill="black" stroke="white" stroke-width="0.5"/>
<circle r="4.32422" transform="matrix(-0.984927 -0.172972 -0.172972 0.984927 81.8051 161.315)" fill="black" stroke="white" stroke-width="0.5"/>
<circle r="4.32422" transform="matrix(-0.984927 -0.172972 -0.172972 0.984927 98.0004 143.107)" fill="black" stroke="white" stroke-width="0.5"/>
<circle r="5.23907" transform="matrix(-0.984927 -0.172972 -0.172972 0.984927 77.2184 129.239)" fill="black" stroke="white" stroke-width="0.5"/>
<path d="M92.9769 115.288C78.529 116.466 68.8272 113.524 62.6414 109.961C75.7687 111.028 85.3955 110.861 101.464 102.227C117.533 93.5932 129.834 79.963 131.466 88.2996C132.543 95.0937 126.656 112.542 92.9769 115.288Z" fill="#ECE3CE" stroke="white" stroke-width="0.5"/>
<path d="M110.284 190.71L110.549 185.122L111.079 190.691C111.987 200.213 119.413 207.814 128.917 208.95L128.935 208.952L128.917 208.955C119.478 210.541 112.422 218.487 111.968 228.042L111.703 233.629L111.172 228.061C110.265 218.538 102.838 210.937 93.3349 209.802L93.3169 209.799L93.3348 209.796C102.774 208.21 109.83 200.264 110.284 190.71Z" fill="black" stroke="white" stroke-width="0.5"/>
</svg>
