<svg width="259" height="322" viewBox="0 0 259 322" fill="none" xmlns="http://www.w3.org/2000/svg">
<path d="M4.926 71.3011C2.51729 67.1291 3.95384 61.7892 8.13623 59.3745L97.5424 7.75579C101.725 5.34108 107.068 6.76695 109.476 10.939L180.419 133.815C181.76 136.137 181.956 138.949 180.95 141.438L156.42 202.188C154.915 205.915 151.061 208.14 147.081 207.58L82.2049 198.449C79.5458 198.075 77.2094 196.5 75.8688 194.178L4.926 71.3011ZM142.046 188.075C146.996 185.216 148.699 178.894 145.846 173.953C142.993 169.012 136.667 167.325 131.716 170.183C126.765 173.042 125.063 179.364 127.916 184.305C130.768 189.246 137.095 190.933 142.046 188.075Z" fill="black" stroke="white" stroke-width="0.5"/>
<path d="M9.08434 68.9088C6.66989 64.7269 8.10273 59.3795 12.2847 56.965L101.691 5.34636C105.873 2.93192 111.22 4.36475 113.635 8.54669L184.734 131.694C186.078 134.022 186.276 136.838 185.273 139.331L160.787 200.158C159.285 203.889 155.431 206.114 151.448 205.549L86.5278 196.341C83.8668 195.964 81.5273 194.384 80.1835 192.056L9.08434 68.9088ZM146.391 186.006C151.342 183.148 153.038 176.816 150.18 171.865C147.321 166.914 140.99 165.217 136.039 168.076C131.087 170.935 129.391 177.266 132.25 182.217C135.108 187.168 141.439 188.865 146.391 186.006Z" fill="black" stroke="white" stroke-width="0.5"/>
<path d="M72.077 52.1284L72.077 52.1284L72.0755 52.1331C70.488 57.402 71.1786 62.6017 74.1315 67.7163C77.0844 72.831 81.2239 75.9969 86.5446 77.1905L86.5469 77.191C91.9327 78.3456 97.5498 77.2215 103.387 73.8516C109.223 70.4821 112.973 66.1984 114.6 60.9936C116.293 55.7515 115.654 50.564 112.701 45.4483C109.747 40.3323 105.555 37.1536 100.132 35.9327L100.132 35.9327C94.8107 34.7389 89.2255 35.8447 83.3889 39.2145C77.552 42.5844 73.77 46.8869 72.077 52.1284ZM135.642 87.0087L135.576 86.8942L135.444 86.8844L39.0819 79.6966L38.6104 79.6614L38.8468 80.0709L45.6191 91.8008L45.6851 91.9153L45.817 91.9251L142.179 99.1129L142.651 99.1481L142.414 98.7386L135.642 87.0087ZM88.256 66.2922L88.256 66.2921L88.25 66.2917C85.7679 66.1138 83.9147 64.9516 82.666 62.7889C81.4568 60.6945 81.3735 58.5068 82.4262 56.1982C83.5473 53.8459 85.8529 51.6434 89.3868 49.6032C92.9223 47.5619 95.9483 46.6871 98.4776 46.9295L98.4776 46.9296L98.4817 46.9299C101.075 47.1354 102.959 48.2841 104.166 50.3757C105.415 52.5384 105.495 54.7245 104.408 56.9629L104.408 56.9629L104.405 56.9684C103.351 59.2794 101.048 61.4816 97.4456 63.5615C93.8432 65.6414 90.7845 66.5345 88.256 66.2922ZM65.6772 123.046L65.6771 123.046L65.6771 123.053C65.6798 126.604 66.6431 130.041 68.5601 133.361C71.513 138.476 75.6525 141.642 80.9732 142.835C86.3972 144.056 92.0342 142.966 97.8721 139.595C103.709 136.225 107.44 131.908 109.029 126.637C110.721 121.395 110.083 116.208 107.129 111.093C105.212 107.771 102.682 105.237 99.542 103.498C96.5019 101.784 93.0898 101.045 89.3136 101.275C85.5358 101.505 81.7221 102.736 77.8744 104.958C74.0266 107.179 71.0537 109.867 68.9654 113.023C66.8783 116.178 65.7798 119.52 65.6772 123.046ZM82.6804 131.937L82.6786 131.937C80.1965 131.759 78.3432 130.596 77.0946 128.434C75.8851 126.339 75.802 124.15 76.8557 121.841C77.9101 119.53 80.2129 117.328 83.8153 115.248C87.4178 113.168 90.4764 112.275 93.005 112.517C95.5318 112.76 97.3854 113.926 98.5949 116.021C99.8416 118.18 99.8916 120.383 98.7394 122.661L98.7392 122.661L98.735 122.67C97.6803 124.982 95.4097 127.165 91.8742 129.206C88.3394 131.247 85.2785 132.143 82.6804 131.937Z" fill="#ECE3CE" stroke="white" stroke-width="0.5"/>
<path fill-rule="evenodd" clip-rule="evenodd" d="M145.984 207.552L128.755 205.131C130.068 218.14 133.194 230.886 138.671 245.926C144.068 260.746 151.813 275.6 162.301 284.91C167.66 289.667 174.055 293.256 181.448 294.285C188.932 295.327 196.562 293.622 204.065 289.29C211.563 284.961 216.838 279.216 219.575 272.186C222.278 265.245 222.161 257.941 220.524 251.015C217.327 237.484 207.916 223.607 197.569 211.736C187.05 199.666 174.727 188.73 164.442 181.062C159.318 177.242 154.497 174.083 150.507 171.987C148.548 170.958 146.487 170.024 144.517 169.456C143.533 169.172 142.288 168.896 140.92 168.847C139.633 168.801 137.479 168.927 135.3 170.185C134.563 170.61 129.84 173.337 130.927 178.646C132.013 183.956 136.167 186.01 136.167 186.01C138.468 187.424 141.221 187.05 144.995 188.546C147.561 190.08 150.687 192.184 154.199 194.802C163.619 201.824 175.019 211.946 184.65 222.996C194.455 234.246 201.623 245.551 203.846 254.956C204.919 259.499 204.722 263.102 203.606 265.968C202.524 268.746 200.242 271.708 195.496 274.448C190.754 277.186 186.937 277.746 183.811 277.311C180.594 276.863 177.215 275.233 173.678 272.094C166.374 265.61 159.835 253.957 154.774 240.061C150.263 227.675 147.385 218.58 145.984 207.552ZM145.785 183.128C145.786 183.13 145.772 183.165 145.741 183.225C145.768 183.156 145.784 183.125 145.785 183.128Z" fill="black" stroke="white" stroke-width="0.5"/>
</svg>
