<svg width="130" height="120" viewBox="0 0 130 120" fill="none" xmlns="http://www.w3.org/2000/svg">
<path d="M96.0762 76.9414V38.8481L128.998 19.8877V57.9809L96.0762 76.9414Z" fill="#020202"/>
<path d="M96.0762 76.9414V38.8481L128.998 19.8877V57.9809L96.0762 76.9414Z" stroke="white" stroke-linejoin="round"/>
<path d="M96.0762 76.9414V38.8481L128.998 19.8877V57.9809L96.0762 76.9414Z" stroke="white" stroke-linejoin="round"/>
<path d="M96.0762 76.9414V38.8481L63.154 19.8877V57.9809L96.0762 76.9414Z" fill="#020202"/>
<path d="M96.0762 76.9414V38.8481L63.154 19.8877V57.9809L96.0762 76.9414Z" stroke="white" stroke-linejoin="round"/>
<path d="M96.0762 76.9414V38.8481L63.154 19.8877V57.9809L96.0762 76.9414Z" stroke="white" stroke-linejoin="round"/>
<path d="M96.0765 1.09961L63.1543 19.8877L96.0765 38.8481L128.999 19.8877L96.0765 1.09961Z" fill="#020202"/>
<path d="M96.0765 1.09961L63.1543 19.8877L96.0765 38.8481L128.999 19.8877L96.0765 1.09961Z" stroke="white" stroke-linejoin="round"/>
<path d="M96.0765 1.09961L63.1543 19.8877L96.0765 38.8481L128.999 19.8877L96.0765 1.09961Z" stroke="white" stroke-linejoin="round"/>
<path d="M33.9219 89.5058V51.4126L66.8441 32.4521V70.5454L33.9219 89.5058Z" fill="#020202"/>
<path d="M33.9219 89.5058V51.4126L66.8441 32.4521V70.5454L33.9219 89.5058Z" stroke="white" stroke-linejoin="round"/>
<path d="M33.9219 89.5058V51.4126L66.8441 32.4521V70.5454L33.9219 89.5058Z" stroke="white" stroke-linejoin="round"/>
<path d="M33.9219 89.5058V51.4126L0.999657 32.4521V70.5454L33.9219 89.5058Z" fill="#020202"/>
<path d="M33.9219 89.5058V51.4126L0.999657 32.4521V70.5454L33.9219 89.5058Z" stroke="white" stroke-linejoin="round"/>
<path d="M33.9219 89.5058V51.4126L0.999657 32.4521V70.5454L33.9219 89.5058Z" stroke="white" stroke-linejoin="round"/>
<path d="M33.9222 13.6641L1 32.4521L33.9222 51.4126L66.8444 32.4521L33.9222 13.6641Z" fill="#020202"/>
<path d="M33.9222 13.6641L1 32.4521L33.9222 51.4126L66.8444 32.4521L33.9222 13.6641Z" stroke="white" stroke-linejoin="round"/>
<path d="M33.9222 13.6641L1 32.4521L33.9222 51.4126L66.8444 32.4521L33.9222 13.6641Z" stroke="white" stroke-linejoin="round"/>
<path d="M79.5449 118.599V80.5054L112.467 61.5449V99.6382L79.5449 118.599Z" fill="#020202"/>
<path d="M79.5449 118.599V80.5054L112.467 61.5449V99.6382L79.5449 118.599Z" stroke="white" stroke-linejoin="round"/>
<path d="M79.5449 118.599V80.5054L112.467 61.5449V99.6382L79.5449 118.599Z" stroke="white" stroke-linejoin="round"/>
<path d="M79.5449 118.599V80.5054L46.6227 61.5449V99.6382L79.5449 118.599Z" fill="#020202"/>
<path d="M79.5449 118.599V80.5054L46.6227 61.5449V99.6382L79.5449 118.599Z" stroke="white" stroke-linejoin="round"/>
<path d="M79.5449 118.599V80.5054L46.6227 61.5449V99.6382L79.5449 118.599Z" stroke="white" stroke-linejoin="round"/>
<path d="M79.5453 42.7568L46.623 61.5449L79.5453 80.5053L112.467 61.5449L79.5453 42.7568Z" fill="#020202"/>
<path d="M79.5453 42.7568L46.623 61.5449L79.5453 80.5053L112.467 61.5449L79.5453 42.7568Z" stroke="white" stroke-linejoin="round"/>
<path d="M79.5453 42.7568L46.623 61.5449L79.5453 80.5053L112.467 61.5449L79.5453 42.7568Z" stroke="white" stroke-linejoin="round"/>
</svg>
