<svg width="628" height="133" viewBox="0 0 628 133" fill="none" xmlns="http://www.w3.org/2000/svg">
<path fill-rule="evenodd" clip-rule="evenodd" d="M608.531 123.758C548.122 73.8892 497.061 47.8686 451.673 37.1355C402.951 25.6142 359.39 31.381 315.845 46.2436C296.885 52.7147 276.952 62.2313 255.072 72.9568C253.045 73.9504 251.002 74.9539 248.944 75.9649L248.897 75.9883C229.025 85.7505 207.729 96.2125 185.284 105.329C135.456 125.566 78.5603 139.787 13.1009 126.894C4.97278 125.294 -0.318604 117.407 1.28223 109.278C2.88312 101.15 10.77 95.859 18.8981 97.4598C76.4387 108.793 127.063 96.5947 173.995 77.5335C195.399 68.8407 215.742 58.8489 235.742 49.0257C237.787 48.0212 239.828 47.0186 241.867 46.0192C263.578 35.3766 285.134 25.0261 306.154 17.8517C353.609 1.65514 403.048 -5.19043 458.576 7.94065C509.433 19.9669 564.219 48.4703 626.541 99.7254L608.531 123.758Z" fill="black"/>
<path d="M451.673 37.1355L451.558 37.6221L451.558 37.6221L451.673 37.1355ZM608.531 123.758L608.213 124.143L608.617 124.477L608.931 124.057L608.531 123.758ZM315.845 46.2436L316.006 46.7168L316.006 46.7168L315.845 46.2436ZM255.072 72.9568L255.292 73.4057L255.292 73.4057L255.072 72.9568ZM248.944 75.9649L249.165 76.4137L249.165 76.4137L248.944 75.9649ZM248.897 75.9883L248.676 75.5395L248.676 75.5395L248.897 75.9883ZM185.284 105.329L185.472 105.792L185.472 105.792L185.284 105.329ZM13.1009 126.894L13.0043 127.385L13.0043 127.385L13.1009 126.894ZM1.28223 109.278L0.791651 109.182L0.791651 109.182L1.28223 109.278ZM18.8981 97.4598L18.9948 96.9693L18.9948 96.9693L18.8981 97.4598ZM173.995 77.5335L173.807 77.0703L173.807 77.0703L173.995 77.5335ZM235.742 49.0257L235.962 49.4744L235.962 49.4744L235.742 49.0257ZM241.867 46.0192L241.647 45.5703L241.647 45.5703L241.867 46.0192ZM306.154 17.8517L305.993 17.3785L305.993 17.3785L306.154 17.8517ZM458.576 7.94065L458.691 7.45407L458.691 7.45407L458.576 7.94065ZM626.541 99.7254L626.941 100.025L627.228 99.6428L626.859 99.3392L626.541 99.7254ZM451.558 37.6221C496.849 48.3324 547.843 74.307 608.213 124.143L608.849 123.372C548.401 73.4714 497.272 47.4048 451.788 36.6489L451.558 37.6221ZM316.006 46.7168C359.487 31.8764 402.95 26.1276 451.558 37.6221L451.788 36.6489C402.953 25.1008 359.294 30.8855 315.683 45.7704L316.006 46.7168ZM255.292 73.4057C277.174 62.6789 297.081 53.1762 316.006 46.7168L315.683 45.7704C296.689 52.2533 276.729 61.7838 254.852 72.5078L255.292 73.4057ZM249.165 76.4137C251.223 75.4026 253.265 74.3993 255.292 73.4057L254.852 72.5078C252.825 73.5016 250.782 74.5051 248.724 75.5161L249.165 76.4137ZM249.117 76.4371L249.165 76.4137L248.724 75.5161L248.676 75.5395L249.117 76.4371ZM185.472 105.792C207.936 96.6681 229.248 86.1983 249.117 76.437L248.676 75.5395C228.803 85.3028 207.522 95.757 185.096 104.865L185.472 105.792ZM13.0043 127.385C78.5957 140.303 135.596 126.049 185.472 105.792L185.096 104.865C135.316 125.083 78.5249 139.27 13.1975 126.404L13.0043 127.385ZM0.791651 109.182C-0.86254 117.581 4.60522 125.731 13.0043 127.385L13.1975 126.404C5.34034 124.856 0.225333 117.232 1.7728 109.375L0.791651 109.182ZM18.9948 96.9693C10.5957 95.315 2.44591 100.783 0.791651 109.182L1.7728 109.375C3.32033 101.518 10.9443 96.4029 18.8015 97.9504L18.9948 96.9693ZM173.807 77.0703C126.923 96.1118 76.4034 108.276 18.9948 96.9693L18.8015 97.9504C76.4741 109.309 127.203 97.0776 174.183 77.9968L173.807 77.0703ZM235.522 48.5769C215.519 58.4013 195.191 68.3852 173.807 77.0703L174.183 77.9968C195.606 69.2962 215.965 59.2965 235.962 49.4744L235.522 48.5769ZM241.647 45.5703C239.608 46.5697 237.567 47.5725 235.522 48.5769L235.962 49.4744C238.008 48.47 240.049 47.4674 242.087 46.4682L241.647 45.5703ZM305.993 17.3785C284.938 24.5646 263.355 34.929 241.647 45.5703L242.087 46.4682C263.8 35.8243 285.33 25.4876 306.316 18.3249L305.993 17.3785ZM458.691 7.45407C403.049 -5.70385 353.512 1.15972 305.993 17.3785L306.316 18.3249C353.705 2.15056 403.046 -4.67702 458.461 8.42723L458.691 7.45407ZM626.859 99.3392C564.497 48.052 509.644 19.5029 458.691 7.45407L458.461 8.42723C509.222 20.4308 563.94 48.8887 626.224 100.112L626.859 99.3392ZM608.931 124.057L626.941 100.025L626.141 99.4255L608.131 123.458L608.931 124.057Z" fill="white"/>
</svg>
