<svg width="42" height="41" viewBox="0 0 42 41" fill="none" xmlns="http://www.w3.org/2000/svg">
<path d="M14.6731 31.5565L8.91336 31.5508V24.6771C8.91336 23.2098 9.48532 22.4448 10.7437 22.2707H14.6731C17.4757 22.2707 19.286 24.0348 19.286 26.8865C19.286 29.8181 17.5215 31.5537 14.6731 31.5565ZM8.91336 13.0191V11.2093C8.91336 9.62503 9.58542 8.87428 11.0554 8.77723H14.0039C16.5291 8.77723 18.0448 10.2844 18.0448 12.8136C18.0448 14.7375 17.0067 16.9841 14.0954 16.9841H8.91336V13.0191ZM22.0257 19.8757L20.9847 19.2905L21.8942 18.5141C22.9523 17.6063 24.7254 15.5653 24.7254 12.0457C24.7254 6.65345 20.5357 3.17375 14.0525 3.17375H6.65123V3.1709H5.80757C3.88576 3.24226 2.34717 4.8037 2.32715 6.73052V37.3313H14.1955C21.4023 37.3313 26.0524 33.4148 26.0524 27.3489C26.0552 24.0862 24.5538 21.2973 22.0257 19.8757Z" fill="white"/>
<path d="M29.1465 33.1065C29.1465 30.7686 31.034 28.8789 33.3619 28.8789C35.6955 28.8789 37.5916 30.7715 37.5916 33.1065C37.5916 35.4415 35.6927 37.3341 33.3619 37.3341C31.034 37.3369 29.1465 35.4415 29.1465 33.1065Z" fill="white"/>
</svg>
