<svg width="39" height="38" viewBox="0 0 39 38" fill="none" xmlns="http://www.w3.org/2000/svg">
<g clip-path="url(#clip0_555_6444)">
<path d="M39.0486 7.93297C37.6074 8.55641 36.0626 8.975 34.4386 9.165C36.0961 8.19719 37.3697 6.66531 37.9669 4.8425C36.4191 5.73609 34.6976 6.38625 32.8725 6.73656C31.41 5.21656 29.326 4.26953 27.0195 4.26953C22.5893 4.26953 18.9971 7.76672 18.9971 12.0833C18.9971 12.6948 19.0702 13.2916 19.2073 13.8645C12.5407 13.538 6.63285 10.4267 2.67496 5.6975C1.98332 6.85531 1.59027 8.19719 1.59027 9.62812C1.59027 12.3386 3.00402 14.7314 5.15816 16.1356C3.84191 16.0941 2.60488 15.7408 1.52324 15.1559C1.52324 15.1886 1.52324 15.2212 1.52324 15.2539C1.52324 19.042 4.2898 22.1978 7.9552 22.9192C7.28488 23.0973 6.57496 23.1923 5.84371 23.1923C5.32574 23.1923 4.82301 23.1448 4.33246 23.0498C5.35621 26.1522 8.31777 28.4173 11.8247 28.4797C9.08254 30.5756 5.62434 31.8225 1.86449 31.8225C1.21551 31.8225 0.578711 31.7869 -0.0458984 31.7127C3.50066 33.9333 7.71754 35.2247 12.2482 35.2247C27.0012 35.2247 35.0693 23.317 35.0693 12.9917C35.0693 12.6533 35.0602 12.3119 35.048 11.9794C36.6141 10.878 37.973 9.50047 39.0486 7.93297Z" fill="white"/>
</g>
<defs>
<clipPath id="clip0_555_6444">
<rect width="39" height="38" fill="white"/>
</clipPath>
</defs>
</svg>
