<svg width="377" height="230" viewBox="0 0 377 230" fill="none" xmlns="http://www.w3.org/2000/svg">
<mask id="mask0_1204_1981" style="mask-type:alpha" maskUnits="userSpaceOnUse" x="24" y="105" width="87" height="122">
<path d="M106.964 127.427C111.801 122.503 111.734 114.588 106.808 109.75C101.885 104.911 93.9682 104.982 89.1313 109.907L41.0845 158.811C30.2338 169.857 24.3904 184.874 24.9235 200.351L25.3995 214.216C25.6389 221.115 31.4247 226.515 38.323 226.278C45.2213 226.041 50.6213 220.256 50.3856 213.355L49.9096 199.49C49.6119 190.862 52.87 182.49 58.9174 176.332L106.964 127.427Z" fill="#D9D9D9" stroke="white" stroke-width="0.5"/>
</mask>
<g mask="url(#mask0_1204_1981)">
<path d="M106.964 127.427C111.801 122.503 111.734 114.588 106.808 109.75C101.885 104.911 93.9682 104.982 89.1313 109.907L41.0845 158.811C30.2338 169.857 24.3904 184.874 24.9235 200.351L25.3995 214.216C25.6389 221.115 31.4247 226.515 38.323 226.278C45.2213 226.041 50.6213 220.256 50.3856 213.355L49.9096 199.49C49.6119 190.862 52.87 182.49 58.9174 176.332L106.964 127.427Z" fill="#ECE3CE"/>
<path d="M38.5 208.5C35.5327 202.026 31 195.621 22.5633 195.621L21.0852 236.561L54.302 235.28C50.2829 230.974 44 220.5 38.5 208.5Z" fill="black"/>
<path d="M54.9493 216.153C51.2234 208.53 31.2188 194.224 21.6822 188.023C21.5068 178.271 23.5961 158.564 26 172.5C28.4039 186.436 47.3422 191.38 57.5 193C58.1559 202.072 58.6753 223.777 54.9493 216.153Z" fill="black"/>
<path d="M60.0894 189.794C37.4679 187.439 29.2226 170.171 27.9276 161.832L68.4415 122.984C80.1494 139.693 74.2865 141.063 62.3928 144.908C50.499 148.754 48.1739 161.066 50.3274 167.727C52.9838 175.943 63.0524 182.705 68.9892 184.814C75.4482 187.455 82.711 192.149 60.0894 189.794Z" fill="black"/>
<path d="M60.0894 159.5C60.0894 166.312 68.1986 173.159 72.3909 175.832L117.87 147.466L119.458 111.745L102.069 93.7199C89.8859 100.462 67.819 114.883 77.0193 118.635C88.5197 123.324 91 137.775 79 142.5C71.5418 145.437 60.0894 149.5 60.0894 159.5Z" fill="black"/>
<path d="M38.5 208.5C35.5327 202.026 31 195.621 22.5633 195.621L21.0852 236.561L54.302 235.28C50.2829 230.974 44 220.5 38.5 208.5Z" stroke="white" stroke-width="0.5" stroke-linejoin="round"/>
<path d="M54.9493 216.153C51.2234 208.53 31.2188 194.224 21.6822 188.023C21.5068 178.271 23.5961 158.564 26 172.5C28.4039 186.436 47.3422 191.38 57.5 193C58.1559 202.072 58.6753 223.777 54.9493 216.153Z" stroke="white" stroke-width="0.5" stroke-linejoin="round"/>
<path d="M60.0894 189.794C37.4679 187.439 29.2226 170.171 27.9276 161.832L68.4415 122.984C80.1494 139.693 74.2865 141.063 62.3928 144.908C50.499 148.754 48.1739 161.066 50.3274 167.727C52.9838 175.943 63.0524 182.705 68.9892 184.814C75.4482 187.455 82.711 192.149 60.0894 189.794Z" stroke="white" stroke-width="0.5" stroke-linejoin="round"/>
<path d="M60.0894 159.5C60.0894 166.312 68.1986 173.159 72.3909 175.832L117.87 147.466L119.458 111.745L102.069 93.7199C89.8859 100.462 67.819 114.883 77.0193 118.635C88.5197 123.324 91 137.775 79 142.5C71.5418 145.437 60.0894 149.5 60.0894 159.5Z" stroke="white" stroke-width="0.5" stroke-linejoin="round"/>
<ellipse cx="78.3069" cy="137.482" rx="8" ry="5" transform="rotate(-47.9169 78.3069 137.482)" fill="black" stroke="white" stroke-width="0.5"/>
<path d="M106.964 127.427C111.801 122.503 111.734 114.588 106.808 109.75C101.885 104.911 93.9682 104.982 89.1313 109.907L41.0845 158.811C30.2338 169.857 24.3904 184.874 24.9235 200.351L25.3995 214.216C25.6389 221.115 31.4247 226.515 38.323 226.278C45.2213 226.041 50.6213 220.256 50.3856 213.355L49.9096 199.49C49.6119 190.862 52.87 182.49 58.9174 176.332L106.964 127.427Z" stroke="white" stroke-width="0.5"/>
</g>
<mask id="mask1_1204_1981" style="mask-type:alpha" maskUnits="userSpaceOnUse" x="238" y="36" width="87" height="122">
<path d="M321.054 58.2089C325.891 53.2847 325.824 45.3695 320.897 40.5319C315.975 35.6932 308.058 35.7641 303.221 40.6883L255.174 89.5932C244.324 100.639 238.48 115.656 239.013 131.132L239.489 144.998C239.729 151.897 245.515 157.297 252.413 157.06C259.311 156.823 264.711 151.037 264.475 144.137L263.999 130.272C263.702 121.644 266.96 113.271 273.007 107.114L321.054 58.2089Z" fill="#D9D9D9" stroke="white" stroke-width="0.5"/>
</mask>
<g mask="url(#mask1_1204_1981)">
<path d="M321.054 58.2089C325.891 53.2847 325.824 45.3695 320.897 40.5319C315.975 35.6932 308.058 35.7641 303.221 40.6883L255.174 89.5932C244.324 100.639 238.48 115.656 239.013 131.132L239.489 144.998C239.729 151.897 245.515 157.297 252.413 157.06C259.311 156.823 264.711 151.037 264.475 144.137L263.999 130.272C263.702 121.644 266.96 113.271 273.007 107.114L321.054 58.2089Z" fill="black"/>
<ellipse cx="292.397" cy="68.2639" rx="8" ry="5" transform="rotate(-47.9169 292.397 68.2639)" fill="black" stroke="white" stroke-width="0.5"/>
<path d="M321.054 58.2089C325.891 53.2847 325.824 45.3695 320.897 40.5319C315.975 35.6932 308.058 35.7641 303.221 40.6883L255.174 89.5932C244.324 100.639 238.48 115.656 239.013 131.132L239.489 144.998C239.729 151.897 245.515 157.297 252.413 157.06C259.311 156.823 264.711 151.037 264.475 144.137L263.999 130.272C263.702 121.644 266.96 113.271 273.007 107.114L321.054 58.2089Z" stroke="white" stroke-width="0.5"/>
</g>
<path d="M96.3479 145.917C99.5512 155.825 103.023 166.067 110.627 173.181C122.828 184.596 140.697 189.217 157.721 183.713L187.615 174.048C212.571 165.979 226.262 139.206 218.193 114.249L210.408 90.1711L229.179 84.1022L236.964 108.181C245.033 133.137 271.805 146.828 296.762 138.759L326.656 129.094C351.613 121.025 365.303 94.252 357.234 69.2951L346.445 35.9253C344.84 30.9615 339.536 28.2262 334.568 29.7833C333.818 29.8418 333.063 29.9886 332.316 30.2301L94.3314 107.175C89.0764 108.874 86.1937 114.511 87.8928 119.766L96.3479 145.917Z" fill="black" stroke="white" stroke-width="0.5" stroke-linecap="round"/>
<mask id="mask2_1204_1981" style="mask-type:alpha" maskUnits="userSpaceOnUse" x="90" y="27" width="274" height="159">
<path d="M98.3506 139.113C102.753 152.729 107.372 167.261 118.945 175.679C130.81 184.31 146.497 187.341 161.525 182.482L191.419 172.817C216.376 164.748 230.066 137.975 221.997 113.019L215.751 93.698C214.901 91.0705 216.343 88.2518 218.97 87.4023L228.226 84.4098C230.853 83.5602 233.672 85.0016 234.522 87.6291L240.768 106.95C248.837 131.907 275.61 145.597 300.567 137.528L330.461 127.863C355.417 119.794 369.108 93.0214 361.039 68.0645L350.25 34.6947C348.645 29.731 343.341 26.9956 338.373 28.5527C337.623 28.6112 336.868 28.758 336.121 28.9995L98.1361 105.944C92.8811 107.643 89.9984 113.28 91.6975 118.535L98.3506 139.113Z" fill="#D9D9D9" stroke="white" stroke-width="0.5" stroke-linecap="round"/>
</mask>
<g mask="url(#mask2_1204_1981)">
<path d="M98.3506 139.113C102.753 152.729 107.372 167.261 118.945 175.679C130.81 184.31 146.497 187.341 161.525 182.482L191.419 172.817C216.376 164.748 230.066 137.975 221.997 113.019L215.751 93.698C214.901 91.0705 216.343 88.2518 218.97 87.4023L228.226 84.4098C230.853 83.5602 233.672 85.0016 234.522 87.6291L240.768 106.95C248.837 131.907 275.61 145.597 300.567 137.528L330.461 127.863C355.417 119.794 369.108 93.0214 361.039 68.0645L350.25 34.6947C348.645 29.731 343.341 26.9956 338.373 28.5527C337.623 28.6112 336.868 28.758 336.121 28.9995L98.1361 105.944C92.8811 107.643 89.9984 113.28 91.6975 118.535L98.3506 139.113Z" fill="#010000" stroke="white" stroke-width="0.5" stroke-linecap="round"/>
<path d="M120.453 128.236C107.046 114.074 111.504 97.8488 115.409 91.5066L147.047 72.3443C145.984 73.3888 144.639 79.849 147.77 97.3338C151.683 119.19 182.604 127.059 195.095 144.565C205.088 158.57 199.588 183.925 195.589 194.852C188.928 202.961 174.836 213.228 171.762 189.419C167.92 159.657 137.212 145.939 120.453 128.236Z" fill="#ECE3CE"/>
<path d="M263.557 75.1371C259.462 66.3718 261.182 52.0828 262.555 46.0339C281.205 29.4945 316.706 2.88236 309.515 28.7491C300.526 61.0825 316.877 88.9014 341.08 105.249C360.442 118.326 359.628 129.029 356.801 132.745C346.082 140.765 324.605 154.085 324.45 143.205C324.257 129.605 312.044 116.212 297.439 105.17C282.834 94.1278 268.676 86.0937 263.557 75.1371Z" fill="#ECE3CE"/>
<path d="M120.453 128.236C107.046 114.074 111.504 97.8488 115.409 91.5066L147.047 72.3443C145.984 73.3888 144.639 79.849 147.77 97.3338C151.683 119.19 182.604 127.059 195.095 144.565C205.088 158.57 199.588 183.925 195.589 194.852C188.928 202.961 174.836 213.228 171.762 189.419C167.92 159.657 137.212 145.939 120.453 128.236Z" stroke="white" stroke-width="0.5" stroke-linejoin="round"/>
<path d="M263.557 75.1371C259.462 66.3718 261.182 52.0828 262.555 46.0339C281.205 29.4945 316.706 2.88236 309.515 28.7491C300.526 61.0825 316.877 88.9014 341.08 105.249C360.442 118.326 359.628 129.029 356.801 132.745C346.082 140.765 324.605 154.085 324.45 143.205C324.257 129.605 312.044 116.212 297.439 105.17C282.834 94.1278 268.676 86.0937 263.557 75.1371Z" stroke="white" stroke-width="0.5" stroke-linejoin="round"/>
</g>
<path d="M290.5 0.999878L291.542 15.5407C292.624 30.6392 304.138 42.9455 319.199 45.0993L322 45.4999L319.199 45.9005C304.138 48.0542 292.624 60.3605 291.542 75.4591L290.5 89.9999L289.458 75.4591C288.376 60.3605 276.862 48.0542 261.801 45.9005L259 45.4999L261.801 45.0993C276.862 42.9455 288.376 30.6392 289.458 15.5407L290.5 0.999878Z" fill="black" stroke="white" stroke-width="0.5"/>
<path d="M127 152L127.728 162.293C128.483 172.981 136.525 181.692 147.043 183.216L149 183.5L147.043 183.783C136.525 185.308 128.483 194.019 127.728 204.707L127 215L126.272 204.707C125.517 194.019 117.475 185.308 106.957 183.783L105 183.5L106.957 183.216C117.475 181.692 125.517 172.981 126.272 162.293L127 152Z" fill="black" stroke="white" stroke-width="0.5"/>
</svg>
