<svg width="1062" height="471" viewBox="0 0 1062 471" fill="none" xmlns="http://www.w3.org/2000/svg">
<circle cx="97" cy="450.195" r="19.5" fill="black" stroke="white"/>
<path fill-rule="evenodd" clip-rule="evenodd" d="M1032.53 60.5999C1025.44 46.1282 1014.31 37.7361 998.876 33.6419C982.75 29.3632 961.731 29.7926 936.194 34.5139C885.068 43.9664 821.699 69.3979 755.547 97.3737C747.051 100.967 738.511 104.6 729.956 108.241C672.708 132.602 614.746 157.267 564.302 172.026C535.266 180.521 507.731 186.051 483.546 186.096C459.359 186.142 436.805 180.683 419.91 165.324C394.246 141.993 363.017 130.093 334.562 134.036C306.928 137.866 278.201 157.183 257.756 204.206C235.128 256.25 195.547 276.169 127.831 305.497C117.784 309.848 107.22 313.505 97.4339 316.893L97.4042 316.903C94.9078 317.768 92.4622 318.614 90.0887 319.451C77.9855 323.715 67.4279 327.81 58.5235 333.011C49.7923 338.11 43.188 343.977 38.6507 351.512C34.1353 359.01 31 369.267 31 384.225C31 394.617 34.2494 406.793 43.6843 416.503C52.9879 426.079 70.1446 435.144 101.698 435.88C109.98 436.074 116.538 442.944 116.344 451.226C116.151 459.508 109.28 466.066 100.998 465.872C63.8904 465.006 38.373 454.088 22.1678 437.409C6.09384 420.865 1.00001 400.516 1 384.225C0.999967 364.908 5.10615 349.062 12.951 336.035C20.7741 323.044 31.6489 313.965 43.3928 307.106C54.9637 300.347 67.8773 295.469 80.1187 291.156C82.8429 290.196 85.5266 289.266 88.174 288.348L88.1815 288.346C97.8331 285.002 107.004 281.824 115.908 277.968C184.453 248.281 212.872 232.2 230.244 192.244C253.805 138.052 290.078 109.914 330.443 104.32C369.986 98.8402 409.754 115.547 440.09 143.126C449.374 151.565 463.406 156.134 483.49 156.096C503.576 156.058 527.996 151.391 555.877 143.233C604.477 129.013 660.581 105.148 718.066 80.6946L718.077 80.6897C726.648 77.0438 735.25 73.3849 743.862 69.7429C809.433 42.013 875.837 15.1646 930.74 5.01387C958.218 -0.0663824 984.278 -1.26936 1006.57 4.6451C1029.56 10.744 1048.19 24.3707 1059.47 47.3997C1063.11 54.8389 1060.04 63.8246 1052.6 67.4697C1045.16 71.1149 1036.17 68.0392 1032.53 60.5999Z" fill="black"/>
<path d="M998.876 33.6419L999.005 33.1586L999.005 33.1586L998.876 33.6419ZM1032.53 60.5999L1032.98 60.3799L1032.98 60.3799L1032.53 60.5999ZM936.194 34.5139L936.285 35.0056L936.285 35.0056L936.194 34.5139ZM755.547 97.3737L755.352 96.9132L755.352 96.9132L755.547 97.3737ZM729.956 108.241L729.76 107.781L729.76 107.781L729.956 108.241ZM564.302 172.026L564.161 171.546L564.161 171.546L564.302 172.026ZM483.546 186.096L483.545 185.596L483.545 185.596L483.546 186.096ZM419.91 165.324L419.574 165.694L419.574 165.694L419.91 165.324ZM334.562 134.036L334.493 133.541L334.493 133.541L334.562 134.036ZM257.756 204.206L258.214 204.405L258.214 204.405L257.756 204.206ZM127.831 305.497L127.632 305.038L127.632 305.038L127.831 305.497ZM97.4339 316.893L97.2703 316.42L97.2697 316.421L97.4339 316.893ZM97.4042 316.903L97.5677 317.376L97.5684 317.376L97.4042 316.903ZM90.0887 319.451L89.9225 318.979L89.9225 318.979L90.0887 319.451ZM58.5235 333.011L58.7757 333.442L58.7757 333.442L58.5235 333.011ZM38.6507 351.512L38.2224 351.254L38.2224 351.254L38.6507 351.512ZM31 384.225L30.5 384.225L30.5 384.225L31 384.225ZM43.6843 416.503L44.043 416.155L44.043 416.155L43.6843 416.503ZM101.698 435.88L101.71 435.381L101.71 435.381L101.698 435.88ZM116.344 451.226L116.844 451.238L116.844 451.238L116.344 451.226ZM100.998 465.872L100.987 466.372L100.987 466.372L100.998 465.872ZM22.1678 437.409L22.5264 437.06L22.5264 437.06L22.1678 437.409ZM1 384.225L1.5 384.225L1.5 384.225L1 384.225ZM12.951 336.035L13.3794 336.293L13.3794 336.293L12.951 336.035ZM43.3928 307.106L43.645 307.538L43.645 307.538L43.3928 307.106ZM80.1187 291.156L80.2849 291.627L80.2849 291.627L80.1187 291.156ZM88.174 288.348L88.012 287.875L88.0103 287.876L88.174 288.348ZM88.1815 288.346L88.3435 288.819L88.3452 288.818L88.1815 288.346ZM115.908 277.968L116.106 278.426L116.106 278.426L115.908 277.968ZM230.244 192.244L230.702 192.443L230.702 192.443L230.244 192.244ZM330.443 104.32L330.375 103.825L330.375 103.825L330.443 104.32ZM440.09 143.126L440.427 142.756L440.427 142.756L440.09 143.126ZM483.49 156.096L483.491 156.596L483.491 156.596L483.49 156.096ZM555.877 143.233L555.737 142.753L555.737 142.753L555.877 143.233ZM718.066 80.6946L717.871 80.234L717.87 80.2345L718.066 80.6946ZM718.077 80.6897L718.272 81.1503L718.273 81.1498L718.077 80.6897ZM743.862 69.7429L743.667 69.2824L743.862 69.7429ZM930.74 5.01387L930.831 5.50554L930.831 5.50554L930.74 5.01387ZM1006.57 4.6451L1006.44 5.12838L1006.44 5.12838L1006.57 4.6451ZM1059.47 47.3997L1059.02 47.6197L1059.02 47.6197L1059.47 47.3997ZM1052.6 67.4697L1052.38 67.0207L1052.38 67.0207L1052.6 67.4697ZM998.748 34.1251C1014.05 38.1859 1025.06 46.4905 1032.08 60.8199L1032.98 60.3799C1025.82 45.7658 1014.56 37.2863 999.005 33.1586L998.748 34.1251ZM936.285 35.0056C961.789 30.2902 982.724 29.8737 998.748 34.1251L999.005 33.1586C982.775 28.8526 961.672 29.2949 936.103 34.0223L936.285 35.0056ZM755.741 97.8342C821.904 69.8543 885.221 44.4464 936.285 35.0056L936.103 34.0223C884.914 43.4864 821.494 68.9416 755.352 96.9132L755.741 97.8342ZM730.152 108.701C738.707 105.06 747.246 101.427 755.741 97.8342L755.352 96.9132C746.855 100.506 738.315 104.14 729.76 107.781L730.152 108.701ZM564.442 172.506C614.92 157.737 672.911 133.059 730.152 108.701L729.76 107.781C672.504 132.145 614.571 156.797 564.161 171.546L564.442 172.506ZM483.547 186.596C507.8 186.55 535.387 181.007 564.442 172.506L564.161 171.546C535.145 180.036 507.661 185.551 483.545 185.596L483.547 186.596ZM419.574 165.694C436.596 181.168 459.292 186.642 483.547 186.596L483.545 185.596C459.426 185.642 437.014 180.197 420.246 164.954L419.574 165.694ZM334.63 134.532C362.901 130.614 393.988 142.434 419.574 165.694L420.246 164.954C394.504 141.552 363.133 129.572 334.493 133.541L334.63 134.532ZM258.214 204.405C278.607 157.502 307.209 138.332 334.63 134.532L334.493 133.541C306.648 137.4 277.794 156.863 257.297 204.006L258.214 204.405ZM128.029 305.955C195.732 276.633 235.499 256.65 258.214 204.405L257.297 204.006C234.757 255.849 195.361 275.704 127.632 305.038L128.029 305.955ZM97.5975 317.365C107.381 313.979 117.962 310.315 128.029 305.955L127.632 305.038C117.605 309.38 107.06 313.032 97.2703 316.42L97.5975 317.365ZM97.5684 317.376L97.5981 317.365L97.2697 316.421L97.2399 316.431L97.5684 317.376ZM90.2548 319.922C92.6268 319.086 95.0712 318.24 97.5677 317.376L97.2406 316.431C94.7445 317.295 92.2975 318.142 89.9225 318.979L90.2548 319.922ZM58.7757 333.442C67.6356 328.267 78.1538 324.186 90.2548 319.922L89.9225 318.979C77.8172 323.244 67.2202 327.352 58.2714 332.579L58.7757 333.442ZM39.0791 351.77C43.5617 344.326 50.0948 338.513 58.7757 333.442L58.2714 332.579C49.4898 337.708 42.8144 343.628 38.2224 351.254L39.0791 351.77ZM31.5 384.225C31.5 369.34 34.6191 359.176 39.0791 351.77L38.2224 351.254C33.6516 358.844 30.5 369.194 30.5 384.225L31.5 384.225ZM44.043 416.155C34.7184 406.558 31.5 394.518 31.5 384.225L30.5 384.225C30.5 394.716 33.7805 407.028 43.3257 416.852L44.043 416.155ZM101.71 435.381C70.2492 434.646 53.2317 425.612 44.043 416.155L43.3257 416.852C52.7441 426.545 70.04 435.642 101.687 436.38L101.71 435.381ZM116.844 451.238C117.044 442.68 110.268 435.58 101.71 435.381L101.687 436.38C109.693 436.567 116.031 443.209 115.844 451.215L116.844 451.238ZM100.987 466.372C109.545 466.572 116.644 459.796 116.844 451.238L115.844 451.215C115.658 459.221 109.016 465.559 101.01 465.373L100.987 466.372ZM21.8092 437.757C38.1295 454.555 63.7865 465.504 100.987 466.372L101.01 465.373C63.9944 464.509 38.6164 453.621 22.5264 437.06L21.8092 437.757ZM0.5 384.225C0.50001 400.614 5.62439 421.099 21.8092 437.757L22.5264 437.06C6.5633 420.631 1.50001 400.418 1.5 384.225L0.5 384.225ZM12.5227 335.777C4.6223 348.896 0.499966 364.836 0.5 384.225L1.5 384.225C1.49997 364.981 5.59001 349.228 13.3794 336.293L12.5227 335.777ZM43.1406 306.674C31.3466 313.563 20.4005 322.696 12.5227 335.777L13.3794 336.293C21.1476 323.393 31.9513 314.368 43.645 307.538L43.1406 306.674ZM79.9525 290.684C67.7087 294.998 54.7559 299.89 43.1406 306.674L43.645 307.538C55.1715 300.805 68.0459 295.94 80.2849 291.627L79.9525 290.684ZM88.0103 287.876C85.363 288.793 82.6782 289.724 79.9525 290.684L80.2849 291.627C83.0077 290.668 85.6901 289.738 88.3378 288.821L88.0103 287.876ZM88.0195 287.873L88.012 287.875L88.336 288.821L88.3435 288.819L88.0195 287.873ZM115.709 277.509C106.826 281.356 97.6726 284.528 88.0178 287.873L88.3452 288.818C97.9936 285.475 107.183 282.291 116.106 278.426L115.709 277.509ZM229.785 192.044C212.501 231.799 184.269 247.816 115.709 277.509L116.106 278.426C184.637 248.746 213.242 232.601 230.702 192.443L229.785 192.044ZM330.375 103.825C289.797 109.448 253.399 137.734 229.785 192.044L230.702 192.443C254.212 138.37 290.359 110.38 330.512 104.816L330.375 103.825ZM440.427 142.756C410.013 115.107 370.103 98.3193 330.375 103.825L330.512 104.816C369.87 99.3611 409.496 115.988 439.754 143.496L440.427 142.756ZM483.489 155.596C463.473 155.634 449.583 151.08 440.427 142.756L439.754 143.496C449.164 152.05 463.338 156.634 483.491 156.596L483.489 155.596ZM555.737 142.753C527.875 150.905 503.507 155.558 483.489 155.596L483.491 156.596C503.646 156.558 528.118 151.876 556.018 143.713L555.737 142.753ZM717.87 80.2345C660.377 104.691 604.303 128.544 555.737 142.753L556.018 143.713C604.652 129.483 660.785 105.604 718.262 81.1547L717.87 80.2345ZM717.883 80.2292L717.871 80.234L718.261 81.1552L718.272 81.1503L717.883 80.2292ZM743.667 69.2824C735.054 72.9246 726.452 76.5838 717.882 80.2296L718.273 81.1498C726.844 77.5039 735.445 73.8451 744.056 70.2034L743.667 69.2824ZM930.649 4.52221C875.683 14.6846 809.228 41.5565 743.667 69.2824L744.056 70.2034C809.637 42.4695 875.991 15.6446 930.831 5.50554L930.649 4.52221ZM1006.7 4.16182C984.303 -1.7799 958.159 -0.56404 930.649 4.52221L930.831 5.50554C958.276 0.431275 984.252 -0.75883 1006.44 5.12838L1006.7 4.16182ZM1059.92 47.1797C1048.56 24.0079 1029.81 10.2941 1006.7 4.16182L1006.44 5.12838C1029.3 11.1939 1047.81 24.7335 1059.02 47.6197L1059.92 47.1797ZM1052.82 67.9187C1060.51 64.1521 1063.69 54.8669 1059.92 47.1797L1059.02 47.6197C1062.54 54.8109 1059.57 63.4971 1052.38 67.0207L1052.82 67.9187ZM1032.08 60.8199C1035.85 68.5071 1045.13 71.6854 1052.82 67.9187L1052.38 67.0207C1045.19 70.5444 1036.5 67.5712 1032.98 60.3799L1032.08 60.8199Z" fill="white"/>
</svg>
