<svg width="331" height="285" viewBox="0 0 331 285" fill="none" xmlns="http://www.w3.org/2000/svg">
<path d="M83.0731 94.267L83.4815 94.1576L83.372 93.7492L71.2877 48.6499C68.3394 37.6466 74.8692 26.3366 85.8725 23.3883C96.8758 20.4399 108.186 26.9698 111.134 37.9731L123.219 83.0724L123.328 83.4808L123.736 83.3714L168.835 71.2872C179.838 68.3389 191.148 74.8687 194.097 85.872C197.045 96.8753 190.515 108.185 179.512 111.134L134.413 123.218L134.005 123.327L134.114 123.736L146.199 168.835C149.147 179.838 142.617 191.148 131.614 194.097C120.61 197.045 109.3 190.515 106.352 179.512L94.2677 134.413L94.1583 134.004L93.7499 134.114L48.6501 146.198C37.6468 149.146 26.3367 142.616 23.3884 131.613C20.4401 120.61 26.9699 109.3 37.9732 106.352L83.0731 94.267Z" fill="black" stroke="white" stroke-width="0.845599"/>
<path d="M86.6771 81.6501L77.6547 47.9782C75.7808 40.9847 79.9311 33.7962 86.9246 31.9223L87.2124 31.8452" stroke="white" stroke-width="0.845599" stroke-dasharray="100 50"/>
<path d="M74.4012 103.755L40.7293 112.778C33.7358 114.652 29.5855 121.84 31.4594 128.834L31.5365 129.121" stroke="white" stroke-width="0.845599" stroke-dasharray="100 50"/>
<path d="M208.579 154.075L208.992 154.165L209.082 153.752L219.07 108.143C221.507 97.0152 232.503 89.9699 243.631 92.4068C254.759 94.8436 261.804 105.84 259.367 116.968L249.379 162.577L249.289 162.99L249.702 163.081L295.311 173.068C306.438 175.505 313.484 186.502 311.047 197.629C308.61 208.757 297.614 215.803 286.486 213.366L240.877 203.378L240.464 203.287L240.374 203.7L230.386 249.31C227.949 260.437 216.952 267.483 205.825 265.046C194.697 262.609 187.651 251.613 190.088 240.485L200.076 194.876L200.167 194.463L199.754 194.372L154.144 184.384C143.016 181.947 135.971 170.951 138.408 159.823C140.845 148.695 151.841 141.65 162.969 144.087L208.579 154.075Z" fill="#ECE3CE" stroke="black" stroke-width="0.845599"/>
<path d="M217.574 144.524L225.032 110.471C226.58 103.399 233.569 98.9207 240.642 100.47L240.933 100.533" stroke="black" stroke-width="0.845599" stroke-dasharray="500 30 30 100"/>
<path d="M196.519 158.518L162.466 151.061C155.394 149.512 148.405 153.99 146.856 161.063L146.792 161.354" stroke="black" stroke-width="0.845599" stroke-dasharray="1200.5 1200.5"/>
</svg>
