<?xml version="1.0" encoding="utf-8"?>
<!-- Generator: Adobe Illustrator 26.3.1, SVG Export Plug-In . SVG Version: 6.00 Build 0)  -->
<svg version="1.1" id="Layer_1" xmlns="http://www.w3.org/2000/svg" xmlns:xlink="http://www.w3.org/1999/xlink" x="0px" y="0px"
	 viewBox="0 0 40 30" style="enable-background:new 0 0 40 30;" xml:space="preserve">
<style type="text/css">
	.st0{fill:#FFFFFF;}
</style>
<g>
	<path class="st0" d="M20,15.8L39.8,3.9c0-0.2,0.2-1.4-0.7-2.3c-0.6-0.6-1.2-0.7-1.5-0.7H2.4C2.1,1,1.5,1.1,1,1.7
		c-0.8,0.9-0.8,2-0.8,2.2C2.6,5.3,20,15.8,20,15.8z"/>
	<path class="st0" d="M0.2,8.4l19,11.7c0,0,0.7,0.4,1.3,0c0.6-0.4,19.2-11.7,19.2-11.7V27c0,0.4-0.1,1-0.5,1.5
		C38.8,29,38.1,29,37.8,29c-3.2,0.1-35.5,0-35.5,0c-0.5,0-1.3-0.2-1.7-0.7c-0.4-0.5-0.4-1.1-0.4-1.3C0.2,25.6,0.2,18.3,0.2,8.4z"/>
</g>
</svg>
